<svg width="64" height="64" version="1.1" viewBox="0 0 33.867 33.867" xmlns="http://www.w3.org/2000/svg">
 <g transform="translate(-86.413 -117.02)">
  <circle cx="103.19" cy="134.09" r="16.933" stroke-width=".26458"/>
 </g>
 <g transform="matrix(.14562 0 0 .14562 .15992 .27015)" fill="#fff">
  <path d="m230.75 115.38c0-14.588-13.494-25.972-33.638-33.907 8.594-19.81 10.137-37.38-0.154-47.688-4.793-4.788-11.419-7.214-19.677-7.214-8.08 0-17.649 2.474-28.041 6.954-7.926-20.088-19.304-33.52-33.865-33.52-14.57 0-25.937 13.438-33.872 33.525-10.391-4.48-19.961-6.954-28.041-6.954-8.264 0-14.884 2.427-19.677 7.214-10.291 10.308-8.751 27.866-0.151 47.688-20.149 7.93-33.635 19.308-33.635 33.901 0 14.591 13.485 25.975 33.635 33.907-8.594 19.812-10.134 37.38 0.157 47.688 4.793 4.788 11.417 7.212 19.677 7.212 8.08 0 17.649-2.471 28.041-6.951 7.935 20.084 19.304 33.525 33.872 33.525 14.573 0 25.934-13.441 33.872-33.525 10.391 4.48 19.96 6.951 28.04 6.951 8.258 0 14.884-2.424 19.677-7.212 10.291-10.308 8.748-27.863 0.154-47.688 20.144-7.931 33.626-19.315 33.626-33.906zm-53.463-73.678c4.114 0 7.122 0.937 8.973 2.79 4.563 4.575 3.659 16.361-3.398 32.237-7.442-2.09-15.403-3.804-23.708-5.128-1.324-8.299-3.032-16.27-5.119-23.69 8.877-3.983 16.857-6.209 23.252-6.209zm-29.85 73.678c0 4.527-0.13 8.881-0.319 13.148-2.884 3.156-5.875 6.324-9.066 9.517-3.145 3.145-6.337 6.159-9.552 9.079-4.268 0.183-8.609 0.307-13.125 0.307s-8.86-0.124-13.122-0.307c-3.215-2.932-6.416-5.935-9.552-9.079-3.195-3.192-6.191-6.378-9.073-9.517-0.186-4.268-0.313-8.621-0.313-13.148 0-4.528 0.127-8.884 0.313-13.151 2.882-3.153 5.873-6.319 9.073-9.517 3.136-3.142 6.331-6.156 9.552-9.073 4.262-0.186 8.606-0.313 13.122-0.313 4.521 0 8.857 0.127 13.125 0.313 3.215 2.926 6.413 5.932 9.552 9.073 3.186 3.198 6.183 6.381 9.066 9.517 0.184 4.267 0.319 8.623 0.319 13.151zm-12.749-46.533c-2.264-1.986-4.527-3.91-6.798-5.781 4.256-2.958 8.446-5.647 12.549-8.05 1.171 4.504 2.223 9.395 3.156 14.576-2.943-0.277-5.91-0.526-8.907-0.745zm-38.621 0c-2.985 0.198-5.949 0.446-8.904 0.745 0.928-5.181 1.974-10.072 3.153-14.576 4.099 2.403 8.292 5.092 12.548 8.05-2.275 1.877-4.539 3.795-6.797 5.781zm-27.225 27.284c-1.974 2.258-3.892 4.54-5.781 6.854-3.038-4.359-5.769-8.588-8.139-12.646 4.533-1.185 9.448-2.243 14.664-3.177-0.282 2.973-0.531 5.97-0.744 8.969zm0 38.497c0.207 3.003 0.455 5.994 0.75 8.973-5.216-0.934-10.131-1.998-14.664-3.18 2.37-4.055 5.101-8.275 8.139-12.649 1.883 2.317 3.801 4.598 5.775 6.856zm27.225 27.284c2.264 1.986 4.528 3.913 6.797 5.781-4.256 2.955-8.45 5.65-12.548 8.05-1.18-4.504-2.226-9.397-3.153-14.576 2.949 0.278 5.908 0.526 8.904 0.745zm38.621 0c2.984-0.2 5.94-0.449 8.907-0.745-0.922 5.179-1.974 10.072-3.156 14.576-4.103-2.399-8.293-5.095-12.549-8.05 2.277-1.879 4.541-3.794 6.798-5.781zm27.219-27.284c1.975-2.258 3.901-4.539 5.781-6.856 3.038 4.362 5.769 8.595 8.139 12.649-4.533 1.182-9.451 2.246-14.664 3.18 0.289-2.979 0.537-5.97 0.744-8.973zm0-38.497c-0.207-3-0.455-5.997-0.75-8.969 5.207 0.934 10.131 1.992 14.664 3.177-2.37 4.058-5.101 8.275-8.139 12.646-1.873-2.314-3.794-4.595-5.775-6.854zm-46.532-80.995c6.457 0 14.13 8.952 20.359 25.118-6.626 3.712-13.453 8.092-20.359 13.11-6.913-5.019-13.734-9.398-20.36-13.11 6.233-16.166 13.908-25.118 20.36-25.118zm-70.882 29.356c1.853-1.854 4.873-2.79 8.976-2.79 6.398 0 14.381 2.226 23.247 6.209-2.081 7.433-3.789 15.392-5.119 23.69-8.299 1.324-16.275 3.038-23.708 5.128-7.052-15.876-7.965-27.662-3.396-32.237zm-29.362 70.888c0-6.464 8.993-14.168 25.233-20.404 3.783 6.738 8.195 13.589 13.134 20.404-4.933 6.812-9.351 13.668-13.134 20.406-16.245-6.241-25.233-13.943-25.233-20.406zm38.332 73.675c-4.105 0-7.123-0.935-8.976-2.79-4.569-4.575-3.656-16.361 3.401-32.237 7.433 2.093 15.403 3.807 23.708 5.131 1.324 8.298 3.032 16.267 5.119 23.69-8.871 3.983-16.848 6.206-23.252 6.206zm61.912 26.568c-6.458 0-14.133-8.954-20.36-25.114 6.626-3.712 13.453-8.086 20.36-13.11 6.913 5.024 13.733 9.398 20.359 13.11-6.217 16.16-13.902 25.114-20.359 25.114zm70.896-29.358c-1.862 1.855-4.87 2.79-8.979 2.79-6.401 0-14.381-2.223-23.247-6.206 2.081-7.437 3.789-15.393 5.119-23.69 8.299-1.324 16.278-3.038 23.708-5.131 7.047 15.875 7.963 27.662 3.399 32.237zm4.126-50.479c-3.783-6.738-8.192-13.594-13.134-20.406 4.93-6.815 9.351-13.666 13.134-20.404 16.242 6.236 25.232 13.94 25.232 20.404 1e-3 6.463-8.989 14.165-25.232 20.406z" fill="#f2f2f2"/>
 </g>
 <g transform="matrix(.83691 0 0 .83691 3.3871 3.7056)" fill="#00ed64" stroke="#000">
  <path d="m31.609 6.08s0.37-0.847 0-0.895c-0.369-0.047-4.867 0.788-7.051 2.327-1.105 0.934-4.983 3.07-7.279 7.763-0.388-0.151-0.893-0.064-0.929-0.233-0.06-0.279 0.449-0.792 0.454-0.796 0.223-0.222 0.36-0.528 0.36-0.866 0-0.674-0.547-1.221-1.223-1.221-0.674 0-1.221 0.547-1.221 1.221 0 0.338 0.138 0.644 0.36 0.865 2e-3 2e-3 0.454 0.577 0.353 0.864-0.053 0.147-0.342 0.167-0.616 0.328-2.279-4.837-6.255-7.024-7.377-7.971-2.183-1.538-6.681-2.373-7.05-2.326-0.37 0.047 0 0.895 0 0.895s-0.584 1.014-0.322 1.324 0.023 0.979 0.322 1.289-0.322 1.527 0.286 1.79c0.608 0.262 0.084 1.193 0.466 1.61 0.381 0.417 0.453 1.098 0.644 1.289s0.478 0.203 0.322 1.324 0.871 1.026 1.252 2.47c0.382 1.442 3.15 1.682 3.15 1.682l-1.468 2.398-0.179 1.503 0.286 1.86 1.038 0.716 0.18 0.753 1.146 0.143 1.108 0.573h2.041l1.288-0.608s0.931-0.144 1.182-0.179c0.053-3.117 1.351-4.769 2.029-5.422 0.012 0.062 0.023 0.125 0.035 0.188 0.394 2.147 0.604 4.685 0.746 6.122 0-1.113 0.305-3.762 0.765-6.156 0.013-0.065 0.024-0.131 0.039-0.195 0.643 0.584 2.064 2.239 2.121 5.508 0.251 0.036 1.182 0.179 1.182 0.179l1.288 0.608h2.04l1.109-0.573 1.146-0.143 0.179-0.752 1.038-0.717 0.286-1.86-0.179-1.503-1.469-2.398s2.77-0.239 3.15-1.683 1.408-1.349 1.252-2.47c-0.155-1.121 0.132-1.133 0.322-1.324s0.263-0.871 0.645-1.289-0.143-1.349 0.467-1.611c0.606-0.262-0.013-1.479 0.285-1.79 0.299-0.31 0.061-0.979 0.322-1.289 0.263-0.307-0.321-1.322-0.321-1.322z" fill="#00ed64" stroke="#000"/>
 </g>
</svg>
