<svg version="1.1" viewBox="0 0 331.61 100" xmlns="http://www.w3.org/2000/svg">
 <g transform="translate(44.364 -11.289)">
  <g transform="matrix(.79556 0 0 .79556 -9.0695 22.751)">
   <rect x="-44.364" y="-14.408" width="416.83" height="125.7" ry="4.8305" fill="#fff"/>
   <g fill="#111">
    <g transform="matrix(1.2654,0,0,1.2654,-44.381,-14.294)" featurekey="symbolFeature-0">
     <path d="m77.1 26.7c-1.6-1-3.8-1.9-6.5-2.7-5.6-1.6-12.9-2.4-20.6-2.4s-15 0.8-20.5 2.4c-2.8 0.8-5 1.7-6.5 2.7-2 1.3-2.9 2.8-2.9 4.4v37.9c0 1.6 1 3.1 2.9 4.4 1.6 1 3.8 1.9 6.5 2.7 5.5 1.5 12.8 2.4 20.5 2.4s15-0.8 20.5-2.4c2.8-0.8 5-1.7 6.5-2.7 2-1.3 2.9-2.8 2.9-4.4v-38c0.1-1.6-0.9-3.1-2.8-4.3zm-46.8 0.3c5.2-1.5 12.2-2.3 19.7-2.3s14.4 0.8 19.7 2.3c5.7 1.6 7.2 3.3 7.2 4.1 0 0.7-1.5 2.5-7.2 4.1-5.2 1.5-12.2 2.3-19.7 2.3s-14.4-0.8-19.7-2.3c-5.7-1.6-7.2-3.3-7.2-4.1 0.1-0.8 1.6-2.5 7.2-4.1zm39.4 33.4c-5.2 1.5-12.2 2.3-19.7 2.3s-14.4-0.8-19.7-2.3c-5.7-1.6-7.2-3.3-7.2-4.1v-8.1c1.6 1 3.7 1.8 6.3 2.6 5.5 1.5 12.8 2.4 20.5 2.4s15-0.8 20.5-2.4c2.6-0.7 4.8-1.6 6.3-2.6v8.1c0.1 0.7-1.4 2.5-7 4.1z"/>
    </g>
    <g transform="matrix(1.9152,0,0,1.9152,75.07,-9.0342)" featurekey="nameFeature-0">
     <path d="m20.02 10q1.4844 0 1.4844 4.6094-0.07813 4.8828-0.23438 8.3594h0.07813l-0.07813 0.15625q-0.46875 13.848-0.46875 15.391 0 0.19531-0.15625 0.78125l-0.15625-0.07813q0 0.11719-0.46875 0.39062-0.3125-0.44922-0.3125-0.70312h-0.07813v0.3125q-0.11719 0-0.3125-0.39062l0.07813-0.15625q-0.07813-0.15625-0.07813-0.23438 0.07813 0 0.07813-0.07813l-0.15625-0.07813 0.07813-0.15625q0-0.07813-0.07813-0.07813l0.07813-0.15625q0-0.07813-0.07813-0.07813l0.07813-0.15625q0-0.07813-0.07813-0.07813l0.07813-0.15625q0-0.07813-0.07813-0.07813l0.07813-0.15625q0-0.07813-0.07813-0.07813 0.07813-0.54684 0.15625-0.54684l-0.07813-0.15625v-0.23438q0-0.07813 0.07813-0.07813l-0.07813-0.15625 0.07813-0.15625q-0.15625 0-0.15625-0.15625h0.15625v-0.07813l-0.07813-0.15625h0.07813q0-0.07813-0.07813-0.07813l0.07813-0.39063v-0.625l0.07813-0.15625q-0.07813 0-0.07813-0.07813h0.07813l-0.07813-0.15623v-0.07813q0-0.07813 0.07813-0.07813 0-0.07813-0.07813-0.07813l0.15625-1.3281q-0.07813 0-0.07813-0.07813h0.07813l-0.07813-0.15625q0.07813-0.15625 0.07813-0.23438h-0.07813l0.07813-0.15625q0-0.07813-0.07813-0.07813l0.15625-0.9375h-0.07813l0.07813-0.15625v-0.23438q0-0.07813-0.07813-0.07813l0.07813-0.15625v-0.23438q0-0.07813-0.07813-0.07813l0.07813-0.15625-0.07813-0.15625q0.07813 0 0.07813-0.07813h-0.07813q0.07813-0.19531 0.15625-0.78125h-0.07813l0.07813-0.15625-0.07813-0.15625h0.07813l-0.07813-0.15625q0.07813-0.15625 0.07813-0.23438h-0.07813l0.07813-0.15625q0-0.07813-0.07813-0.07813l0.07813-0.15625q0-0.07813-0.07813-0.07813l0.07813-0.15625q0-0.07813-0.07813-0.07813l0.15625-0.625h-0.07811l0.07813-0.15625q0-0.07813-0.07813-0.07813l0.07813-0.15625q0-0.07813-0.07813-0.07813l0.07813-0.15625q0-0.07813-0.07813-0.07813l0.07813-0.15625q0-0.07813-0.07813-0.07813l0.07813-0.15625v-0.23438q0-0.07813-0.07813-0.07813l0.07813-0.15617q0-0.07813-0.07813-0.07813l0.07813-0.15625v-0.15625q0-0.07813-0.07813-0.07813 0.07813-0.85938 0.15625-0.85938l-0.07813-0.15625 0.07813-0.15625h-0.07813l0.07813-0.15625q0-0.07813-0.07813-0.07813l0.07813-0.15625-0.07813-0.15625h0.07813l-0.07813-0.15625q0.07813-0.15625 0.07813-0.23438-0.07813 0-0.07813-0.07813h0.07813q0-0.07813-0.07813-0.07813l0.07813-0.39063v-0.07813q0-0.07813-0.07813-0.07813 0.07813-0.78125 0.15625-0.78125l-0.07813-0.15625q0-0.07813 0.07813-0.07813l-0.07813-0.15625q0.07813-0.15625 0.07813-0.23438h-0.07813l0.07813-0.15625q0-0.07813-0.07813-0.07813l0.07813-0.15625q0-0.07813-0.07813-0.07813l0.07813-0.15625q0-0.07813-0.07813-0.07813l0.07813-0.15625q-0.07813-0.15625-0.07813-0.23438h0.07813l-0.07813-0.15625v-0.23438l0.07813-0.15625h-0.07813l0.07813-0.15625v-0.23438l-0.07813-0.15625h0.15626l-0.07813-0.15625q0-0.07813 0.07813-0.07813l-0.07813-0.15625q0.07813-0.15619 0.07813-0.23432h-0.07813l0.07813-0.15625q0-0.07813-0.07813-0.07813l0.07813-0.15624-0.07813-0.15625h0.07813l-0.07813-0.15625q0.07813-0.15625 0.07813-0.23438h-0.07813l0.07813-0.15625q0-0.07813-0.07813-0.07813l0.07813-0.15624q0-0.07813-0.07813-0.07813l0.07813-0.15624q0-0.07813-0.07813-0.07813l0.07813-0.15624q0-0.07813-0.07813-0.07813l0.07813-0.15624q0-0.07813-0.07813-0.07813l0.07813-0.15624q0-0.07813-0.07813-0.07813l0.07813-0.15624q0-0.07813-0.07813-0.07813l0.07813-0.15624q0-0.07813-0.07813-0.07813l0.07813-0.15624q-0.07813-0.15625-0.07813-0.23438 0.07813 0 0.07813-0.07813h-0.15625v-0.15625q0.01953-0.15625 0.15625-0.15625l-0.15625-0.78125q0.15625 0 0.15625-0.15625-0.15625 0-0.15625-0.15625h0.07813l-0.07813-0.15625q0-0.07813 0.07813-0.07813l-0.07813-0.15625q0.01953-0.15625 0.15625-0.15625v0.15625h0.07813v-0.15625q-0.07813 0-0.07813-0.07813h0.07813q0-0.54688-0.46875-0.9375-0.35156 0.39062-0.46875 0.39062 0.3125 1.1328 0.46875 2.4219h-0.07813l0.07813 0.15625v1.0938q0 0.54688 0.07813 1.7188h-0.07813l0.07813 0.15625-0.07813 0.39063h0.07813l-0.07813 0.15625q0 0.07813 0.07813 0.07813l-0.07813 0.15625q0 0.07813 0.07813 0.07813l-0.07813 0.15625v2.1875q0 0.07813-0.07813 0.07813l0.07813 0.15625q0 0.07813-0.07813 0.07813 0 0.07813 0.07813 0.07813l-0.07813 0.39063v1.0938q0 0.07813-0.07813 0.07813l0.07813 0.15625q-0.07813 0.15625-0.07813 0.23438h0.07813l-0.07813 0.15625q0 0.07813 0.07813 0.07813l-0.07813 0.15625q0 0.07813 0.07813 0.07813l-0.07813 0.15625q0 0.07813 0.07813 0.07813l-0.07813 0.15625q0 0.07813 0.07813 0.07813l-0.07813 0.15625v0.625q0 0.07813 0.07813 0.07813-0.05859 0.3125-0.15625 0.3125l0.07813 0.15625v0.07813q0 0.07813-0.07813 0.07813l0.07813 0.15625q0 0.07813-0.07813 0.07813l0.07813 0.15625v0.23438l-0.07813 0.1562h0.07813l-0.07813 0.15625q0 0.07813 0.07813 0.07813l-0.07813 0.15625q0 0.07813 0.07813 0.07813l-0.07813 0.15624v0.70313q0 0.07813-0.07813 0.07813l0.07813 0.15625v0.07813q0 0.17578-0.07813 0.3125 0.07813 0.13672 0.07813 0.3125v0.23438q0 0.07813-0.07813 0.07813 0 0.07813 0.07813 0.07813l-0.07813 0.39063v1.4063l-0.07813 0.15625h0.07813l-0.07813 0.15625q0 0.07813 0.07813 0.07813l-0.07813 0.15625v1.4844q0 0.07813-0.07813 0.07813 0 0.07813 0.07813 0.07813l-0.07813 0.39063v1.0938q0 0.07813-0.07813 0.07813l0.07813 0.15625-0.07813 0.15625h0.07813l-0.07813 0.15625v1.4844l-0.07813 0.39063h0.07813l-0.07813 0.15625v0.39063q0 0.07813 0.07813 0.07813-0.15625 0.29297-0.15625 0.625 0 1.4648 0.23438 2.2656h-0.23438q-0.44922 0-0.54688-2.5781v-0.3125q0-0.07813-0.07813-0.07813l0.07813-0.15625q0.39062-8.3008 0.39062-10.625 0.07813 0 0.07813-0.07813h-0.07813l0.07813-0.15625v-1.0938q0-0.78125 0.07813-2.3438h-0.07813l0.07813-0.15625q0.07813-4.1992 0.07813-5.1562h0.07813l-0.07813-0.15625q0.07813-0.15625 0.07813-0.23438h-0.07813l0.07813-0.15625v-1.3281q0-0.07813-0.07813-0.07813l0.07813-0.15625q-0.05859-3.0469-0.39062-3.0469-1.1914 1.3477-3.2031 7.9688-0.70312 2.2266-1.7969 6.4844 0.07813 0 0.07813 0.07813-0.15625 0-0.78125 2.4219-0.89844 2.5391-1.875 3.4375-0.78125 0.72266-1.875 1.0156 0 0.21484-1.0156 0.3125-1.0938-0.35156-1.875-2.1094-1.1523-3.0469-2.4219-9.0625h0.07812q-0.78125-3.3594-0.85938-4.1407h-0.07813q0 0.07813-0.078125 0.23438-0.078125 2.0508-0.078125 3.4375v0.625q0 0.07813 0.078125 0.07813l-0.078125 0.15624q0 2.2656 0.70312 12.266 0 2.5586-1.0156 3.2031h-0.078125v-0.15625h-0.078125l-0.15625 0.07813q-0.078125-0.15626-0.078125-0.23438 0.39062-0.97656 0.39062-1.875h0.078125v0.23438h0.078125v-1.0156q0-0.17578 0.078125-0.3125-0.078125-0.13672-0.078125-0.3125v-1.0938q0-0.07813-0.078125-0.07813 0-0.07813 0.078125-0.07813-0.3125-2.9492-0.3125-3.8281-0.078125 0-0.078125-0.07813h0.078125l-0.078125-0.15624v-1.0938h-0.15625l0.078125-0.15625v-0.07813q0-0.07813-0.078125-0.07813l0.078125-0.15624q-0.078125-1.3086-0.078125-2.0312v-0.23438l-0.078125-0.15625h0.078125l-0.078125-0.15625v-2.1094q0-0.07813-0.078125-0.07813l0.078125-0.15625v-0.15625h-0.15625q0.058594-0.3125 0.15625-0.3125l-0.078125-0.15625v-0.23438q0-0.07813 0.078125-0.07813l-0.078125-0.15624v-0.3125l0.078125-0.54688h-0.078125l0.078125-0.15625v-0.39063q0-1.1523-0.078125-2.0312 0.078125-0.44922 0.078125-1.25 0.078125 0 0.078125-0.07813h-0.078125q0.078125-0.15625 0.078125-0.23438 0-0.89844 0.15625-1.4844h-0.078125q0.078125-0.15625 0.078125-0.23438 0-0.13672-0.078125-0.9375h-0.15625q0.078125-0.15624 0.078125-0.23437v-0.07813h-0.078125q-0.70312 4.9023-0.70312 8.3594v0.78125q0 5.4883 0.54688 9.4531 0 0.07813-0.078125 0.07813 0.23438 2.1484 0.23438 3.9062-0.19531 2.1484-0.46875 2.1875h-0.078125q0-0.09766-0.078125-0.78125 0.23438-0.95703 0.23438-2.1094l-0.625-10.234q-0.078125-0.85938-0.078125-3.3594 0-3.9648 0.78125-9.9219h0.078125v0.23438h0.078125v-0.23438h0.078125l0.3125 0.46875h0.15625q0.74219-1.1719 0.85938-1.1719 0.13672-0.07813 0.39062-0.07813 0.15625 0.15625 0.78125 4.2188 1.9531 8.9258 3.0469 13.281 1.0352 2.9688 1.875 2.9688v-0.07813q1.0156-1.4648 2.7344-7.8125l0.85938-2.7344q-0.07813 0-0.07813-0.07813 0.21484 0 0.3125-0.625 0.46875-1.2305 0.78125-2.3438l0.15625 0.07813-0.07813-0.15625v-0.07813l0.15625 0.07813v-0.15625q0-0.07813-0.07813-0.07813 0.15625-0.3125 0.15625-0.54688l0.15625 0.07813-0.07813-0.15625 0.07813-0.39063 0.15625 0.07813q-0.07813-0.15625-0.07813-0.23438v-0.07813h0.07813v0.15625h0.07813v-0.07812q-0.07812-0.15625-0.07812-0.23438l0.15625 0.07813q-0.07813-0.15625-0.07813-0.23438v-0.07813h0.07813v0.15625h0.07813v-0.07813q-0.07813-0.13672-0.07813-0.3125l0.15625 0.07813-0.07813-0.15625v-0.07813l0.15625 0.07813-0.07812-0.15625v-0.15625l0.15625 0.07813q0-0.11719 0.70312-1.5625-0.07813 0-0.07813-0.07813 0.17578 0 0.54688-0.9375-0.07813 0-0.07813-0.07813 0.19531 0 0.9375-1.4062 0.74219-0.78125 1.0156-0.78125 1.0352-1.0938 1.7969-1.0938zm-0.079 2.031v0.23438q-0.15625 0-0.15625-0.15625zm-3.203 1.328q-2.2656 4.4531-5.625 16.875-0.09766 0-0.3125 0.78125 0.44922-0.39062 1.6406-4.4531 1.7969-6.9531 4.375-13.125v-0.07813zm-13.281 1.875-0.23438 1.875q0.95703 5.3906 1.1719 5.3906 0 0.07813-0.078125 0.07813 1.1914 6.2891 2.5781 9.4531 0.68359 0.9375 0.85938 0.9375v-0.07813q-0.11719 0-0.23438-0.23438h0.078125q0.25391 0.15625 0.46875 0.15625h0.078125q0.15625 0 0.15625-0.15625-0.11719 0-0.3125-0.3125 0.078125 0 0.078125-0.07813-0.23438 0-0.23438-0.15625 0.078125 0 0.078125-0.07813l-0.39063-0.23438q0-0.07813 0.078125-0.07813 0-0.05859-0.3125-0.70312 0.078125 0 0.078125-0.07813-0.13672 0-0.46875-0.9375 0.078125 0 0.078125-0.07813-0.17578 0-0.9375-3.125l-1.25-5.625h-0.078125l0.078125-0.15625q-0.78125-3.7695-0.9375-4.2188h0.078125q-0.15625-0.35156-0.3125-1.5625h-0.15625zm-1.3281 3.203v0.70313h0.078125v-0.70313zm-0.1562 1.172h0.078125v0.78125h-0.078125zm7.8125 12.188q0 0.07813-0.078125 0.23438h0.078125l0.078125-0.15625v-0.07813zm24.101-23.32q1.3672 0 0.89844 4.2969l-0.80078 9.8633q-0.07813 0-0.07813 0.07813h0.07813l-0.07813 0.13672q-0.07813 2.793-0.07813 4.1992v0.07813l-0.07813 0.13672h0.07813l-0.07813 0.13672v1.9922q0 3.2031 0.07813 7.4805 0 1.6016-0.43945 2.1484-0.43945 0.54688-0.49805 0.54688v-0.07813q0.07813-0.13672 0.07813-0.19531h-0.07813l-0.44922 0.35156q0-0.07813-0.07813-0.07813 0 0.07813-0.07813 0.07813v-0.42969l0.07813-0.13672q-0.07813 0-0.07813-0.07813h0.07813q-0.07813-0.09766-0.07813-0.42969-0.13672 0.01953-0.13672 0.13672 0 0.07813 0.05859 0.07813l-0.05859 0.13672v0.64453q0 0.13672-0.15625 0.13672l0.07813 0.15625v0.05859l-0.39063 0.07813q-0.21484-0.37109-0.37109-1.3477 0-0.07813 0.07813-0.07813-0.39062-3.5938-0.39062-5.8398v-0.05859q-0.15624-0.35157-3.418-0.35157v0.05859l-0.15625-0.05859h-1.6602q-0.52734 0-0.52734 0.99609l-0.46875 2.0508q0.07813 0 0.07813 0.07813-0.19531 0-0.37109 0.91797-0.39062 0.9375-0.99609 1.6406 0.07813 0 0.07813 0.07813-0.19531 0-0.52734 0.27344 0-0.15625-0.3125-0.21484 1.3672-2.4219 1.3672-4.043 0.11719-0.15625 0.3125-1.5039h-0.23438q-0.19531 0-0.44922 1.8555 0.07813 0 0.07813 0.05859-0.13672 0-0.68359 2.5-0.07813 0-0.3125 0.70312 0.07813 0 0.07813 0.07813-0.15625 0-0.52734 0.78125h-0.15625v-0.07813q0.44922-0.97656 0.76172-2.0508v-0.07813q-0.07813-0.13672-0.07813-0.21484l0.15625 0.07813-0.07813-0.29297 0.37109-1.6211h-0.07813q0.15625-0.44922 0.91797-5.0586h-0.07813q0.15625-0.25391 0.15625-0.56641h-0.07813q0.13672-0.25391 0.3125-1.2891h-0.07813q1.1328-5.9375 2.6562-9.8828 2.3633-6.0742 3.7305-7.4805v0.07813l-0.15625 0.21484h0.07813q0.01953-0.15625 0.13672-0.15625 0 0.07813 0.07813 0.07813v-0.07813q-0.07813 0-0.07813-0.05859 0.52734-0.50781 1.0742-0.50781v-0.13672h-0.15625v-0.078125q0.19531 0 1.4453-0.78125 0.35157-0.13673 0.6836-0.13673zm-2.0505 0.644h0.23438v0.058594l-0.46875 0.078125q0-0.13672 0.23438-0.13672zm-0.7617 0.566v0.078125q0 0.13672-0.15625 0.13672v-0.078125q0.019531-0.13672 0.15625-0.13672zm2.2072 0.137q0.09766 0.29297 0.37109 0.42969 0-0.07813 0.07813-0.21484h-0.07813q0 0.07813-0.07813 0.07813 0-0.35156-0.13672-0.35156zm-0.3908 0.352 0.46875 1.5039q0 0.07813-0.07813 0.07813l0.07813 0.35156v1.2109l-0.07813 0.13672h0.07813q-0.07813 0.13672-0.07813 0.21484-0.23438 3.6914-0.44922 4.6289h0.05859q-0.17578 1.4258-0.21484 1.4258 0 0.05859 0.07813 0.05859l-0.3125 2.6367 0.07813 0.13672q-0.07813 0.13672-0.07813 0.29297 0.07813 0 0.07813 0.07813h-0.15625q0.07813 0.11719 0.07813 0.27344h0.07813l0.07813-0.35156h-0.07813q0.13672-0.50781 0.3125-1.7773 0-0.07813-0.07813-0.07813l0.37109-3.0469h-0.07813l0.15625-0.50781h-0.07813l0.07813-0.13672v-0.35156q0-0.07813-0.07813-0.07813 0.15625-0.23438 0.15625-0.42969v-0.13672l-0.07813-0.15625h0.15625l-0.07813-0.13672q0.07813 0 0.07813-0.05859h-0.07813q0.07813 0 0.15625-1.4258-0.07813 0-0.07813-0.07813 0.15625 0 0.15625-0.13672v-0.07813q0-0.07813-0.07813-0.07813 0.07813-0.625 0.13672-0.625 0-0.07813-0.05859-0.07813l0.05859-0.48828v-1.2891l-0.05859-0.13672h0.05859l-0.05859-0.15625v-0.05859q0-0.07813 0.05859-0.07813l-0.29297-0.85938q0.07813 0 0.07813-0.05859h-0.07813q0 0.05859-0.07813 0.05859l-0.07813-0.27344h-0.07813zm-1.7383 2.715 0.07813 0.13672q-0.23438 0-1.1523 2.3438-0.89844 1.9922-2.1094 5.625 0.05859 0 0.05859 0.07813-0.23438 0-0.52734 1.4844-0.09766 0-0.21484 0.64453 0.05859 0 0.05859 0.07813-0.19531 0-0.68359 2.5586-0.29297 1.2305-1.0547 5.4883 0.91797-0.21484 3.0469-0.21484h0.37109l0.91797 0.05859v-0.05859l0.13672 0.05859h0.91797v-0.78125q0-0.05859-0.07813-0.05859l0.07813-0.15625q0-2.4219 1.5234-16.211 0.07813 0 0.07813-1.1523 0.07813 0 0.07813-0.05859h-0.07813l0.07813-0.15625v-0.91797l-0.07813-0.13672h0.07813q-0.05859-0.19531-0.15625-0.85938-0.66406 0.76172-1.3672 2.207zm-1.6796 0.644q0 0.11719-0.13672 0.35156h0.05859l0.15625-0.29297v-0.05859h-0.07813zm-0.2149 0.43q-1.3672 3.2031-1.9727 4.8242 0.05859 0 0.05859 0.07813-0.21484 0-0.52734 1.3477-1.2891 3.3008-1.8164 6.9727-0.76172 3.8867-0.76172 4.5508h0.07813q0.37109 0 0.44922-1.4062 0.07813 0 0.07813-0.07813h-0.07813l0.15625-0.42969h-0.07813l0.91797-4.9023h-0.07813l0.15625-0.29297h-0.07813l0.37109-1.3477h-0.07813q0.91797-3.2227 2.1289-6.4062-0.07813 0-0.07813-0.07813 0.21484 0 0.54688-1.1328 0.25391-0.44922 0.74219-1.6992h-0.13672zm3.1055 9.316v0.42969q0 0.05859 0.07813 0.05859l-0.07813 0.15625v0.13672h0.15625v-0.78125zm0 0.86q0 0.13672-0.07813 0.13672l0.07813 0.13672q-0.07813 0.13672-0.07813 0.21484l0.07813 0.13672q-0.07813 0.13672-0.07813 0.29297v0.07813h0.15625v-0.99609h-0.07813zm-0.0781 1.191q0 0.15625-0.07813 0.15625l0.07813 0.13672-0.07813 0.13672q0.07813 0.13672 0.07813 0.21484-0.07813 0-0.07813 0.07813 0.07813 0 0.07813 0.07813-0.07813 0-0.07813 0.05859 0.07813 0 0.07813 0.07813h-0.13672v0.05859h0.13672l0.07813-0.13672v-0.85938zm-0.1368 1.426 0.13672 0.07813v-0.21484q-0.13672 0.01953-0.13672 0.13672zm-0.0195 10.215q0.41016 2.0898 0.15625-9.707v-0.29297q-0.3125-0.42969-0.15625 10zm0.0195 1.0351 0.13672 0.07813v-0.21484q-0.13672 0.01953-0.13672 0.13672zm0.0586 0.1367q0 0.15625-0.05859 0.15625 0.05859 0.13672 0.05859 0.19531h0.07813v-0.35156zm16.7 1.5625h-0.15625q-2.5781 0-5.4102-10.605h0.07813q-2.2656-9.2969-3.0078-15.547l-0.07813 0.01953 0.05859-0.17578q-0.01953-0.15625-0.17578-0.91797l-0.07812 0.01953q-0.27344 1.6797-0.54688 4.0625 0.07813 0 0.07813 0.07813-0.21484 0.01953-0.33203 3.8086 0.15625 5.0781 0.15625 8.5938 0 5.8203-0.41016 7.4023-0.42969 1.3477-0.95703 1.8555h-0.07813l-0.01953-0.15625q-0.17578 0.17578-0.21484 0.17578l-0.09766-0.13672q0.70312-1.543 0.70312-6.0547v-0.72266l-0.07813 0.01953 0.03906-0.95703-0.07813 0.01953q0.03906-0.41016 0.11719-0.41016l-0.09766-0.13672q0-0.13672 0.05859-0.25391h-0.01953q-0.05859 0-0.07813-0.05859 0.07813-0.01953 0.07813-0.09766l-0.07813 0.01953 0.05859-0.17578q-0.11719-1.4258-0.11719-2.1094 0-0.41016 0.03906-0.54688-0.07813 0-0.07813-0.07813h0.07813q-0.01953-0.07813-0.09766-0.07813 0-0.70312 0.07813-0.70312-0.07813-0.11719-0.11719-0.23438l0.05859-0.15625h-0.05859l0.05859-0.15625q-0.01953-0.17578-0.11719-0.3125 0.05859 0 0.05859-0.05859v-0.01953l-0.15625 0.01953v-0.07813q0.21484-0.01953 0.21484-0.15625v-0.01953h-0.07813l0.05859-0.15625q-0.03906-0.15625-0.09766-0.15625 0-0.70312 0.07813-0.72266l-0.09766-0.13672q0.03906-0.11719 0.03906-0.19531v-0.03906h-0.07813q0.03906-0.3125 0.13672-0.33203-0.09766-0.13672-0.11719-0.21484 0.05859-0.15625 0.05859-0.25391l-0.07813 0.01953 0.09766-0.41016h-0.01953q-0.05859 0-0.05859-0.05859 0.05859-0.01953 0.05859-0.07813v-0.01953l-0.07813 0.01953q0.01953-0.56641 0.09766-0.56641l-0.09766-0.19531q0-0.15625 0.09766-0.50781h-0.07813l0.07813-0.72266-0.07813 0.01953q0.09766-2.5586 0.42969-4.375h-0.07813q0.35156-2.3633 0.78125-4.7266-0.07813 0-0.09766-0.07813 0.13672 0 0.35156-1.1328l-0.01953-0.078125-0.07813 0.019531q-0.01953 0.54688-0.23438 0.56641 0 0.07813 0.07813 0.07813-0.64453 1.8945-1.1523 6.8945-0.3125 3.125-0.3125 5.5859 0 1.7383 0.15625 3.1641h0.01953q0.05859 0 0.05859 0.05859-0.13672 0.01953-0.13672 0.07813l0.11719 1.7383q-0.05859 0.01953-0.05859 0.07813v0.01953l0.07813-0.01953q0.07813 2.3828 0.07813 4.2578 0 5.7227-0.76172 6.6797l-0.07813 0.01953q0.29297-1.582 0.29297-2.0117v-0.07813q-0.07813 0-0.07813-0.07813h0.15625l-0.09766-0.15625q0.07813-1.4648 0.07813-3.2031 0-1.5039-0.05859-3.2422h-0.07813l0.07813-0.15625q-0.01953-0.23438-0.11719-0.23438v-0.46875q0-1.4453-0.15625-5.5664l-0.07813 0.01953q0-6.0352 0.42969-7.8516l-0.07813 0.01953 0.68359-4.2578h-0.01953q-0.05859 0-0.07813-0.05859 0.07813-0.01953 0.33203-1.3086l-0.07813 0.01953q0.09766-0.80078 0.29297-0.82031-0.07813-0.11719-0.11719-0.23438 0.19531-0.019531 0.19531-0.25391v-0.078123h-0.01953q-0.05859 0-0.05859-0.058594l0.15625-0.019531-0.09766-0.15625v-0.078107l0.15625 0.058594v-0.019531q0-0.17578 0.27344-0.25391 0.07813 0 0.09766 0.078125-0.21484 0.019531-0.21484 0.15625v0.019531l0.39063-0.039063-0.03906-0.3125 0.23438-0.019531 0.11719 0.29297h0.07813q0.83984-1.5039 1.4258-1.5039 0.76172 0 1.1133 3.1641 1.0742 7.1094 1.8359 11.504 0.07813 0 0.07813 0.07813h-0.07813l0.09766 0.15625q3.0273 16.016 6.0742 16.016h0.13672q0.25391-0.01953 0.52734-0.83984h-0.07813q-0.07813 0.33203-0.19531 0.35156-0.07813 0-0.09766-0.07813 0.87891-1.5234 0.9375-5.5273 0.05859-0.19531 0.09766-1.1914h-0.07813l0.13672-3.3984h-0.07813q0.09766-0.58594 0.11719-3.7891l-0.07813 0.01953q0.11719-0.23438 0.15625-3.9453h-0.05859l0.05859-0.72266-0.07813 0.01953q0.05859-1.6797 0.05859-3.2812 0-2.5-0.13672-4.8242 0.07813 0 0.07813-0.07813l-0.07813 0.01953 0.05859-0.17578-0.09766-0.78125q-0.09766-0.83984-0.74219-2.3438l-0.01953-0.15625 0.15625-0.019531q0.80078 0.97656 0.99609 1.8555h-0.07813l0.09766 0.15625 0.07813 0.70313q0.01953 0.058594 0.09766 0.058594-0.05859 0.15625-0.05859 0.23438l0.15625 0.625h-0.07813q0 0.07813 0.07813 0.07813l0.07813 4.6289h0.01953q0.05859 0 0.05859 0.05859-0.05859 0.01953-0.05859 0.07813v0.01953h0.01953q0.05859 0 0.05859 0.05859-0.13672 0.01953-0.13672 0.07813v0.01953q0.05859 0.42969 0.05859 2.0508 0 2.1289-0.09766 6.3672h0.07813q-0.09766 1.1719-0.17578 3.9453h0.07813q-0.11719 6.4453-0.78125 8.75l0.07813-0.01953q0.39062-0.82031 0.56641-1.9531h-0.01953q-0.05859 0-0.07813-0.05859 0.19531-0.03906 0.19531-0.39062l-0.01953-0.19531h-0.01953q-0.05859 0-0.07813-0.05859 0.23438-0.03906 0.23438-1.1914v-0.17578q0.07813 0 0.07813-0.07813h-0.07813q0.09766-0.25391 0.15625-0.72266h-0.07813q0.09766-0.50781 0.11719-1.0352h-0.01953q-0.05859 0-0.07813-0.05859 0.07813-0.01953 0.07813-0.09766l-0.07813 0.01953q0.07813-0.35156 0.07813-0.50781v-0.05859l-0.07813 0.01953q0.11719-0.35156 0.11719-0.48828h-0.07813l0.09766-0.48828h-0.01953q-0.05859 0-0.07813-0.05859 0.07813-0.01953 0.07813-0.09766l-0.07813 0.01953q0.01953-0.3125 0.11719-0.33203-0.01953-0.05859-0.07813-0.05859h-0.01953q0.01953-0.48828 0.11719-0.48828-0.01953-0.07813-0.09766-0.07813 0.01953-0.70312 0.05859-0.85938h-0.07813q0.09766-0.35156 0.09766-0.50781v-0.05859l-0.07813 0.01953q0.05859-0.17578 0.11719-0.95703l-0.09766-0.15625 0.11719-0.39063h-0.07813q0.07813-0.41016 0.07813-0.58594v-0.05859l-0.07813 0.01953q0.09766-0.35156 0.09766-0.50781v-0.05859l-0.15625 0.01953-0.01953-0.07813q0.19531-0.01953 0.19531-0.3125v-0.09766q-0.07813 0-0.07813-0.07813 0.05859 0 0.05859-0.07813-0.07813 0-0.07813-0.07813h0.07813l-0.09766-0.15625q0.09766-0.21484 0.09766-0.46875l-0.01953-0.15625q-0.07813 0-0.09766-0.07813 0.15625-0.01953 0.15625-0.80078h-0.07813q0.01953-0.39062 0.09766-0.39062l-0.09766-0.15625q0.03906-0.3125 0.13672-0.33203-0.09766-0.13672-0.11719-0.21484l0.05859-0.15625-0.09766-0.15625q0.09766-0.25391 0.15625-0.80078-0.01953-0.07813-0.09766-0.07813v-0.3125q0-0.39062 0.07813-0.39062-0.03906-0.07813-0.06836-0.15625-0.0293-0.07813-0.0293-0.13672 0-0.25391 0.11719-0.27344-0.01953-0.05859-0.07813-0.05859h-0.01953q0.01953-0.54688 0.07813-0.72266h-0.01953q-0.05859 0-0.07813-0.05859 0.07813-0.01953 0.07813-0.09766l-0.07813 0.01953q0.05859-0.15625 0.05859-0.80078l-0.07813 0.01953q0.03906-0.33203 0.11719-0.33203l-0.09766-0.15625q0.05859-0.11719 0.05859-0.23438 0-0.07813-0.07813-0.07813 0.01953-0.3125 0.11719-0.3125l-0.09766-0.15625 0.01953-0.46875-0.09766-0.15625q0.13672-0.01953 0.13672-0.13672v-0.03906l-0.07813 0.01953q0.05859-0.15625 0.05859-0.80078l-0.07813 0.01953q0.07813-0.15625 0.07813-0.80078h-0.07813q0.01953-0.3125 0.11719-0.3125l-0.09766-0.15625 0.05859-0.15625q-0.07813 0-0.07813-0.07813 0.05859 0 0.05859-0.05859v-0.01953h-0.07813q0.03906-0.17578 0.03906-1.0156h-0.07813l0.05859-0.15625-0.09766-0.78125 0.13672-0.25391h-0.03906q-0.13672 0-0.13672-0.21484l0.11719-0.25391-0.07813 0.019531v0.019531q0 0.058594-0.05859 0.058594l-0.03906-0.3125 0.15625-0.019531-0.01953-0.078125-0.15625 0.019531 0.13672-0.23438h-0.07813q0 0.078125-0.07813 0.078125 0-0.23438 0.13672-0.23438l-0.21484-0.44922 0.15625-0.019531 0.03906 0.3125 0.07813-0.019531-0.05859-0.46875h-0.01953q-0.05859 0-0.05859-0.058594l0.07813-0.019531q-0.60547-1.0938-0.625-1.25 0.25391-0.15625 0.25391-0.42969v-0.078125l0.54688-0.058594q0.72266 0.27344 1.1133 2.7734 0.19531 1.6406 0.19531 6.3281 0 5.9766-0.3125 16.895h0.01953q0.05859 0 0.07813 0.05859-0.19531 0.03906-0.19531 0.83984v0.29297q-0.37109 3.0273-1.6602 4.5898-0.95703 0.85938-1.7578 1.1523-0.41016 0.44922-1.2695 0.54688zm-0.196-1.0742q-0.44922-0.48828-0.58594-0.48828h-0.01953l0.05859-0.15625q-0.70312-0.64453-1.6992-3.0273-0.07813 0-0.09766-0.07813h0.07813l-0.89844-2.4219h0.07813q-0.33203-0.82031-1.0156-3.1836h-0.07813l0.05859-0.15625-0.01953-0.3125h-0.07813l0.03906 0.39063-0.15625-0.05859 0.05859-0.15625q-0.01953-0.07813-0.09766-0.07813 0.05859-0.15625 0.05859-0.23438l0.15625 0.05859q-0.09766-0.11719-0.11719-0.37109l-0.15625 0.09766-0.09766-0.15625q0-0.07813 0.07813-0.07813l-0.19531-0.29297q0.07813-0.01953 0.07813-0.09766h-0.01953q-0.05859 0-0.07813-0.05859 0.07813-0.01953 0.07813-0.09766h-0.01953q-0.05859 0-0.07813-0.05859 0.07813-0.01953 0.07813-0.09766l-0.15625 0.01953 0.05859-0.15625h-0.07813l0.05859-0.15625-0.09766-0.15625q0.07813 0 0.07813-0.07813l-0.15625 0.01953-0.01953-0.07813 0.05859-0.17578-0.07813 0.01953 0.05859-0.15625-0.09766-0.15625q0.07813 0 0.07813-0.07813-0.07813 0-0.09766-0.07813 0.07813 0 0.07813-0.07813l-0.15625 0.01953 0.05859-0.17578-0.09766-0.13672q0.07813-0.01953 0.07813-0.09766l-0.07813 0.01953 0.05859-0.17578-0.19531-0.21484v-0.09766q0-0.05859 0.05859-0.05859l-0.07813-0.15625 0.05859-0.15625h-0.01953q-0.05859 0-0.07813-0.05859 0.07813-0.01953 0.07813-0.09766l-0.15625 0.01953 0.11719-0.25391-0.07813 0.01953v0.01953q0 0.05859-0.05859 0.05859l-0.01953-0.07813q0-0.07813 0.07813-0.07813l-0.19531-0.29297q0.07813-0.01953 0.07813-0.09766h-0.01953q-0.05859 0-0.07813-0.05859 0.13672-0.01953 0.13672-0.13672v-0.03906l-0.15625 0.01953q0-0.07813 0.07813-0.09766l-0.23438-0.66406q0.13677-0.01946 0.13677-0.17571h-0.01953q-0.17578 0-0.27344-0.37109l0.05859-0.15625-0.09766-0.15625h0.07813q-0.17578-0.83984-0.25391-0.83984l0.05859-0.15625-0.09766-0.15625h0.07813q-0.07813-0.15625-0.15625-0.70312l-0.15625 0.01953v-0.07813l0.15625-0.01953q-0.17578-0.82031-0.2539-0.82031l0.05859-0.17578-0.05859-0.46875-0.09766-0.13672h0.07813l-0.09766-0.15625-0.11719-1.0938-0.13672-0.37109q0.07813 0 0.07813-0.07813l-0.15625 0.01953 0.05859-0.17578-0.13672-1.2305q-0.01953-0.07813-0.09766-0.07813 0.05859-0.11719 0.05859-0.23438l-0.09766-0.15625h0.07813q-0.07813-0.11719-0.11719-0.23438l0.05859-0.15625-0.15625-0.05859 0.05859-0.17578-0.17578-1.543q-0.01953-0.07813-0.09766-0.07813l0.05859-0.15625q0-0.07813-0.03906-0.09766h-0.03906q0-0.03906 0.05859-0.05859-0.11719-0.37109-0.27344-1.6992l-0.09766-0.13672 0.07813-0.01953q-0.07813-0.03906-0.15625-0.68359-0.21484 0.01953-0.21484 0.74219 0 0.58594 0.74219 5.1758l0.07813-0.01953-0.05859 0.17578q0.3125 1.9531 0.42969 2.8516h0.07813l-0.05859 0.15625q0.07813 0.13672 0.09766 0.23438h-0.07813l0.09766 0.15625q0.05859 0.56641 0.70312 4.082h0.01953q0.05859 0 0.07813 0.05859l-0.07813 0.01953q0.13672 0.52734 0.17578 0.54688h0.03906q0 0.05859-0.05859 0.05859 0.89844 4.3945 1.6602 6.7969h0.07813l-0.05859 0.15625q0.80078 2.832 1.2891 3.7109h-0.07813q0.97656 2.5195 1.9141 3.4766h0.07813l-0.01953-0.07813q-0.09766-0.13672-0.09766-0.23438 0.74219 0.42969 1.0352 0.42969h0.11719zm-4.0232-8.7308h-0.07813q-0.01953-0.21484-0.07813-0.21484h-0.01953q0.03906-0.11719 0.03906-0.25391v-0.07813h0.07813zm0.1367 0.5277h-0.07813l-0.05859-0.52734 0.07813-0.01953zm0.0586 0.3906q-0.01953-0.07813-0.11719-0.23438l0.15625-0.09766 0.03906 0.3125zm0.1953 0.4492h-0.01953q-0.11719 0-0.13672-0.13672l0.13672-0.09766zm22.754-25.488q1.5234 0 2.5 2.4219l0.46875 2.2656-0.07813 0.15625v0.85938q0 1.6406-0.46875 1.6406h-0.15625q0-0.07813-0.07813-0.23438 0.07813-0.78125 0.07813-1.1719 0-3.1445-1.4844-4.5312-0.52734-0.3125-0.85938-0.3125v0.15625q1.6406 2.2461 1.6406 5v1.4844h-0.15625q0-5.1953-2.1875-6.1719-0.15625-0.078125-0.23438-0.078125-2.2852 0-5.625 9.1406l-0.07813 0.3125q0.07813 0 0.07813 0.07813-0.29297 0-1.0156 3.3594-1.875 6.8945-1.875 11.406v1.4844q0 3.5742 1.9531 4.6094 0.39062 0.23438 1.0156 0.23438h0.23438q0.48828 0 1.0938-0.23438v0.07813l0.54688-0.3125v0.07813q0.35156-0.13672 0.625-0.54688v-0.07813l-0.15625 0.07813v-0.07813l0.39063-0.54688q0-0.07813-0.07813-0.07813 0.07813-0.15625 0.07813-0.23438h0.07813v0.15625h0.07813l0.07813-0.39063q-0.07813 0-0.07813-0.07813h0.15625v-0.07813q0-0.07813-0.07813-0.07813 0.15625-0.35156 0.15625-0.78125 0-0.44922-1.1719-2.8125-0.15625-0.3125-0.15625-0.85938v-0.46875q0.01953-0.15625 0.15625-0.15625v0.15625q2.3047-2.3828 3.9062-2.5781 1.1719-0.39062 2.3438-0.54688 0.39062 0.07813 0.39062 0.39062-0.07813 0-0.07813 0.07813 0.07813 0 0.07813 0.07813-0.17578 0.21484-1.3281 0.625-1.7383 0.46875-3.0469 0.9375-0.39062 0.25391-0.39062 0.625 0 0.46875 1.1719 2.2656 0.54688 1.0156 0.54688 2.0312 0 1.7578-1.4062 2.9688h-0.07813q0.39062-0.42969 0.39062-0.46875h-0.07813q0 0.05859-0.78125 0.78125 0.07813 0 0.07813 0.07813-0.82031 0.52734-1.7969 1.0156v-0.07813q-2.5977 1.1719-4.1406 1.1719-0.44922 0-0.85938-0.15625v0.07813q-1.25-0.37109-2.0312-1.6406-0.85938-2.0312-0.85938-4.375 0-3.3398 0.78125-7.1875h-0.07813q1.4844-6.7578 2.5781-9.6094h0.07813l-0.07813-0.15625q0.03906-0.3125 0.23438-0.3125l-0.07813-0.15625v-0.07813l0.15625 0.07813-0.07813-0.15625v-0.07813h0.15625l-0.07813-0.15625h0.15625v-0.07813l-0.07813-0.15625q0.19531 0 0.9375-1.875l1.0156-1.7969q-0.07813 0-0.07813-0.07813h0.07813l0.15625 0.07813-0.46875 0.9375h0.07813q1.3672-2.8125 3.4375-5 2.3828-2.2656 3.75-2.2656v-0.07812zm-6.7972 6.094h0.15625q-0.07813 0.15625-0.07813 0.23438h-0.07813v-0.23438zm-0.625 1.484-0.07813 0.15625v0.07813h0.07813q0-0.07813 0.07813-0.23438zm0.3125 0.469q0 0.07813-0.07813 0.23438h0.07813l0.15625-0.23438zm-0.3125 0.703-0.23438 0.625q0.13672 0 0.3125-0.54688v-0.07813h-0.07813zm-0.3906 0.86q0 0.23438-0.15625 0.54688h0.07813l0.23438-0.54688h-0.15625zm-0.1563 0.625-0.46875 1.0938h-0.07813l0.07813 0.15625v0.07813h-0.15625l0.07813 0.15625q-0.13672 0.46875-0.3125 0.46875l0.07813 0.15625v0.07813h-0.15625l0.07813 0.15625q-0.07813 0-0.07813 0.07813 0.07813 0 0.07813 0.07813h-0.15625l0.07813 0.15625v0.07813h-0.15625v0.07813l0.07813 0.15625h-0.15625v0.07813l0.07813 0.15625h-0.15625v0.07813l0.07813 0.15625q-0.15625 0.01953-0.15625 0.15625l0.07813 0.15625q-0.17578 0-0.3125 0.625h0.07813l-1.1719 4.2969 0.07813 0.15625q-0.3125 0.85938-0.85938 4.1406h0.07813l-0.15625 0.54688h0.07813l-0.15625 0.625h0.07813l-0.07813 0.15625q0 0.07813 0.07813 0.07813-0.23438 0.83984-0.23438 3.75h0.15625v-0.85942l0.07813-0.54688h-0.07813q0.07813-0.15625 0.07813-0.23438 0-1.3867 0.15625-1.875h-0.07813q0.07813-0.17578 0.15625-1.0156h-0.07813l0.9375-4.8438q1.1914-5.2148 2.5-8.75h-0.07813zm3.5938 15.234q0.07813 0.15625 0.07813 0.23438h-0.07813q0.09766 0.46875 0.3125 0.46875 0 0.07813-0.07813 0.07813 1.0156 1.6602 1.3281 2.9688v0.15625q-0.07813 0.41016-0.07813 0.78125h0.07813l-0.07813 0.15625v0.07813h0.07813l0.3125-0.85938-0.07813-0.15625 0.07813-0.15625q-0.07813-0.15625-0.07813-0.23438 0.07813 0 0.07813-0.07813-0.07813 0-0.07813-0.07813 0.07813 0 0.07813-0.07813h-0.07813q0.15625-0.35156 0.3125-0.39062-0.09766-0.54688-1.0156-2.1875-0.46875-1.1328-0.70312-1.4062-0.21484 0-0.39062 0.70312zm-7.3438 3.125q0.07813 0 0.07813 0.07813-0.07813 0-0.07813 0.07813l0.15625 0.07813v-0.39063q-0.15625 0.01953-0.15625 0.15625zm0 0.8594v0.23438q0.07813 0 0.07813 0.07813h-0.07813q0.07813 0.11719 0.07813 0.46875h0.15625q-0.15625-0.70312-0.15625-0.78125h-0.07813zm0.15625 0.9375q0.15625 1.0156 0.39062 1.0156-0.15625-0.3125-0.23438-1.0156zm8.9062 1.4062h0.07813q0 0.11719-0.23438 0.23438h-0.07813q0-0.11719 0.23438-0.23438zm10.274-2.0898q-2.2266-0.03906-3.3398-5.332-0.27344-2.0312-0.33203-4.5898 0-0.07813 0.07813-0.07813 0-0.78125 0.13672-2.2656 0.17578-1.7773 0.56641-3.2422h-0.07813l0.76172-2.2852h-0.07813q0.17578-0.23438 0.82031-1.8945l0.13672 0.09766q-0.05859-0.11719-0.05859-0.23438l0.15625 0.09766q0-0.09766 0.09766-0.23438h-0.07813q0 0.05859-0.05859 0.05859h-0.01953v-0.07813q0.09766-0.13672 0.09766-0.21484l0.15625 0.07813q0.01953-0.17578 0.64453-1.0352 0.25391-0.95703 0.54688-0.95703h0.01953l-0.01953 0.15625h0.07813q0.01953-0.21484 0.70312-0.78125 0.19531-0.27344 0.83984-0.46875 0.19531-0.52734 1.6602-0.85938l0.9375-0.07813q0.87891 0.09766 1.9727 1.5234 1.3477 2.5781 1.3477 6.9922 0 1.6211-0.17578 3.4961-0.29297 3.1055-1.0742 5.5469h0.07813l-1.25 3.1836q-0.85938 1.6211-2.0312 2.3047l-0.27344 0.29297h0.07813q0.01953-0.05859 0.07813-0.05859h0.01953l-0.01953 0.15625q-0.17578-0.01953-0.3125-0.11719v0.07813q0.05859 0.01953 0.05859 0.05859v0.01953q-2.2461 0.66406-2.8711 0.66406zm6.1331-18.789v-0.07813l-0.11719-0.23438 0.07813-0.15625-0.15625-0.01953q0.11719-0.15625 0.11719-0.25391 0-0.19531-0.21484-0.21484 0-0.07813 0.07813-0.07813 0-0.3125-0.19531-0.33203v-0.07813l0.09766-0.15625q-0.11719 0-0.21484-0.25391h0.01953q0.05859 0 0.07813-0.05859-0.17578-0.25391-0.29297-0.27344l0.09766-0.13672q-0.91797-1.7383-1.6406-1.8164 0.42969 0.66406 0.56641 0.68359 0-0.07813 0.07813-0.07813l0.05859 0.17578-0.15625-0.01953q0.23438 0.48828 0.35156 0.50781v-0.07813q-0.17578-0.01953-0.19531-0.41016 0.68359 0.9375 0.85938 1.6406-0.07813 0-0.07813 0.07813 0.27344 0.03906 0.27344 0.39062v0.09766q-0.07813 0-0.09766 0.07813h0.07813q0.01953-0.05859 0.07813-0.05859l0.07813 0.15625-0.17578 0.05859v-0.01953q0-0.05859-0.05859-0.05859l-0.01953 0.07813q0.03906 0 0.23438 0.17578v-0.07813q-0.07813 0-0.07813-0.07813l0.15625 0.01953v0.03906q0 0.27344 0.23438 0.76172-0.07813 0-0.07813 0.05859zm-3.9456 17.129q-0.05859-0.17578-0.05859-0.23438l0.15625 0.07813 0.44922-0.66406h-0.07813q-0.23438 0.50781-0.50781 0.50781v-0.07813q0.72266-0.76172 1.7188-3.1445h-0.07813q1.0156-2.3242 1.3086-5.4492 0.27344-2.5195 0.27344-3.6523 0-4.2383-1.7578-7.5586-0.70312-0.80078-1.1328-0.80078-0.72266 0-1.1133 1.2109-0.07813 0-0.17578 0.21484 0.07813 0.01953 0.07813 0.09766-0.3125 0-1.25 3.0078-0.48828 1.8945-0.68359 3.9453-0.27344 2.7539-0.27344 4.0234 0 4.4336 1.6406 7.6367 0.625 0.78125 1.0938 0.82031l0.01953-0.07813 0.13672 0.09766 0.17578-0.07813v0.01953q0 0.05859 0.05859 0.07813zm1.1914-0.9765q0.48828-0.33203 1.3477-2.4609l-0.07813-0.01953 0.27344-0.44922h-0.07813l0.19531-0.29297h-0.07813l0.17578-0.3125h-0.07813q0.29297-0.70312 0.70312-2.3633-0.05859 0-0.05859-0.05859h0.03906q0.03906-0.01953 0.03906-0.09766h-0.07813q0.15625-0.83984 0.23438-0.83984-0.05859-0.17578-0.05859-0.25391 0.11719-0.21484 0.19531-0.21484l-0.07813-0.15625q0.03906-0.15625 0.09766-0.15625-0.01953-0.625-0.09766-0.64453 0.11719-0.37109 0.19531-0.37109l-0.05859-0.15625 0.09766-1.0156 0.09766-0.13672-0.15625-0.01953v-0.07813l0.15625 0.01953q0-0.13672-0.05859-0.25391h0.01953q0.05859 0 0.07813-0.05859l-0.07813-0.01953q-0.01953 0.07813-0.09766 0.07813l0.07813-0.78125 0.09766-0.13672-0.15625-0.01953q0.17578-0.17578 0.17578-0.21484l-0.07813-0.01953q0 0.07813-0.07813 0.07813v-0.15625l0.15625 0.01953 0.01953-0.07813-0.15625-0.01953q0-0.07813 0.07813-0.07813l-0.05859-0.15625 0.09766-0.15625h-0.07813q-0.01953 0.07813-0.09766 0.07813l-0.05859-0.17578 0.23438 0.01953 0.01953-0.07813h-0.15625l0.07813-0.15625q-0.05859 0-0.05859-0.05859v-0.01953h0.07813q-0.11719-0.23438-0.11719-0.37109v-0.03906h0.01953q0.05859 0 0.05859-0.05859-0.07813-0.01953-0.07813-0.09766l0.07813 0.01953q-0.03906-0.23438-0.11719-0.25391 0.05859-0.09766 0.09766-0.21484l-0.15625-0.01953 0.09766-0.15625-0.07813-0.15625 0.03906-0.23438h-0.07813l0.09766-0.23438h-0.07813l-0.01953 0.15625-0.07813-0.01953v-0.15625q0-0.39062-0.13672-0.80078h-0.07813l0.09766-0.23438h-0.15625l0.01953-0.15625 0.13672 0.07813 0.09766-0.13672-0.07813-0.01953q0 0.07813-0.07813 0.07813l-0.72266-2.4219q0.07813 0 0.09766-0.07813h-0.07813q-0.01953 0.05859-0.07813 0.05859h-0.01953v-0.03906q0-0.15625-0.17578-0.44922h0.01953q0.05859 0 0.05859-0.05859-0.09766-0.01953-0.83984-1.0352v0.07813q1.6797 2.3828 1.7578 8.5742h-0.07813l0.05859 0.15625-0.07813 0.70313q0 0.17578 0.05859 0.3125-0.01953 0.07813-0.09766 0.07813 0.01953 0.78125 0.09766 0.78125l-0.09766 0.15625q-0.09766 1.0742-0.17578 1.0742h-0.01953l0.07813 0.17578q-0.01953 0.15625-0.11719 0.29297 0.07813 0.01953 0.07813 0.09766l-0.07813-0.01953v0.01953q0 0.05859 0.05859 0.07813-0.19531 1.9727-1.5625 5.5664 0.07813 0.01953 0.07813 0.09766-0.09766 0-0.68359 1.2695zm1.5039-18.711 0.01953-0.13672-0.13672-0.09766q0.03906 0.11719 0.03906 0.19531v0.03906h0.07813zm-5.0977 0.918q0.01953-0.17578 0.29297-0.58594l-0.07813-0.01953q-0.11719 0-0.35156 0.37109 0.05859 0.15625 0.05859 0.23438zm-1.582 17.754q-0.58594-1.6797-0.85938-4.0039 0.07813 0 0.07813-0.07813-0.05859 0-0.05859-0.05859v-0.01953h0.07813q-0.15625-0.80078-0.15625-1.4648 0-0.3125 0.03906-0.58594 0.07813 0 0.07813-0.07813-0.13672 0-0.13672-0.11719v-0.03906h0.07813q-0.03906-0.17578-0.05859-1.0352l0.07813 0.01953-0.05859-0.15625q0.01953-0.21484 0.11719-0.39062-0.07813 0-0.07813-0.07813h0.07813l-0.05859-0.15625 0.09766-1.0156q0-0.07813-0.07813-0.07813l0.09766-0.15625q0.11719-1.1523 0.17578-1.1523h0.01953q-0.05859-0.11719-0.05859-0.25391l0.09766-0.13672-0.07813-0.01953q0.09766-0.17578 0.23438-0.76172h-0.07813l0.21484-0.60547-0.07813-0.01953 0.23438-0.76172h-0.07813q0.19531-0.37109 0.19531-0.52734h-0.07813l0.19531-0.3125h-0.07813q0.09766-0.21484 0.15625-0.21484h0.01953l-0.05859-0.15625q0.87891-2.5 1.25-3.1836-0.05859-0.15625-0.05859-0.23438l-0.07813-0.01953q-0.01953 0.13672-0.39062 0.74219 0.07813 0.01953 0.07813 0.09766-0.19531 0-0.89844 2.0312l-0.01953 0.07813q0.07813 0 0.07813 0.07813-0.42969 0-1.1133 4.9219l-0.01953 0.15625 0.07813 0.15625-0.17578 0.05859 0.05859 0.17578-0.15625 0.91797 0.07813 0.01953-0.09766 0.13672 0.05859 0.15625q-0.07813 0-0.07813 0.07813h0.07813q-0.09766 0.17578-0.11719 0.39062l0.05856 0.15625h-0.07813q0.03906 0.46875 0.11719 0.48828-0.01953 0.05859-0.07813 0.05859h-0.01953q-0.03906 0.50781-0.03906 1.0352 0 2.3828 0.91797 5.4102 0.17578 0.46875 0.33203 0.50781zm8.125-14.902-0.05859-0.17578 0.09766-0.13672-0.07813-0.01953-0.09766 0.15625q0 0.15625 0.13672 0.17578zm-7.8711 13.984q-0.03906-0.09766-0.03906-0.23438v-0.07813l-0.07813-0.01953-0.03906 0.23438zm1.3281 2.4024 0.01953-0.07813q-0.25391-0.09766-1.2305-1.9922 0.07813 0 0.09766-0.07813l-0.21484-0.17578-0.01953 0.07813q0.64453 2.1875 1.3477 2.2461zm-1.5234-1.1719v-0.11719q0-0.11719-0.13672-0.13672v0.07813q0 0.17578 0.13672 0.17578zm0.1953 0.332 0.01953-0.07813q-0.19531-0.17578-0.23437-0.17578v0.07813zm3.4961 6.2891q-1.8555 0-3.3789-0.15625-1.8555-0.17578-2.0117-0.17578-0.35156 0-1.0352 0.03906l-0.05859-0.15625 0.01953-0.23438 0.13672 0.09766h0.07813l-0.05859-0.15625q0.11719 0 0.72266-0.09766l-0.07813-0.15625q0.23438-0.33203 0.58594-0.33203h0.07813l-0.05859-0.15625q0.01953-0.17578 1.4844-0.17578 0.87891 0 2.2852 0.05859l0.01953-0.07813 0.13672 0.09766 2.1875 0.21484q1.7578 0.17578 1.7578 0.48828l-0.09766 0.13672 0.15625 0.01953v0.07813h-0.01953q-0.15625 0-0.33203 0.29297-0.85938 0-1.3672 0.33203zm19.082-4.2578q-2.2266-0.03906-3.3398-5.332-0.27344-2.0312-0.33203-4.5898 0-0.07813 0.07813-0.07813 0-0.78125 0.13672-2.2656 0.17578-1.7773 0.56641-3.2422h-0.07813l0.76172-2.2852h-0.07813q0.17578-0.23438 0.82031-1.8945l0.13672 0.09766q-0.05859-0.11719-0.05859-0.23438l0.15625 0.09766q0-0.09766 0.09766-0.23438h-0.07813q0 0.05859-0.05859 0.05859h-0.01953v-0.07813q0.09766-0.13672 0.09766-0.21484l0.15625 0.07813q0.01953-0.17578 0.64453-1.0352 0.25391-0.95703 0.54688-0.95703h0.01953l-0.01953 0.15625h0.07813q0.01953-0.21484 0.70312-0.78125 0.19531-0.27344 0.83984-0.46875 0.19531-0.52734 1.6602-0.85938l0.9375-0.07813q0.87891 0.09766 1.9727 1.5234 1.3477 2.5781 1.3477 6.9922 0 1.6211-0.17579 3.4961-0.29296 3.1055-1.0742 5.5469h0.0781l-1.25 3.1836q-0.85937 1.6211-2.0312 2.3047l-0.27344 0.29297h0.07813q0.01953-0.05859 0.07813-0.05859h0.01953l-0.01953 0.15625q-0.17578-0.01953-0.3125-0.11719v0.07813q0.05859 0.01953 0.05859 0.05859v0.01953q-2.2461 0.66406-2.8711 0.66406zm6.1331-18.789v-0.07813l-0.11719-0.23438 0.0781-0.15625-0.15625-0.01953q0.11718-0.15625 0.11718-0.25391 0-0.19531-0.21484-0.21484 0-0.07813 0.0781-0.07813 0-0.3125-0.19531-0.33203v-0.07813l0.0977-0.15625q-0.11719 0-0.21485-0.25391h0.0195q0.0586 0 0.0781-0.05859-0.17578-0.25391-0.29297-0.27344l0.0977-0.13672q-0.91797-1.7383-1.6406-1.8164 0.42969 0.66406 0.56641 0.68359 0-0.07813 0.0781-0.07813l0.0586 0.17578-0.15625-0.01953q0.23437 0.48828 0.35156 0.50781v-0.07813q-0.17578-0.01953-0.19531-0.41016 0.68359 0.9375 0.85937 1.6406-0.0781 0-0.0781 0.07813 0.27343 0.03906 0.27343 0.39062v0.09766q-0.0781 0-0.0977 0.07813h0.0781q0.0195-0.05859 0.0781-0.05859l0.0781 0.15625-0.17578 0.05859v-0.01953q0-0.05859-0.0586-0.05859l-0.0195 0.07813q0.0391 0 0.23437 0.17578v-0.07813q-0.0781 0-0.0781-0.07813l0.15625 0.01953v0.03906q0 0.27344 0.23437 0.76172-0.0781 0-0.0781 0.05859zm-3.9456 17.129q-0.05859-0.17578-0.05859-0.23438l0.15625 0.07813 0.44922-0.66406h-0.07813q-0.23438 0.50781-0.50781 0.50781v-0.07813q0.72266-0.76172 1.7188-3.1445h-0.0781q1.0156-2.3242 1.3086-5.4492 0.27343-2.5195 0.27343-3.6523 0-4.2383-1.7578-7.5586-0.70312-0.80078-1.1328-0.80078-0.72266 0-1.1133 1.2109-0.07813 0-0.17578 0.21484 0.07813 0.01953 0.07813 0.09766-0.3125 0-1.25 3.0078-0.48828 1.8945-0.68359 3.9453-0.27344 2.7539-0.27344 4.0234 0 4.4336 1.6406 7.6367 0.625 0.78125 1.0938 0.82031l0.01953-0.07813 0.13672 0.09766 0.17578-0.07813v0.01953q0 0.05859 0.05859 0.07813zm1.1914-0.9765q0.48828-0.33203 1.3477-2.4609l-0.0781-0.01953 0.27344-0.44922h-0.0781l0.19531-0.29297h-0.0781l0.17578-0.3125h-0.0781q0.29297-0.70312 0.70312-2.3633-0.0586 0-0.0586-0.05859h0.0391q0.0391-0.01953 0.0391-0.09766h-0.0781q0.15625-0.83984 0.23437-0.83984-0.0586-0.17578-0.0586-0.25391 0.11719-0.21484 0.19531-0.21484l-0.0781-0.15625q0.0391-0.15625 0.0977-0.15625-0.0195-0.625-0.0977-0.64453 0.11718-0.37109 0.19531-0.37109l-0.0586-0.15625 0.0977-1.0156 0.0977-0.13672-0.15625-0.01953v-0.07813l0.15625 0.01953q0-0.13672-0.0586-0.25391h0.0195q0.0586 0 0.0781-0.05859l-0.0781-0.01953q-0.0195 0.07813-0.0977 0.07813l0.0781-0.78125 0.0977-0.13672-0.15625-0.01953q0.17578-0.17578 0.17578-0.21484l-0.0781-0.01953q0 0.07813-0.0781 0.07813v-0.15625l0.15625 0.01953 0.0195-0.07813-0.15625-0.01953q0-0.07813 0.0781-0.07813l-0.0586-0.15625 0.0977-0.15625h-0.0781q-0.0195 0.07813-0.0977 0.07813l-0.0586-0.17578 0.23438 0.01953 0.0195-0.07813h-0.15625l0.0781-0.15625q-0.0586 0-0.0586-0.05859v-0.01953h0.0781q-0.11719-0.23438-0.11719-0.37109v-0.03906h0.0195q0.0586 0 0.0586-0.05859-0.0781-0.01953-0.0781-0.09766l0.0781 0.01953q-0.0391-0.23438-0.11719-0.25391 0.0586-0.09766 0.0977-0.21484l-0.15625-0.01953 0.0977-0.15625-0.0781-0.15625 0.0391-0.23438h-0.0781l0.0977-0.23438h-0.0781l-0.0195 0.15625-0.0781-0.01953v-0.15625q0-0.39062-0.13672-0.80078h-0.0781l0.0977-0.23438h-0.15625l0.0195-0.15625 0.13672 0.07813 0.0977-0.13672-0.0781-0.01953q0 0.07813-0.0781 0.07813l-0.72266-2.4219q0.0781 0 0.0977-0.07813h-0.0781q-0.0195 0.05859-0.0781 0.05859h-0.0195v-0.03906q0-0.15625-0.17579-0.44922h0.0195q0.0586 0 0.0586-0.05859-0.0977-0.01953-0.83985-1.0352v0.07813q1.6797 2.3828 1.7578 8.5742h-0.0781l0.0586 0.15625-0.0781 0.70313q0 0.17578 0.0586 0.3125-0.0195 0.07813-0.0977 0.07813 0.0195 0.78125 0.0977 0.78125l-0.0977 0.15625q-0.0977 1.0742-0.17578 1.0742h-0.0195l0.0781 0.17578q-0.0195 0.15625-0.11719 0.29297 0.0781 0.01953 0.0781 0.09766l-0.0781-0.01953v0.01953q0 0.05859 0.0586 0.07813-0.19531 1.9727-1.5625 5.5664 0.0781 0.01953 0.0781 0.09766-0.0977 0-0.68359 1.2695zm1.5039-18.711 0.0195-0.13672-0.13672-0.09766q0.0391 0.11719 0.0391 0.19531v0.03906h0.0781zm-5.0977 0.918q0.01953-0.17578 0.29297-0.58594l-0.07813-0.01953q-0.11719 0-0.35156 0.37109 0.05859 0.15625 0.05859 0.23438zm-1.582 17.754q-0.58594-1.6797-0.85938-4.0039 0.07813 0 0.07813-0.07813-0.05859 0-0.05859-0.05859v-0.01953h0.07813q-0.15625-0.80078-0.15625-1.4648 0-0.3125 0.03906-0.58594 0.07813 0 0.07813-0.07813-0.13672 0-0.13672-0.11719v-0.03906h0.07813q-0.03906-0.17578-0.05859-1.0352l0.07813 0.01953-0.05859-0.15625q0.01953-0.21484 0.11719-0.39062-0.07813 0-0.07813-0.07813h0.07813l-0.05859-0.15625 0.09766-1.0156q0-0.07813-0.07813-0.07813l0.09766-0.15625q0.11719-1.1523 0.17578-1.1523h0.01953q-0.05859-0.11719-0.05859-0.25391l0.09766-0.13672-0.07813-0.01953q0.09766-0.17578 0.23438-0.76172h-0.07813l0.21484-0.60547-0.07813-0.01953 0.23438-0.76172h-0.07813q0.19531-0.37109 0.19531-0.52734h-0.07815l0.19531-0.3125h-0.07813q0.09766-0.21484 0.15625-0.21484h0.01953l-0.05859-0.15625q0.87891-2.5 1.25-3.1836-0.05859-0.15625-0.05859-0.23438l-0.07813-0.01953q-0.01953 0.13672-0.39062 0.74219 0.07813 0.01953 0.07813 0.09766-0.19531 0-0.89844 2.0312l-0.01953 0.07813q0.07813 0 0.07813 0.07813-0.42969 0-1.1133 4.9219l-0.01953 0.15625 0.07813 0.15625-0.17578 0.05859 0.05859 0.17578-0.15625 0.91797 0.07813 0.01953-0.09766 0.13672 0.05859 0.15625q-0.07813 0-0.07813 0.07813h0.07813q-0.09766 0.17578-0.11719 0.39062l0.05859 0.15625h-0.07813q0.03906 0.46875 0.11719 0.48828-0.01953 0.05859-0.07813 0.05859h-0.01953q-0.03906 0.50781-0.03906 1.0352 0 2.3828 0.91797 5.4102 0.17578 0.46875 0.33203 0.50781zm8.125-14.902-0.0586-0.17578 0.0977-0.13672-0.0781-0.01953-0.0977 0.15625q0 0.15625 0.13672 0.17578zm-7.8711 13.984q-0.03906-0.09766-0.03906-0.23438v-0.07813l-0.07813-0.01953-0.03906 0.23438zm1.3281 2.4024 0.01953-0.07813q-0.25391-0.09766-1.2305-1.9922 0.07813 0 0.09766-0.07813l-0.21484-0.17578-0.01953 0.07813q0.64453 2.1875 1.3477 2.2461zm-1.5234-1.1719v-0.11719q0-0.11719-0.13672-0.13672v0.07813q0 0.17578 0.13672 0.17578zm0.1953 0.332 0.01953-0.07813q-0.19531-0.17578-0.23438-0.17578v0.07813zm3.4961 6.2891q-1.8555 0-3.3789-0.15625-1.8555-0.17578-2.0117-0.17578-0.35156 0-1.0352 0.03906l-0.05859-0.15625 0.01953-0.23438 0.13672 0.09766h0.07813l-0.05859-0.15625q0.11719 0 0.72266-0.09766l-0.07813-0.15625q0.23438-0.33203 0.58594-0.33203h0.07813l-0.05859-0.15625q0.01953-0.17578 1.4844-0.17578 0.87891 0 2.2852 0.05859l0.01953-0.07813 0.13672 0.09766 2.1875 0.21484q1.7578 0.17579 1.7578 0.48829l-0.0977 0.13672 0.15625 0.01953v0.07813h-0.0195q-0.15625 0-0.33203 0.29297-0.85937 0-1.3672 0.33203zm13.828-33.34h0.15625q3.9258 0 6.5625 4.2188 1.0938 2.4609 1.0938 4.7656v0.625l0.0781 0.15625q-0.0781 0-0.0781 0.07813h0.0781q-0.3711 2.832-0.85938 4.1406-0.74219 1.6992-1.875 3.75 0.0781 0 0.0781 0.07813-0.21485 0.01953-1.4844 2.3438-1.3477 2.1094-4.0625 4.8438-0.60547 0.44922-1.0938 0.78125 0 0.33203 3.75 4.0625l1.6406 0.70313-0.0781 0.15625v0.07813l0.0781 0.15625h-0.23438l0.0781 0.15625q-0.35157 0-1.6406 0.46875h-0.0781q-1.4062 0-3.4375-2.2656-0.82032-1.0156-1.7188-1.7969 0 0.76172-0.0781 0.78125h0.0781l-0.0781 0.15625v1.7188q0 2.6562-0.46875 2.6562l-0.625 0.39063h-0.0781l0.0781-0.15625v-0.07813q-0.0781 0-0.23437-0.07813v0.23438h-0.23438q-0.15625 0-0.15625-0.15625h0.0781q-0.0781-0.78125-0.15625-0.78125l0.0781-0.15625q0-0.07813-0.0781-0.07813l0.0781-0.15625-0.0781-0.54688q0.0781 0 0.0781-0.07813-0.0781 0-0.0781-0.07813 0.0781 0 0.0781-0.07813-0.0781 0-0.0781-0.07813h0.0781l-0.0781-0.15625v-0.54688l0.0781-0.15625q-0.0781 0-0.0781-0.07813 0.0781 0 0.0781-0.07813-0.0781 0-0.0781-0.07813h0.0781l-0.0781-0.15625v-0.15625l0.0781-0.15625q-0.0781 0-0.0781-0.07813 0.0781 0 0.0781-0.07813-0.0781 0-0.0781-0.07813 0.0781 0 0.0781-0.07813h-0.15625l0.0781-0.15625v-0.07813q0-0.07813-0.0781-0.07813l0.0781-0.15625v-4.2969q0-0.07813-0.0781-0.07813l0.0781-0.15625v-0.07813q0-0.07813-0.0781-0.07813 0.0781-0.70312 0.15625-0.70312l-0.0781-0.15625v-0.39063q0-0.07813 0.0781-0.07813l-0.0781-0.15625v-0.15625l0.0781-0.15625q-0.0781 0-0.0781-0.07813 0.0781 0 0.0781-0.07813-0.0781 0-0.0781-0.07813 0.0781 0 0.0781-0.07813-0.0781 0-0.0781-0.07813h0.0781l-0.0781-0.15625 0.0781-0.15625q-0.0781 0-0.0781-0.07813h0.0781l-0.0781-0.15625v-1.4844q0-0.07813 0.0781-0.07813l-0.0781-0.15625 0.0781-0.15625q-0.0781 0-0.0781-0.07813 0.0781 0 0.0781-0.07813h-0.0781l0.0781-0.15625v-0.3125q0-0.07813-0.0781-0.07813l0.0781-0.15625v-0.15625l-0.0781-0.15625q0.0781 0 0.0781-0.07813-0.0781 0-0.0781-0.07813 0.0781 0 0.0781-0.07813h-0.0781l0.0781-0.15625v-0.625q0-0.07813-0.0781-0.07813l0.0781-0.15625v-3.125q0-0.07813 0.0781-0.07813l-0.0781-0.15625q0-0.07813 0.0781-0.07813l-0.0781-0.15625v-0.15608q0-0.07813 0.0781-0.07813l-0.0781-0.15625q0-0.07813 0.0781-0.07813l-0.0781-0.15625v-0.15624l0.0781-0.39063h-0.0781l0.0781-0.15625q-0.0781-0.15625-0.0781-0.23438h0.0781l-0.0781-0.15625q0-0.07813 0.0781-0.07813l-0.0781-0.15625 0.0781-0.15625h-0.0781l0.0781-0.15625q0-0.07813-0.0781-0.07813l0.0781-0.15625q0-0.07813-0.0781-0.07813l0.0781-0.15625q0-0.07813-0.0781-0.07813l0.0781-0.15625q0-0.07813-0.0781-0.07813l0.0781-0.15625v-1.1719l0.0781-0.15625h-0.0781l0.0781-0.15625q0-0.07813-0.0781-0.07813l0.0781-0.15625-0.0781-0.15625q0.0781-0.15625 0.0781-0.23438-0.0781 0-0.0781-0.07813l0.15625-0.07813-0.0781-0.15625v-0.3125l0.0781-0.15625h-0.0781l0.0781-0.15625-0.0781-0.15625q0.0781 0 0.0781-0.07813-0.0781 0-0.0781-0.07813 0.0781 0 0.0781-0.07813-0.0781 0-0.0781-0.07813 0.0781 0 0.0781-0.07813h-0.0781l0.0781-0.15625v-0.07813q0-0.07813-0.0781-0.07813l0.0781-0.15625v-0.54688q0-0.07813-0.0781-0.07813l0.15625-0.70313q-0.0781 0-0.0781-0.07813 0.0781 0 0.0781-0.07813-0.0781 0-0.0781-0.07813 0.0781 0 0.0781-0.07813-0.0781 0-0.0781-0.07813 0.0781 0 0.0781-0.07813-0.0781 0-0.0781-0.07813h0.0781l0.15625 0.07813v-0.07813q-0.15625-0.07813-0.23438-0.07813v-0.07813q0.23438 0 0.23438-0.15625h-0.0781l0.0781-0.15625v-0.39063q0-0.078125-0.0781-0.078125l0.0781-0.15625v-1.4844q0-1.0352 0.39062-1.1719h0.0781q0.50781 0 0.625 10.625 0.15625 6.0938 0.23437 14.922l1.875-1.5625q2.3828-2.6172 4.375-6.0938 1.4062-2.6172 1.4062-2.8125l-0.15625 0.07813v-0.07813l0.23438-0.54688q-0.0781 0-0.0781-0.07813 0.35156 0 0.9375-2.8125 0.3125-1.0742 0.3125-2.6562 0-5.7227-4.8438-7.8906 0 0.078125-0.0781 0.078125 0-0.3125-1.7969-0.46875h-0.23438q-0.33204 0-2.1875 0.46875l0.70313-0.625q0.19531-0.29297 0.85937-0.625v0.078255q0.80078-0.39062 1.7188-0.39062zm0.9375 0.938v0.078125q1.8555 0.83984 2.4219 1.4062-0.0781 0-0.0781 0.078125 1.4062 0.97656 2.5781 3.9062h-0.0781q0.46875 1.3867 0.46875 3.5156v0.3125q0 0.07813 0.0781 0.07813l-0.0781 0.15625v0.54688l0.0781 0.15625q-0.13672 0-0.54688 2.4219-0.41016 1.2695-1.1719 2.8125v0.07813q0.0977 0 0.625-1.0156-0.0781 0-0.0781-0.07813 0.39063-0.27344 1.25-3.2031 0.0781-0.48828 0.23438-0.9375h-0.0781q0.0781-0.17578 0.23438-1.1719-0.0781 0-0.0781-0.07813 0.0781 0 0.0781-0.07813h-0.0781q0.0781-0.13672 0.0781-0.3125h0.0781v0.23438h0.0781v-1.4844l-0.0781-0.15625q0.0781 0 0.0781-0.07813l-0.15625-0.07813 0.0781-0.15625q0-1.875-1.6406-4.4531-2.0117-2.207-3.5156-2.4219 0-0.15625-0.46875-0.15625-0.13672 0.078125-0.3125 0.078125zm0.2344 0h0.15625q0.15625 0.078125 0.23438 0.078125v0.078125h-0.15625q-0.15625-0.078125-0.23438-0.078125zm-6.4844 0.312h0.0781v0.15625l0.15625-0.078125q0 0.078125 0.0781 0.23438h-0.0781q0 0.078125 0.0781 0.078125-0.0781 1.0547-0.0781 1.5625v1.875q0 0.07813 0.0781 0.07813-0.0586 0.3125-0.15625 0.3125l0.0781 0.15625v0.15625q0 0.07813-0.0781 0.07813l0.0781 0.15625v0.70313q0 0.07813-0.0781 0.07813l0.0781 0.15625q0 0.07813-0.0781 0.07813l0.0781 0.15625-0.0781 0.39063q0.0781 0 0.0781 0.07813-0.0781 0-0.0781 0.07813h0.0781l-0.0781 0.15625q0 0.07813 0.0781 0.07813l-0.0781 0.15625 0.0781 0.15625h-0.0781l0.0781 0.15625q-0.0781 0.15625-0.0781 0.23438h0.0781l-0.0781 0.15625v0.46875q0 0.07813 0.0781 0.07813l-0.0781 0.15625v0.46875q0 0.07813 0.0781 0.07813l-0.0781 0.15625q0 0.07813 0.0781 0.07813l-0.0781 0.15625v0.39063q0 0.07813 0.0781 0.07813l-0.0781 0.15625q0 0.07813 0.0781 0.07813l-0.0781 0.15625q0 0.07813 0.0781 0.07813 0 0.07813-0.0781 0.07813l0.0781 0.39063v0.07813q0 0.07813-0.0781 0.07813 0.0781 0.15625 0.0781 0.23438l-0.0781 0.15625q0.0781 0.13672 0.0781 0.3125 0 0.07813-0.0781 0.07813l0.0781 0.15625v0.39063q0 0.07813-0.0781 0.07813 0.0781 0.15625 0.0781 0.23438t-0.0781 0.07813l0.0781 0.39063v0.625q0 0.07813 0.0781 0.07813l-0.0781 0.15625v4.6094q0 0.07813 0.0781 0.07813l-0.0781 0.15625v3.0469q0 0.07813-0.0781 0.07813l0.0781 0.15625v0.3125q0 0.07813-0.0781 0.07813l0.0781 0.15625v0.78125q0 0.07813 0.0781 0.07813l-0.0781 0.15625v1.6406q0 0.07813-0.0781 0.07813l0.0781 0.15625v2.2656q0 0.07813-0.0781 0.07813 0.0781 0.46875 0.15625 0.46875-0.0781 0.85938-0.15625 0.85938l0.0781 0.15625v1.3281l-0.0781 0.15625q0.0781 0 0.0781 0.07813h-0.0781q0 0.07813 0.0781 0.07813l-0.0781 0.70313q0.0781 0.68359 0.0781 0.85938h-0.23438q-0.54688 0-0.54688-3.5156v-0.54688q0-0.07813-0.0781-0.07813l0.0781-0.15625v-0.85952q0-0.07813-0.0781-0.07813l0.0781-0.15625v-3.5156q0-0.07813-0.0781-0.07813l0.0781-0.15625v-0.85938q0-0.07813-0.0781-0.07813 0.0781-0.15625 0.0781-0.23438 0-2.2461 0.0781-10.156h0.0781q0-0.07813-0.0781-0.07813l0.0781-0.39063v-3.8281l0.0781-0.15625h-0.0781l0.0781-0.15625v-0.07813q0-3.7891 0.3125-7.1875zm9.5314 14.766v0.07813q-0.0781 0.13672-0.0781 0.3125h-0.0781v-0.3125zm-0.234 0.39v0.07813q0 0.41016-0.23437 0.46875v-0.07813q0.0586-0.46875 0.23437-0.46875zm-0.391 0.547h0.15625v0.07813q-0.23438 0.35156-0.23438 0.46875h-0.0781v-0.23438q0.15625 0 0.15625-0.3125zm-0.156 0.547v0.07813q-0.0781 0.15625-0.0781 0.23438h-0.0781v-0.23438zm-0.313 0.547v0.07813q-0.15625 0.25391-0.15625 0.39062l-0.15625-0.07813q0.15625-0.35156 0.3125-0.39062zm-0.4686 0.547h0.0781v0.3125l-0.15625 0.07813v-0.07813q0.0781-0.13672 0.0781-0.3125zm-5.4688 8.0469v0.07813q0 0.07813 0.0781 0.07813l-0.0781 0.15625v0.07813h0.0781v-0.15625q0.15625 0.01953 0.15625 0.15625v0.07813h-0.15625q0 0.11719 0.23437 0.23438l0.15625-0.07813q0 0.11719 0.54688 0.54688l-0.0781 0.15625v0.07813h0.0781v-0.15627q0.0977 0 0.85937 0.85938v0.07813l-0.78125-0.70313v0.07813q0.0586 0 0.70313 0.70312l0.15625-0.07813q1.3867 1.4844 1.5625 1.4844 0-0.07813 0.0781-0.07813 0 0.3125 0.85938 0.46875h0.15625v-0.07813q-0.39063 0-1.0156-0.78125 0 0.07813-0.0781 0.07813 0-0.15625-0.15625-0.15625l0.0781-0.15625h-0.23438l0.0781-0.15625h-0.0781q0 0.07813-0.0781 0.07813l-0.0781-0.15625q0.0781 0 0.0781-0.07813h-0.0781q0 0.07813-0.0781 0.07813 0-0.3125-0.3125-0.3125l0.0781-0.15625q-0.25391-0.07813-0.9375-0.85938 0.0781 0 0.0781-0.07813-0.13672 0-1.6406-1.4844h-0.0781q-0.15625 0.01953-0.15625 0.15625zm4.2188 4.1406v0.07813q0.83984 0.3125 0.9375 0.3125h0.0781v-0.07813q-0.85937-0.3125-0.9375-0.3125zm1.1719 0.2344v0.07813h0.3125v-0.07813zm25.684-27.422q1.4844 0 1.4844 4.6094-0.0781 4.8828-0.23438 8.3594h0.0781l-0.0781 0.15625q-0.46875 13.848-0.46875 15.391 0 0.19531-0.15625 0.78125l-0.15625-0.07813q0 0.11719-0.46875 0.39062-0.3125-0.44922-0.3125-0.70312h-0.0781v0.3125q-0.11719 0-0.3125-0.39062l0.0781-0.15625q-0.0781-0.15625-0.0781-0.23438 0.0781 0 0.0781-0.07813l-0.15625-0.07813 0.0781-0.15625q0-0.07813-0.0781-0.07813l0.0781-0.15625q0-0.07813-0.0781-0.07813l0.0781-0.15625q0-0.07813-0.0781-0.07813l0.0781-0.15625q0-0.07813-0.0781-0.07813l0.0781-0.15625q0-0.07813-0.0781-0.07813 0.0781-0.54688 0.15625-0.54688l-0.0781-0.15625v-0.23438q0-0.07813 0.0781-0.07813l-0.0781-0.15625 0.0781-0.15625q-0.15625 0-0.15625-0.15625h0.15625v-0.07813l-0.0781-0.15625h0.0781q0-0.07813-0.0781-0.07813l0.0781-0.39063v-0.625l0.0781-0.15625q-0.0781 0-0.0781-0.07813h0.0781l-0.0781-0.15625v-0.07813q0-0.07813 0.0781-0.07813 0-0.07813-0.0781-0.07813l0.15625-1.3281q-0.0781 0-0.0781-0.07813h0.0781l-0.0781-0.15625q0.0781-0.15625 0.0781-0.23438h-0.0781l0.0781-0.15625q0-0.07813-0.0781-0.07813l0.15625-0.9375h-0.0781l0.0781-0.15625v-0.23438q0-0.07813-0.0781-0.07813l0.0781-0.15625v-0.23438q0-0.07813-0.0781-0.07813l0.0781-0.15625-0.0781-0.15625q0.0781 0 0.0781-0.07813h-0.0781q0.0781-0.19531 0.15625-0.78125h-0.0781l0.0781-0.15625-0.0781-0.15625h0.0781l-0.0781-0.15625q0.0781-0.15625 0.0781-0.23438h-0.0781l0.0781-0.15625q0-0.07813-0.0781-0.07813l0.0781-0.15625q0-0.07813-0.0781-0.07813l0.0781-0.15625q0-0.07813-0.0781-0.07813l0.15625-0.625h-0.0781l0.0781-0.15625q0-0.07813-0.0781-0.07813l0.0781-0.15625q0-0.07813-0.0781-0.07813l0.0781-0.15625q0-0.07813-0.0781-0.07813l0.0781-0.15625q0-0.07813-0.0781-0.07813l0.0781-0.15625v-0.23438q0-0.07813-0.0781-0.07813l0.078-0.15611q0-0.07813-0.0781-0.07813l0.0781-0.15625v-0.15625q0-0.07813-0.0781-0.07813 0.0781-0.85938 0.15625-0.85938l-0.0781-0.15625 0.0781-0.15625h-0.0781l0.0781-0.15625q0-0.07813-0.0781-0.07813l0.0781-0.15625-0.0781-0.15625h0.0781l-0.0781-0.15625q0.0781-0.15625 0.0781-0.23438-0.0781 0-0.0781-0.07813h0.0781q0-0.07813-0.0781-0.07813l0.0781-0.39063v-0.07813q0-0.07813-0.0781-0.07813 0.0781-0.78125 0.15625-0.78125l-0.0781-0.15625q0-0.07813 0.0781-0.07813l-0.0781-0.15625q0.0781-0.15625 0.0781-0.23438h-0.0781l0.0781-0.15625q0-0.07813-0.0781-0.07813l0.0781-0.15625q0-0.07813-0.0781-0.07813l0.0781-0.15625q0-0.07813-0.0781-0.07813l0.0781-0.15625q-0.0781-0.15625-0.0781-0.23438h0.0781l-0.0781-0.15625v-0.23438l0.0781-0.15625h-0.0781l0.0781-0.15625v-0.23438l-0.0781-0.15625h0.15625l-0.0781-0.15625q0-0.07813 0.0781-0.07813l-0.0781-0.15625q0.0781-0.15625 0.0781-0.23438h-0.0781l0.0781-0.15625q0-0.07813-0.0781-0.07813l0.0781-0.15625-0.0781-0.15625h0.0781l-0.0781-0.15625q0.0781-0.15625 0.0781-0.23438h-0.0781l0.0781-0.15625q0-0.07813-0.0781-0.07813l0.0781-0.15625q0-0.07813-0.0781-0.07813l0.0781-0.15625q0-0.07813-0.0781-0.07813l0.0781-0.15625q0-0.07813-0.0781-0.07813l0.0781-0.15625q0-0.07813-0.0781-0.07813l0.0781-0.15625q0-0.07813-0.0781-0.07813l0.0781-0.15625q0-0.07813-0.0781-0.07813l0.0781-0.15625q0-0.07813-0.0781-0.07813l0.0781-0.15625q-0.0781-0.15625-0.0781-0.23438 0.0781 0 0.0781-0.07813h-0.15625v-0.15625q0.0195-0.15625 0.15625-0.15625l-0.15625-0.78125q0.15625 0 0.15625-0.15625-0.15625 0-0.15625-0.15625h0.0781l-0.0781-0.15625q0-0.07813 0.0781-0.07813l-0.0781-0.15625q0.0195-0.15625 0.15625-0.15625v0.15625h0.0781v-0.15625q-0.0781 0-0.0781-0.07813h0.0781q0-0.54688-0.46875-0.9375-0.35157 0.39062-0.46875 0.39062 0.3125 1.1328 0.46875 2.4219h-0.0781l0.0781 0.15625v1.0938q0 0.54688 0.0781 1.7188h-0.0781l0.0781 0.15625-0.0781 0.39063h0.0781l-0.0781 0.15625q0 0.07813 0.0781 0.07813l-0.0781 0.15625q0 0.07813 0.0781 0.07813l-0.0781 0.15625v2.1875q0 0.07813-0.0781 0.07813l0.0781 0.15625q0 0.07813-0.0781 0.07813 0 0.07813 0.0781 0.07813l-0.0781 0.39063v1.0938q0 0.07813-0.0781 0.07813l0.0781 0.15625q-0.0781 0.15625-0.0781 0.23438h0.0781l-0.0781 0.15625q0 0.07813 0.0781 0.07813l-0.0781 0.15625q0 0.07813 0.0781 0.07813l-0.0781 0.15625q0 0.07813 0.0781 0.07813l-0.0781 0.15625q0 0.07813 0.0781 0.07813l-0.07807 0.15625v0.625q0 0.07813 0.0781 0.07813-0.0586 0.3125-0.15625 0.3125l0.0781 0.15625v0.07813q0 0.07813-0.0781 0.07813l0.0781 0.15625q0 0.07813-0.0781 0.07813l0.0781 0.15625v0.23438l-0.0781 0.15625h0.0781l-0.0781 0.15625q0 0.07813 0.0781 0.07813l-0.0781 0.15625q0 0.07813 0.0781 0.07813l-0.0781 0.15625v0.70313q0 0.07813-0.0781 0.07813l0.0781 0.15625v0.07813q0 0.17578-0.0781 0.3125 0.0781 0.13672 0.0781 0.3125v0.23438q0 0.07813-0.0781 0.07813 0 0.07813 0.0781 0.07813l-0.0781 0.39063v1.4063l-0.0781 0.15625h0.0781l-0.0781 0.15625q0 0.07813 0.0781 0.07813l-0.0781 0.15625v1.4844q0 0.07813-0.0781 0.07813 0 0.07813 0.0781 0.07813l-0.0781 0.39063v1.0938q0 0.07813-0.0781 0.07813l0.0781 0.15625-0.0781 0.15625h0.0781l-0.0781 0.15625v1.4844l-0.0781 0.39063h0.0781l-0.0781 0.15625v0.39063q0 0.07813 0.0781 0.07813-0.15625 0.29297-0.15625 0.625 0 1.4648 0.23438 2.2656h-0.23438q-0.44922 0-0.54688-2.5781v-0.3125q0-0.07813-0.0781-0.07813l0.0781-0.15625q0.39063-8.3008 0.39063-10.625 0.0781 0 0.0781-0.07813h-0.0781l0.0781-0.15625v-1.0938q0-0.78125 0.0781-2.3438h-0.0781l0.0781-0.15625q0.0781-4.1992 0.0781-5.1562h0.0781l-0.0781-0.15625q0.0781-0.15625 0.0781-0.23438h-0.0781l0.0781-0.15625v-1.3281q0-0.07813-0.0781-0.07813l0.0781-0.15625q-0.0586-3.0469-0.39063-3.0469-1.1914 1.3477-3.2031 7.9688-0.70313 2.2266-1.7969 6.4844 0.0781 0 0.0781 0.07813-0.15625 0-0.78125 2.4219-0.89844 2.5391-1.875 3.4375-0.78125 0.72266-1.875 1.0156 0 0.21484-1.0156 0.3125-1.0938-0.35156-1.875-2.1094-1.1523-3.0469-2.4219-9.0625h0.0781q-0.78125-3.3594-0.85937-4.1406h-0.0781q0 0.07813-0.0781 0.23438-0.0781 2.0508-0.0781 3.4375v0.625q0 0.07813 0.0781 0.07813l-0.0781 0.15625q0 2.2656 0.70313 12.266 0 2.5586-1.0156 3.2031h-0.0781v-0.15625h-0.0781l-0.15625 0.07813q-0.0781-0.15625-0.0781-0.23438 0.39062-0.97656 0.39062-1.875h0.0781v0.23438h0.0781v-1.0156q0-0.17578 0.0781-0.3125-0.0781-0.13672-0.0781-0.3125v-1.0938q0-0.07813-0.0781-0.07813 0-0.07813 0.0781-0.07813-0.3125-2.9492-0.3125-3.8281-0.0781 0-0.0781-0.07813h0.0781l-0.0781-0.15625v-1.0938h-0.15625l0.0781-0.15625v-0.07813q0-0.07813-0.0781-0.07813l0.0781-0.15625q-0.0781-1.3086-0.0781-2.0312v-0.23438l-0.0781-0.15625h0.0781l-0.0781-0.15625v-2.1094q0-0.07813-0.0781-0.07813l0.0781-0.15625v-0.15625h-0.15625q0.0586-0.3125 0.15625-0.3125l-0.0781-0.15625v-0.23438q0-0.07813 0.0781-0.07813l-0.0781-0.15625v-0.3125l0.0781-0.54688h-0.0781l0.0781-0.15625v-0.39063q0-1.1523-0.0781-2.0312 0.0781-0.44922 0.0781-1.25 0.0781 0 0.0781-0.07813h-0.0781q0.0781-0.15625 0.0781-0.23438 0-0.89844 0.15625-1.4844h-0.0781q0.0781-0.15625 0.0781-0.23438 0-0.13672-0.0781-0.9375h-0.15625q0.0781-0.15625 0.0781-0.23438v-0.07813h-0.0781q-0.70312 4.9023-0.70312 8.3594v0.78125q0 5.4883 0.54687 9.4531 0 0.07813-0.0781 0.07813 0.23437 2.1484 0.23437 3.9062-0.19531 2.1484-0.46875 2.1875h-0.0781q0-0.09766-0.0781-0.78125 0.23438-0.95703 0.23438-2.1094l-0.625-10.234q-0.0781-0.85938-0.0781-3.3594 0-3.9648 0.78125-9.9219h0.0781v0.23438h0.0781v-0.23438h0.0781l0.3125 0.46875h0.15625q0.74219-1.1719 0.85937-1.1719 0.13672-0.07813 0.39063-0.07813 0.15625 0.15625 0.78125 4.2188 1.9531 8.9258 3.0469 13.281 1.0352 2.9688 1.875 2.9688v-0.07813q1.0156-1.4648 2.7344-7.8125l0.85938-2.7344q-0.0781 0-0.0781-0.07813 0.21485 0 0.3125-0.625 0.46875-1.2305 0.78125-2.3438l0.15625 0.07813-0.0781-0.15625v-0.07813l0.15625 0.07813v-0.15625q0-0.07813-0.0781-0.07813 0.15625-0.3125 0.15625-0.54688l0.15625 0.07813-0.0781-0.15625 0.0781-0.39063 0.15625 0.07813q-0.0781-0.15625-0.0781-0.23438v-0.07813h0.0781v0.15625h0.0781v-0.07813q-0.0781-0.15625-0.0781-0.23438l0.15625 0.07813q-0.0781-0.15625-0.0781-0.23438v-0.07813h0.0781v0.15625h0.0781v-0.07813q-0.0781-0.13672-0.0781-0.3125l0.15625 0.07813-0.0781-0.15625v-0.07813l0.15625 0.07813-0.0781-0.15625v-0.15625l0.15625 0.07813q0-0.11719 0.70313-1.5625-0.0781 0-0.0781-0.07813 0.17578 0 0.54688-0.9375-0.0781 0-0.0781-0.07813 0.19531 0 0.9375-1.4062 0.74219-0.78125 1.0156-0.78125 1.0352-1.0938 1.7969-1.0938zm-0.079 2.031v0.23438q-0.15625 0-0.15625-0.15625zm-3.203 1.328q-2.2656 4.4531-5.625 16.875-0.0977 0-0.3125 0.78125 0.44922-0.39062 1.6406-4.4531 1.7969-6.9531 4.375-13.125v-0.07813zm-13.281 1.875-0.23438 1.875q0.95703 5.3906 1.1719 5.3906 0 0.07813-0.0781 0.07813 1.1914 6.2891 2.5781 9.4531 0.68359 0.9375 0.85937 0.9375v-0.07813q-0.11719 0-0.23437-0.23438h0.0781q0.25391 0.15625 0.46875 0.15625h0.0781q0.15625 0 0.15625-0.15625-0.11719 0-0.3125-0.3125 0.0781 0 0.0781-0.07813-0.23437 0-0.23437-0.15625 0.0781 0 0.0781-0.07813l-0.39063-0.23438q0-0.07813 0.0781-0.07813 0-0.05859-0.3125-0.70312 0.0781 0 0.0781-0.07813-0.13672 0-0.46875-0.9375 0.0781 0 0.0781-0.07813-0.17578 0-0.9375-3.125l-1.25-5.625h-0.0781l0.0781-0.15625q-0.78125-3.7695-0.9375-4.2188h0.0781q-0.15625-0.35156-0.3125-1.5625h-0.15625zm-1.3281 3.203v0.70313h0.0781v-0.70313zm-0.1562 1.172h0.0781v0.78125h-0.0781zm7.8125 12.188q0 0.07813-0.0781 0.23438h0.0781l0.0781-0.15625v-0.07813z"/>
    </g>
    <g transform="matrix(.47249 0 0 .47249 76.467 85.298)" featurekey="sloganFeature-0">
     <path d="m8.38 20.2c-4 0-7.14-3.2-7.14-7.2s3.14-7.2 7.14-7.2 7.16 3.2 7.16 7.2-3.16 7.2-7.16 7.2zm0-1.32c3.24 0 5.72-2.58 5.72-5.88s-2.48-5.88-5.72-5.88-5.72 2.58-5.72 5.88 2.48 5.88 5.72 5.88zm21.283-7.86c0 2.22-1.14 4.28-3.5 4.84l3.18 4.14h-1.7l-3.06-3.98h-3.5v3.98h-1.4v-14h5.1c3.3 0 4.88 2.38 4.88 5.02zm-8.58-3.72v7.42h3.62c2.52 0 3.58-1.9 3.58-3.7s-1.06-3.72-3.58-3.72zm26.103-1.5h0.2v14.2h-1.38v-10.42l-5.36 7.34h-0.12l-5.36-7.3v10.38h-1.38v-14.2h0.18l6.62 8.9zm9.603 7.2v1.24h-4.7v-1.24zm6.103 5.68h6.18l-0.1 1.32h-7.48v-14h1.4zm9.683 1.32v-14h1.4v14zm14.383 0-4.5-6.74-2.38 2.92v3.82h-1.4v-14h1.4v8.04l6.6-8.04h1.7l-4.98 6.12 5.2 7.88zm17.643-7v0.54h-11.46c0.18 2.96 1.88 5.36 5.42 5.36 1.84 0 3.56-0.9 4.48-2l0.88 0.88c-1.08 1.28-2.96 2.42-5.36 2.42-4.52 0-6.84-3.2-6.84-7.2 0-4.02 2.86-7.2 6.66-7.2 4 0 6.22 3.18 6.22 7.2zm-6.22-5.9c-2.8 0-4.9 2.3-5.22 5.16h10.1c-0.24-2.92-1.88-5.16-4.88-5.16zm28.006 12.9-1.36-3.16h-6.78l-1.36 3.16h-1.5l6.16-14.2h0.18l6.16 14.2zm-7.58-4.46h5.66l-2.84-6.58zm17.483-9.54c3.28 0 4.8 2.5 4.8 5.08 0 2.56-1.52 5.06-4.8 5.06h-3.7v3.86h-1.4v-14zm-0.08 8.82c2.28 0 3.46-1.76 3.46-3.74 0-2-1.18-3.76-3.46-3.76h-3.62v7.5zm9.003 5.18v-14h1.4v14zm27.526-14.2h0.2v14.2h-1.38v-10.42l-5.36 7.34h-0.12l-5.36-7.3v10.38h-1.38v-14.2h0.18l6.62 8.9zm11.483 14.4c-4 0-7.14-3.2-7.14-7.2s3.14-7.2 7.14-7.2 7.16 3.2 7.16 7.2-3.16 7.2-7.16 7.2zm0-1.32c3.24 0 5.72-2.58 5.72-5.88s-2.48-5.88-5.72-5.88-5.72 2.58-5.72 5.88 2.48 5.88 5.72 5.88zm16.563-13.08c3.08 0 5.14 1.8 5.14 5.24v8.96h-1.38v-8.68c0-2.9-1.62-4.22-3.76-4.22-1.9 0-3.88 1.6-3.88 3.94v8.96h-1.38v-14h1.38v1.72c0.82-1.12 2.14-1.92 3.88-1.92zm21.263 6.08v6.86c-1.04 0.8-2.62 1.46-4.9 1.46-4.34 0-7.22-3.2-7.22-7.2s3.04-7.2 7.2-7.2c1.9 0 3.52 0.7 4.78 1.7l-0.74 1.06c-1.1-0.9-2.54-1.44-4.04-1.44-3.24 0-5.76 2.56-5.76 5.88 0 3.34 2.36 5.86 5.78 5.86 1.36 0 2.6-0.32 3.5-0.78v-4.86h-2.96l0.1-1.34zm11.103 8.32c-4 0-7.14-3.2-7.14-7.2s3.14-7.2 7.14-7.2 7.16 3.2 7.16 7.2-3.16 7.2-7.16 7.2zm0-1.32c3.24 0 5.72-2.58 5.72-5.88s-2.48-5.88-5.72-5.88-5.72 2.58-5.72 5.88 2.48 5.88 5.72 5.88zm16.043-12.88c4.7 0 7.2 2.9 7.2 7s-2.5 7-7.2 7h-4.74v-14zm0.06 12.68c3.8 0 5.76-2.42 5.76-5.68 0-3.28-1.96-5.68-5.76-5.68h-3.4v11.36zm18.583-7.6c1.9 0.56 3.04 2.18 3.04 4.36 0 2.38-1.28 4.48-5 4.56h-5.32v-14h5.52c2.46 0 3.12 1.7 3.12 2.82 0 1.02-0.64 1.86-1.36 2.26zm-1.9-3.82h-3.98v3.5h3.56c1.62 0 2.32-0.84 2.32-1.8 0-0.68-0.38-1.7-1.9-1.7zm-0.22 11.42c2.62 0 3.74-1.42 3.74-3.24 0-1.98-1.06-3.5-3.6-3.5h-3.9v6.74zm18.486-11.36v4.92h4.6v1.32h-4.6v6.44h-1.4v-14h7.9l0.1 1.32zm17.043 12.88c-4 0-7.14-3.2-7.14-7.2s3.14-7.2 7.14-7.2 7.16 3.2 7.16 7.2-3.16 7.2-7.16 7.2zm0-1.32c3.24 0 5.72-2.58 5.72-5.88s-2.48-5.88-5.72-5.88-5.72 2.58-5.72 5.88 2.48 5.88 5.72 5.88zm16.303-13.08c1.1 0 2.1 0.34 3.08 1.06l-0.7 1.06c-0.74-0.54-1.56-0.82-2.4-0.82-2.22 0-3.6 2.04-3.6 5.3v7.6h-1.38v-14h1.38v2.06c0.76-1.42 2-2.26 3.62-2.26zm24.506 5.22c0 2.22-1.14 4.28-3.5 4.84l3.18 4.14h-1.7l-3.06-3.98h-3.5v3.98h-1.4v-14h5.1c3.3 0 4.88 2.38 4.88 5.02zm-8.58-3.72v7.42h3.62c2.52 0 3.58-1.9 3.58-3.7s-1.06-3.72-3.58-3.72zm21.843-1.3h1.38v14h-1.38v-1.76c-0.8 1.22-2.26 1.96-4.14 1.96-3.1 0-5.16-1.76-5.16-5.04v-9.16h1.38v8.76c0 2.8 1.66 4.14 3.78 4.14 1.96 0 4.14-1.22 4.14-3.56zm5.323 12.52c0.94 0.88 2.7 1.68 4.46 1.68 2.7 0 4.52-1.46 4.52-3.64 0-1.76-0.78-2.76-4.06-4.58-2.46-1.36-3.08-1.86-3.08-2.88 0-1.1 1.08-1.98 2.68-1.98 0.96 0 2.14 0.42 2.84 0.86l0.72-1.12c-0.94-0.6-2.32-1.06-3.54-1.06-2.48 0-4.18 1.42-4.18 3.32 0 1.68 0.86 2.52 3.56 3.96 2.62 1.38 3.56 2.3 3.56 3.48 0 1.34-1.26 2.26-3 2.26-1.42 0-2.88-0.7-3.68-1.42zm21.563-11.2h-4.24v12.68h-1.4v-12.68h-4.26l0.1-1.32h9.7z"/>
    </g>
   </g>
  </g>
 </g>
</svg>
