<svg width="319.68" height="100" version="1.1" viewBox="0 0 84.569 26.457" xmlns="http://www.w3.org/2000/svg">
 <g transform="matrix(.79707 0 0 .79707 15.399 2.214)">
  <g transform="matrix(.39233 0 0 .39233 1.1646 -.028969)" stroke="#008000">
   <g transform="matrix(2.5363 0 0 2.4867 142.17 -633.7)" fill="#0b2228" stroke="#008000" stroke-width=".80561">
    <rect x="-76.241" y="258.45" width="105.83" height="21.167" ry="1.91" fill="#0b2228" stroke="#008000" stroke-width=".80561"/>
   </g>
   <path transform="matrix(2.5489 0 0 2.5489 -2.9684 .073838)" d="m68.053 15.687s2.7277-2.0269-2.6689-3.002c0 0-2.2592 1.4023 2.6689 3.002zm-23.182 3.1505s-2.7747-1.3181-8.405 0.02776c0 0 4.1907 1.7006 8.405-0.02776zm-50.22-12.114s-2.9055 1.8036 3.4318 3.8603c0 0 3.5061-2.6072-3.4318-3.8603zm16.119 1.5442s-3.0809-0.049796-3.903 1.7319c0 0 4.2626-0.05912 3.903-1.7319zm0.68608 2.5616s-0.7706-0.9142-4.4412-0.65251c0 0 1.3146 1.2282 4.4412 0.65251zm64.901 7.9948s4.2608-0.06022 3.903-1.7319c0 0-3.0832-0.04998-3.903 1.7319zm4.5871 0.82861s-0.77061-0.9142-4.4417-0.65158c0.0026 1.85e-4 1.317 1.2284 4.4417 0.65158zm-34.357-14.825s-3.2836 2.1175 3.6972 4.4895c0 0 3.9775-3.0583-3.6972-4.4895zm4.62 4.5637c-5.29e-4 9.53e-4 6.6805 0.31164 7.2693-2.4677 0 0-4.7672-0.37833-7.2693 2.4677zm13.108 12.798s-0.78167-3.617-10.139-3.1359c-5.3e-4 9.53e-4 0.04384 2.6254 10.139 3.1359zm-76.991-3.5693c-0.26704 0.08561-0.53842 0.19372-0.80695 0.2916l1.3579-2.6162c0.13744-0.02917 0.3021-0.04479 0.49298-0.03075l0.0014-0.0027c0.86729 0.06814 1.6231-0.06377 2.358-0.22113 0.48892-0.1643 0.97501-0.33262 1.4216-0.505 0.56018-0.21676 1.3155-0.14504 1.7257 0.03089 0.51928-0.12385 1.0536-0.24842 1.6085-0.34662 0.0076-0.0099 0.01796-0.02048 0.02787-0.03017l-0.0046-3.97e-4c0.01043-0.01061 0.02219-0.0192 0.03209-0.02888 0.17011-0.17222 0.36979-0.3307 0.60148-0.49902 0.35865-0.26208 0.3847-0.59504 0.73053-0.83243 0.2392-0.16393 0.47705-0.33938 0.75198-0.50148-0.03883-0.04302-0.05976-0.08749-0.06286-0.13342l-0.0089-0.0064c-0.42199-0.26157-0.76592-0.5227-0.99915-0.81798-0.12574-0.15834 0.06062-0.38066-0.09549-0.48524-0.9383-0.068-1.3214-0.48925-2.0291-0.69523-0.06577-0.01944 0.0083-0.05835 0.07969-0.04513 0.47312 0.0876 0.93609 0.13826 1.3351 0.27906 0.19671 0.06875 0.39299 0.1289 0.57326 0.19636 0.02503-0.01992 0.05289-0.04058 0.09386-0.05829 0.93352-0.40823 1.8487-1.012 2.2217-1.528 0.03645-0.05138 0.23907-0.03642 0.20919 0.01644-0.19821 0.34416-0.87223 0.7661-0.85928 1.1088 0.0097 0.23583-0.03955 0.40612-0.27693 0.58068 0.34819 0.2529 0.50628 0.52799 0.9067 0.77453 0.04457 0.0273 0.09192 0.05386 0.13928 0.08041 0.02542-0.01132 0.05322-0.02246 0.0801-0.03177 0.10222-0.0367 0.21662-0.06387 0.33663-0.083 0.1925-0.22946 0.91151-0.32335 1.4293-0.42541 0.23958-0.04685 0.54245-0.05065 0.78399-0.01169 0.11569-0.0014 0.23135 2e-3 0.34886 0.01123 0.23319-0.08637 0.48185-0.16486 0.72207-0.24591-0.08301-0.04744-0.10294-0.10801 0.0066-0.17746 0.17594-0.11275 0.38192-0.21268 0.61606-0.30087 0.08394-0.0486 0.17022-0.09702 0.25838-0.14434 0.05699-0.11924 0.10365-0.2374 0.18402-0.32625 0.07707-0.08721 0.25166-0.11251 0.42418-0.10086 0.1703-0.11129 0.35092-0.21892 0.55127-0.32214 0.0202-0.09549-0.01789-0.18699 0.04332-0.30496 0.12768-0.24598 0.56994-0.39109 0.58818-0.66661 0.0026-0.0569 0.14905-0.09393 0.27035-0.08725 0.16463-0.20406 0.35276-0.40625 0.50703-0.60922 0.03882-0.0512 0.22449-0.03661 0.20918 0.01644-0.09705 0.33309-0.1067 0.67684-0.26298 1.0062-0.08313 0.17429-0.08793 0.39089-0.28482 0.55815 0.05415 0.0842 0.09277 0.17003 0.02133 0.26054-0.28338 0.35747-0.92617 0.6391-1.42 0.95433-0.02186 0.04206-0.04318 0.08321-0.06738 0.12509-0.04886 0.08942-0.23638 0.1632-0.42904 0.23277-0.02826 0.01206-0.05798 0.0221-0.0895 0.03104-0.10175 0.03578-0.2002 0.06993-0.27701 0.10481-0.3412 0.15307-0.53303 0.43777-0.97041 0.54998l-0.01083 2e-3c-0.01427 0.03694-0.0488 0.07516-0.11811 0.11444-0.31783 0.18345-0.62242 0.35556-1.0013 0.5152-0.07515 0.17777-0.1757 0.35736-0.29835 0.53711 6.35e-4 0.0172-0.0013 0.03512-0.0059 0.05378l0.06723 0.0024c0.39826 0.01036 0.68238 0.08977 0.78904 0.20474 0.38449-0.16108 0.76618-0.32145 1.1108-0.49519 0.03347-0.01735 0.09921 0.0021 0.07749 0.02036-0.28286 0.24806-0.69161 0.46053-1.1656 0.65266-0.0109 0.02103-0.02232 0.04298-0.04404 0.06601-0.11251 0.12249 0.23548 0.22026 0.77168 0.29473 0.06115 4.4e-5 0.11804-0.0012 0.1801 0.0018 0.29008 0.01613 0.58109 0.03042 0.87022 0.04362 0.04233-0.0014 0.08231-0.0031 0.12604-0.0024 1.6801 0.02445 3.345 0.08768 5.0169-0.0085 0.3782-0.02168 0.81317 0.07816 1.1236 0.16346 0.05652-0.0241 0.14179-0.05167 0.25905-0.08434 0.4704-0.12864 1.095-0.05958 1.4149 0.11116l0.04133 0.01467c0.61325-0.0079 1.2251-0.0085 1.834 0.0013 0.57724-0.05172 1.1123-0.12104 1.3184-0.15529 1.2246-0.20548 1.5006-0.3037 2.9432-0.15137 0.74262 0.07737 1.3885 0.24232 2.09 0.35644 0.20299 0.03308 0.41735 0.05372 0.63357 0.07071 0.04708-0.01058 0.08993-0.02243 0.14358-0.03155 1.3752-0.24123 3.2017-0.15008 4.6261-0.35413 0.54795-0.21677 1.1523-0.41958 1.6052-0.62764 0.50806-0.23418 1.0664-0.46631 1.6951-0.6596 0.15488-0.13344 0.23828-0.26583 0.20971-0.38991-0.04747-0.20549 0.29183-0.35014 0.7352-0.43143 0.92487-0.17002 1.5442-0.56676 2.5777-0.90336 0.20252-0.06498 0.52517-0.0739 0.79164-0.04059 0.5108-0.31485 1.1887-0.5747 2.0025-0.82293 1.1336-0.34588 1.4905-1.043 2.1277-1.5212 0.43135-0.32204 0.96458-0.60945 1.496-0.90745 0.0311-0.017539 0.10157 0.00222 0.0775 0.020363-0.92936 0.71593-2.204 1.7483-2.4669 2.5471-0.17322 0.52696-1.8487 0.81882-2.1834 1.3693-0.14503 0.237-1.0345 0.3765-1.4756 0.18481-0.24598 0.1063-0.4436 0.22782-0.52856 0.3915-0.03273 0.06309-0.10968 0.12176-0.2115 0.17182-0.0026 0.01884-0.0091 0.0364-0.0209 0.05451-0.01847 0.02615-0.10401 0.21453-0.11203 0.12158 2.57e-4 0.01811 0.0059 0.03568 0.01103 0.05416l0.01497 0.0183c0.56188 0.01559 1.0882-4e-3 1.6434-0.07931 0.43433-0.05914 1.0365 0.0015 1.2661 0.16704 0.07359 0.05147 0.15284 0.09671 0.23587 0.1394 0.27529-0.03548 0.54718-0.05504 0.81042-0.03436 0.49123 0.03859 1.0614 0.08529 1.6094 0.15594 0.86963-0.12487 1.9138-0.07234 2.833 0.08456 1.2874-0.4632 2.9853-0.9113 4.642-0.7193 0.93781-0.4212 2.2211-0.71154 3.2669-1.0814 0.25264-0.41604 0.77356-0.78339 1.1625-1.1839 0.44658-0.45979 0.92301-0.86396 1.8801-1.1951 0.20255-0.06974 0.49788 0.0258 0.31926 0.11073-0.7334 0.35256-1.0295 0.72046-1.0806 1.1723-0.0076 0.05269 0.0013 0.10575 0.01532 0.15918 2.7739-0.06093 5.6699 0.0857 8.3965-0.10552 0.119-0.0077 0.15533 0.06835 0.04101 0.08126-1.3005 0.14908-2.6375 0.26958-3.9811 0.34583-1.4111 0.07948-3.2893 0.0547-4.0265 0.60778-1.0501 0.7883-3.6047 1.0301-4.7009 1.7987-0.2581 0.18148-0.93118 0.30943-1.4356 0.18319-0.22969-0.05706-0.46657-0.08138-0.70312-0.08284 5.29e-4 0.01336-0.0013 0.02653-0.0087 0.04025-0.01559 0.03018-0.0379 0.05888-0.06247 0.08741 0.20866 0.12584 0.13627 0.31716-0.20046 0.41917-0.02421 0.05615-0.0527 0.10626-0.12968 0.16968-0.05144 0.04258-0.11277 0.0806-0.17456 0.11952 1.5551 0.70365 2.9473 1.603 4.6105 1.8535 1.5155 0.2285 2.9468 0.42567 4.3238 0.75177 0.61205 0.14516 1.5357-0.06494 2.2017 0.01403 0.99826 0.11745 2.0046 0.20983 3.0442 0.23821 0.06068 9.53e-4 0.08879 0.01745 0.10092 0.03648 1.0497-0.01937 1.7362-0.19194 2.5665-0.55687 1.0745-0.47232 3.2101-0.60434 4.7404-0.43271 0.02727-7.14e-4 0.05223-0.0016 0.07902-0.0014 0.39086-0.11681 0.95322-0.10213 1.4722-0.05565 0.20993-0.04156 0.42832-0.08055 0.65138-0.11442 0.23069-0.15699 0.57696-0.28682 1.01-0.38128 0.7885-0.17122 1.8771-0.25605 2.4568-0.52933 0.0589-0.02868 0.17869 0.0045 0.13526 0.03633-0.27888 0.20269-0.71401 0.42356-1.2093 0.55309-0.67049 0.17478-1.601 0.34626-1.6516 0.70299l-0.0087 0.01646c1.3814 0.23225 2.617 0.67953 3.7545 1.0896 0.04042 7e-3 0.07188 0.01231 0.08975 0.01562 1.052 0.17877 1.9224 0.68873 3.1472 0.64316 1.5216-0.05653 1.0794 0.66342 1.4093 0.99389 0.04213 0.04138-0.10375 0.06323-0.16849 0.03245-1.2584-0.60136-3.14-1.1755-5.1522-1.5401-0.11795-0.01783-0.23401-0.03932-0.35053-0.0599-0.84389-0.14148-1.7045-0.2462-2.5511-0.29748-0.22518-0.01388-0.3804-0.10602-0.35788-0.19181l-0.33119-0.06884c-0.23885-0.0064-0.48008-0.01296-0.71943-0.0137-0.32024-4.23e-4 -0.47582-0.11542-0.34742-0.21668-0.08416-0.0028-0.1641-0.0043-0.24639-0.0061-0.28808 0.06017-0.61649 0.09432-1.0675 0.10552-0.17356 0.0045-0.3634-0.02093-0.51697-0.06441-0.10778 0.01913-0.23437 0.03678-0.41033 0.05532-0.39615 0.04216-0.71704-0.02302-0.90652-0.12451-0.78026 0.12238-1.5165 0.27773-1.9012 0.47684-0.50818 0.26272-0.86771 0.41339-1.6873 0.49842-1.3625 0.14135-3.2893-0.11947-4.8532-0.2785-0.10675 0.0031-0.21211 0.0081-0.31606 0.01038-0.467 9e-3 -1.0501 0.10498-1.584 0.12966 0.0727 0.138 0.09411 0.28053 0.11744 0.4194 0.02281 0.15406 0.32684 0.29406 0.5322 0.42154 0.06471 0.0403-0.08785 0.0797-0.15822 0.04087-0.1496-0.08408-0.30203-0.16743-0.44083-0.25352-0.12004-0.07509-0.28908-0.12644-0.43266-0.19387-0.30262-0.14274-0.53297-0.25505-0.58004-0.44717-0.0059-0.02141 4e-3 -0.04061 0.01585-0.05871-1.5283-0.28852-3.3067-0.38732-4.8144-0.6923-1.5828-0.3204-2.9291-0.8135-4.3137-1.2468-0.93442-0.29229-1.7466-0.67398-2.814-0.89869-0.79159-0.16688-1.3522-0.25089-1.9054-0.49516-0.3941 0.0052-0.80353-0.02601-1.212-0.07332-0.11847-0.0074-0.23834-0.01682-0.36101-0.03026-0.06909-0.0083-0.13158-0.01985-0.19029-0.03398-0.27269 0.18605-0.94945 0.29753-1.4389 0.17532-0.14513-0.03615-0.27852-0.07137-0.40769-0.10531-0.46395 0.05968-0.94197 0.10872-1.46 0.16415-1.2826 0.13811-2.7508 0.44532-3.9423 0.68577-1.6969 0.34254-3.1079 0.79888-4.6567 1.2045 0.1874 0.04898 0.37481 0.09797 0.55843 0.14475 1.5683 0.40016 3.1662 0.81879 4.2195 1.4288 0.80425-0.02247 1.5757 0.03243 2.3146 0.19231 0.51016 0.1105 1.0061 0.24369 1.5305 0.34102 0.83256 0.15391 0.86555 0.33542 1.2022 0.05923 0.24314-0.19979 1.1517-0.20169 1.2883 0.0346 0.55738 0.95741 0.71052 1.9725 2.0349 2.8379 0.24096 0.15788 1.2459 0.55468 1.151 0.73756-0.22354 0.43068 1.5835 0.46986 2.2614 0.5117 0.09733 0.0058 0.0792 0.05952-0.01103 0.06385-1.0273 0.05158-1.872-0.02716-2.8397-0.16122-0.09775-0.01434-0.15345-0.06725-0.12929-0.10438 0.2523-0.38742-0.97357-0.80158-1.3653-1.1026-0.29753-0.22799-0.58988-0.45652-0.81162-0.69854-0.41493-0.45421-0.8059-0.91222-1.1813-1.3719-0.12798 0.01564-0.26627 0.02285-0.42051 0.01836-1.9668-0.0565-3.3411-0.68886-5.3375-0.66486 0.0085 0.01208 0.01963 0.02343 0.0276 0.03643 0.01169 0.0152-0.03778 0.02559-0.0626 0.01221-0.03472-0.01796-0.06802-0.03389-0.10321-0.05093-0.27508-0.0026-0.57251-0.05164-0.70892-0.14706-0.08812-0.06117-0.18048-0.11886-0.27801-0.17602-0.89768-0.20281-1.96-0.30054-2.7773-0.58271-1.0291-0.35495-2.111-0.67881-3.2217-0.99448l-0.062-0.01724c-0.75842-0.02341-1.4707-0.06509-2.1827-0.14483-0.46436 0.04632-1.004-0.0027-1.4324-0.20009l-0.02905-0.01465c-0.26922-0.04685-0.54456-0.09608-0.82224-0.15025-2.3861 0.20464-4.7751 0.14638-7.2123-0.02224-1.4414 0.30264-3.6584 0.33216-5.0513 0.46158-2.3029 0.21403-4.64 0.08372-6.9746 0.17058-0.17014 0.078-0.40738 0.12978-0.69289 0.13781-1.1043 0.0303-2.1311 0.17994-3.1826 0.30195-0.02456 0.02377-0.05335 0.04625-0.08873 0.06726 0.1532 0.0206 0.20218 0.10534 0.05382 0.15555-1.4969 0.49909-3.4601 0.48761-5.1841 0.76428-0.38793 0.09229-0.78807 0.17982-1.1962 0.26385-0.04616 0.01351-0.09371 0.02499-0.13797 0.0396zm44.16-5.5995 0.0081-0.0061z" fill="#008000" stroke="none"/>
   <g stroke="#008000">
    <g transform="matrix(3.2957,0,0,3.2957,0,-5.9019)" fill="#80bf80" stroke-width=".67017">
     <path d="m24.38 10.175-2.231-0.268c-0.228-0.851-0.562-1.655-0.992-2.401l1.387-1.763c0.212-0.271 0.188-0.69-0.057-0.934l-2.299-2.3c-0.242-0.243-0.662-0.269-0.934-0.057l-1.766 1.389c-0.743-0.43-1.547-0.764-2.396-0.99l-0.267-2.231c-0.041-0.341-0.356-0.62-0.7-0.62h-3.252c-0.344 0-0.659 0.279-0.699 0.62l-0.268 2.231c-0.85 0.227-1.655 0.562-2.398 0.991l-1.765-1.387c-0.27-0.212-0.69-0.187-0.933 0.056l-2.3 2.301c-0.242 0.242-0.267 0.662-0.054 0.934l1.386 1.764c-0.43 0.744-0.764 1.549-0.991 2.4l-2.23 0.267c-0.341 0.04-0.621 0.355-0.621 0.7v3.252c0 0.344 0.279 0.657 0.621 0.699l2.231 0.268c0.228 0.848 0.561 1.652 0.991 2.396l-1.386 1.766c-0.211 0.271-0.187 0.69 0.057 0.934l2.296 2.301c0.243 0.242 0.663 0.269 0.933 0.057l1.766-1.39c0.744 0.43 1.548 0.765 2.398 0.991l0.268 2.23c0.041 0.342 0.355 0.62 0.699 0.62h3.252c0.345 0 0.659-0.278 0.699-0.62l0.268-2.23c0.851-0.228 1.655-0.562 2.398-0.991l1.766 1.387c0.271 0.212 0.69 0.187 0.933-0.056l2.299-2.301c0.244-0.242 0.269-0.662 0.056-0.935l-1.388-1.764c0.431-0.744 0.764-1.548 0.992-2.397l2.23-0.268c0.342-0.041 0.621-0.353 0.621-0.699v-3.252c1e-3 -0.346-0.277-0.659-0.62-0.7zm-11.879 8.575c-3.452 0-6.25-2.798-6.25-6.25s2.798-6.25 6.25-6.25 6.25 2.798 6.25 6.25-2.797 6.25-6.25 6.25z" fill="#80bf80" stroke="#008000" stroke-width=".67017"/>
    </g>
    <circle cx="41.196" cy="35.296" r="26.923" fill="#0b2228"/>
    <g transform="matrix(1.906,0,0,2.2011,6.1134,-3.5445)" fill="#80bf80">
     <g transform="translate(1.128 -.49296)" fill="#80bf80">
      <g stroke="#008000">
       <g fill="#008000" stroke-width=".037164">
        <path d="m17.278 9.5809c-4.2803 0-8.8874 0.73051-8.8874 2.334v2.723c0 1.9978 5.3146 2.723 8.8874 2.723 3.5728 0 8.8874-0.72519 8.8874-2.723v-2.723c-3.7e-5 -1.6035-4.6071-2.334-8.8874-2.334zm0 3.8901c-4.7048 0-7.2714-1.028-7.2714-1.556 0-0.52803 2.5666-1.556 7.2714-1.556 4.7048 0 7.2714 1.028 7.2714 1.556 0 0.52804-2.5666 1.556-7.2714 1.556z"/>
        <path d="m25.555 21.313c-2.5091 1.4388-7.5369 1.4936-8.2765 1.4936-0.73964 0-5.7675-0.05478-8.2765-1.4936-0.27158-0.15572-0.61057 0.02411-0.61057 0.32844v2.3322c0 1.7877 4.4708 2.723 8.8874 2.723 4.4166 0 8.8874-0.93528 8.8874-2.723v-2.3322c-3.7e-5 -0.30433-0.33903-0.48416-0.61057-0.32844z"/>
        <path d="m25.555 16.645c-2.5091 1.4388-7.5369 1.4936-8.2765 1.4936-0.73964 0-5.7675-0.05478-8.2765-1.4936-0.27158-0.15572-0.61057 0.02411-0.61057 0.32844v2.3322c0 1.9978 5.3146 2.723 8.8874 2.723 3.5728 0 8.8874-0.72519 8.8874-2.723v-2.3322c-3.7e-5 -0.30433-0.33903-0.48416-0.61057-0.32844z"/>
       </g>
       <g transform="matrix(.028884 0 0 .027813 9.8844 11.018)" fill="#80bf80" stroke-width="7.6149">
        <path d="m387.55 12.169c-1.522-6.081-6.666-10.574-12.896-11.266-0.332-0.038-8.258-0.903-19.774-0.903-27.512 0-65.012 4.698-87.426 27.077-41.959 41.9-26.717 108.88-26.049 111.71 1.35 5.705 5.899 10.101 11.646 11.255 0.427 0.086 10.626 2.1 25.095 2.1 23.995 0 57.967-5.361 83.543-30.904 42.05-41.993 26.542-106.35 25.861-109.06z" stroke-width="7.6099"/>
        <path d="m364.77 170.18c-2.586-2.66-5.257-5.209-8-7.651-27.105 15.739-56.4 19.606-78.627 19.606-17.156 0-29.646-2.414-31-2.687-17.188-3.451-30.9-16.704-34.936-33.769-0.403-1.706-1.516-6.756-2.472-14.154-23.495 7.42-44.882 20.53-62.505 38.655-28.385 29.195-44.017 68.22-44.017 109.89 0 48.621 20.642 76.261 38.854 100.65 8.239 11.033 16.023 21.455 22.243 33.703 3.792 7.465 7.281 14.742 10.656 21.78 9.741 20.313 18.153 37.858 29.558 51.325 13.947 16.471 30.787 24.477 51.482 24.477 40.465 0 79.929-30.918 111.12-87.06 25.307-45.548 41.658-102.41 41.658-144.87 1e-3 -41.665-15.631-80.69-44.015-109.89z"/>
       </g>
      </g>
     </g>
    </g>
   </g>
  </g>
 </g>
</svg>
