<svg enable-background="new 0 0 469.333 469.333" version="1.1" viewBox="0 0 469.33 469.33" xml:space="preserve" xmlns="http://www.w3.org/2000/svg">
    <path d="m234.67 0c-113.02 0-234.67 20.031-234.67 64v74.667c0 54.781 140.33 74.667 234.67 74.667s234.67-19.885 234.67-74.667v-74.667c-1e-3 -43.969-121.65-64-234.67-64zm0 106.67c-124.23 0-192-28.188-192-42.667s67.771-42.667 192-42.667 192 28.187 192 42.667c0 14.479-67.771 42.667-192 42.667z"/>
	<path d="m453.21 321.71c-66.253 39.454-199.01 40.955-218.54 40.955s-152.29-1.502-218.54-40.955c-7.171-4.27-16.122 0.661-16.122 9.006v63.949c0 49.021 118.05 74.667 234.67 74.667s234.67-25.646 234.67-74.667v-63.949c-1e-3 -8.345-8.952-13.276-16.122-9.006z"/>
	<path d="m453.21 193.71c-66.253 39.454-199.01 40.955-218.54 40.955s-152.29-1.502-218.54-40.955c-7.171-4.27-16.122 0.661-16.122 9.006v63.949c0 54.781 140.33 74.667 234.67 74.667s234.67-19.885 234.67-74.667v-63.949c-1e-3 -8.345-8.952-13.276-16.122-9.006z"/>
</svg>
