<svg version="1.1" viewBox="0 0 331.62 100" xmlns="http://www.w3.org/2000/svg">
 <g transform="matrix(.79556 0 0 .79556 35.294 11.462)">
  <g transform="matrix(1.257,0,0,1.257,-44.364,-14.407)">
   <rect x="1.9194e-12" y="2.8678e-12" width="331.61" height="100" ry="3.4587" fill="#023430" stroke-width=".79556"/>
  </g>
  <g transform="matrix(1.2654,0,0,1.2654,-44.381,-14.294)" fill="#00ed64" featurekey="symbolFeature-0">
   <path d="m77.1 26.7c-1.6-1-3.8-1.9-6.5-2.7-5.6-1.6-12.9-2.4-20.6-2.4s-15 0.8-20.5 2.4c-2.8 0.8-5 1.7-6.5 2.7-2 1.3-2.9 2.8-2.9 4.4v37.9c0 1.6 1 3.1 2.9 4.4 1.6 1 3.8 1.9 6.5 2.7 5.5 1.5 12.8 2.4 20.5 2.4s15-0.8 20.5-2.4c2.8-0.8 5-1.7 6.5-2.7 2-1.3 2.9-2.8 2.9-4.4v-38c0.1-1.6-0.9-3.1-2.8-4.3zm-46.8 0.3c5.2-1.5 12.2-2.3 19.7-2.3s14.4 0.8 19.7 2.3c5.7 1.6 7.2 3.3 7.2 4.1 0 0.7-1.5 2.5-7.2 4.1-5.2 1.5-12.2 2.3-19.7 2.3s-14.4-0.8-19.7-2.3c-5.7-1.6-7.2-3.3-7.2-4.1 0.1-0.8 1.6-2.5 7.2-4.1zm39.4 33.4c-5.2 1.5-12.2 2.3-19.7 2.3s-14.4-0.8-19.7-2.3c-5.7-1.6-7.2-3.3-7.2-4.1v-8.1c1.6 1 3.7 1.8 6.3 2.6 5.5 1.5 12.8 2.4 20.5 2.4s15-0.8 20.5-2.4c2.6-0.7 4.8-1.6 6.3-2.6v8.1c0.1 0.7-1.4 2.5-7 4.1z" fill="#00ed64"/>
  </g>
  <g transform="matrix(.47249 0 0 .47249 76.467 85.298)" fill="#fff" featurekey="sloganFeature-0">
   <path d="m8.38 20.2c-4 0-7.14-3.2-7.14-7.2s3.14-7.2 7.14-7.2 7.16 3.2 7.16 7.2-3.16 7.2-7.16 7.2zm0-1.32c3.24 0 5.72-2.58 5.72-5.88s-2.48-5.88-5.72-5.88-5.72 2.58-5.72 5.88 2.48 5.88 5.72 5.88zm21.283-7.86c0 2.22-1.14 4.28-3.5 4.84l3.18 4.14h-1.7l-3.06-3.98h-3.5v3.98h-1.4v-14h5.1c3.3 0 4.88 2.38 4.88 5.02zm-8.58-3.72v7.42h3.62c2.52 0 3.58-1.9 3.58-3.7s-1.06-3.72-3.58-3.72zm26.103-1.5h0.2v14.2h-1.38v-10.42l-5.36 7.34h-0.12l-5.36-7.3v10.38h-1.38v-14.2h0.18l6.62 8.9zm9.603 7.2v1.24h-4.7v-1.24zm6.103 5.68h6.18l-0.1 1.32h-7.48v-14h1.4zm9.683 1.32v-14h1.4v14zm14.383 0-4.5-6.74-2.38 2.92v3.82h-1.4v-14h1.4v8.04l6.6-8.04h1.7l-4.98 6.12 5.2 7.88zm17.643-7v0.54h-11.46c0.18 2.96 1.88 5.36 5.42 5.36 1.84 0 3.56-0.9 4.48-2l0.88 0.88c-1.08 1.28-2.96 2.42-5.36 2.42-4.52 0-6.84-3.2-6.84-7.2 0-4.02 2.86-7.2 6.66-7.2 4 0 6.22 3.18 6.22 7.2zm-6.22-5.9c-2.8 0-4.9 2.3-5.22 5.16h10.1c-0.24-2.92-1.88-5.16-4.88-5.16zm28.006 12.9-1.36-3.16h-6.78l-1.36 3.16h-1.5l6.16-14.2h0.18l6.16 14.2zm-7.58-4.46h5.66l-2.84-6.58zm17.483-9.54c3.28 0 4.8 2.5 4.8 5.08 0 2.56-1.52 5.06-4.8 5.06h-3.7v3.86h-1.4v-14zm-0.08 8.82c2.28 0 3.46-1.76 3.46-3.74 0-2-1.18-3.76-3.46-3.76h-3.62v7.5zm9.003 5.18v-14h1.4v14zm27.526-14.2h0.2v14.2h-1.38v-10.42l-5.36 7.34h-0.12l-5.36-7.3v10.38h-1.38v-14.2h0.18l6.62 8.9zm11.483 14.4c-4 0-7.14-3.2-7.14-7.2s3.14-7.2 7.14-7.2 7.16 3.2 7.16 7.2-3.16 7.2-7.16 7.2zm0-1.32c3.24 0 5.72-2.58 5.72-5.88s-2.48-5.88-5.72-5.88-5.72 2.58-5.72 5.88 2.48 5.88 5.72 5.88zm16.563-13.08c3.08 0 5.14 1.8 5.14 5.24v8.96h-1.38v-8.68c0-2.9-1.62-4.22-3.76-4.22-1.9 0-3.88 1.6-3.88 3.94v8.96h-1.38v-14h1.38v1.72c0.82-1.12 2.14-1.92 3.88-1.92zm21.263 6.08v6.86c-1.04 0.8-2.62 1.46-4.9 1.46-4.34 0-7.22-3.2-7.22-7.2s3.04-7.2 7.2-7.2c1.9 0 3.52 0.7 4.78 1.7l-0.74 1.06c-1.1-0.9-2.54-1.44-4.04-1.44-3.24 0-5.76 2.56-5.76 5.88 0 3.34 2.36 5.86 5.78 5.86 1.36 0 2.6-0.32 3.5-0.78v-4.86h-2.96l0.1-1.34zm11.103 8.32c-4 0-7.14-3.2-7.14-7.2s3.14-7.2 7.14-7.2 7.16 3.2 7.16 7.2-3.16 7.2-7.16 7.2zm0-1.32c3.24 0 5.72-2.58 5.72-5.88s-2.48-5.88-5.72-5.88-5.72 2.58-5.72 5.88 2.48 5.88 5.72 5.88zm16.043-12.88c4.7 0 7.2 2.9 7.2 7s-2.5 7-7.2 7h-4.74v-14zm0.06 12.68c3.8 0 5.76-2.42 5.76-5.68 0-3.28-1.96-5.68-5.76-5.68h-3.4v11.36zm18.583-7.6c1.9 0.56 3.04 2.18 3.04 4.36 0 2.38-1.28 4.48-5 4.56h-5.32v-14h5.52c2.46 0 3.12 1.7 3.12 2.82 0 1.02-0.64 1.86-1.36 2.26zm-1.9-3.82h-3.98v3.5h3.56c1.62 0 2.32-0.84 2.32-1.8 0-0.68-0.38-1.7-1.9-1.7zm-0.22 11.42c2.62 0 3.74-1.42 3.74-3.24 0-1.98-1.06-3.5-3.6-3.5h-3.9v6.74zm18.486-11.36v4.92h4.6v1.32h-4.6v6.44h-1.4v-14h7.9l0.1 1.32zm17.043 12.88c-4 0-7.14-3.2-7.14-7.2s3.14-7.2 7.14-7.2 7.16 3.2 7.16 7.2-3.16 7.2-7.16 7.2zm0-1.32c3.24 0 5.72-2.58 5.72-5.88s-2.48-5.88-5.72-5.88-5.72 2.58-5.72 5.88 2.48 5.88 5.72 5.88zm16.303-13.08c1.1 0 2.1 0.34 3.08 1.06l-0.7 1.06c-0.74-0.54-1.56-0.82-2.4-0.82-2.22 0-3.6 2.04-3.6 5.3v7.6h-1.38v-14h1.38v2.06c0.76-1.42 2-2.26 3.62-2.26zm24.506 5.22c0 2.22-1.14 4.28-3.5 4.84l3.18 4.14h-1.7l-3.06-3.98h-3.5v3.98h-1.4v-14h5.1c3.3 0 4.88 2.38 4.88 5.02zm-8.58-3.72v7.42h3.62c2.52 0 3.58-1.9 3.58-3.7s-1.06-3.72-3.58-3.72zm21.843-1.3h1.38v14h-1.38v-1.76c-0.8 1.22-2.26 1.96-4.14 1.96-3.1 0-5.16-1.76-5.16-5.04v-9.16h1.38v8.76c0 2.8 1.66 4.14 3.78 4.14 1.96 0 4.14-1.22 4.14-3.56zm5.323 12.52c0.94 0.88 2.7 1.68 4.46 1.68 2.7 0 4.52-1.46 4.52-3.64 0-1.76-0.78-2.76-4.06-4.58-2.46-1.36-3.08-1.86-3.08-2.88 0-1.1 1.08-1.98 2.68-1.98 0.96 0 2.14 0.42 2.84 0.86l0.72-1.12c-0.94-0.6-2.32-1.06-3.54-1.06-2.48 0-4.18 1.42-4.18 3.32 0 1.68 0.86 2.52 3.56 3.96 2.62 1.38 3.56 2.3 3.56 3.48 0 1.34-1.26 2.26-3 2.26-1.42 0-2.88-0.7-3.68-1.42zm21.563-11.2h-4.24v12.68h-1.4v-12.68h-4.26l0.1-1.32h9.7z" fill="#fff"/>
  </g>
  <g transform="matrix(.52242 0 0 .80647 73.699 4.8022)" fill="#fff" fill-rule="evenodd" font-size="9pt" stroke="#000" stroke-linecap="round" stroke-width=".25mm">
   <path d="m51.201 11.3-5.5 11.1a12.378 12.378 0 0 0-5.499-4.038q-2.146-0.845-4.853-1.202a32.581 32.581 0 0 0-4.248-0.26q-5 0-9.05 2.95a18.293 18.293 0 0 0-4.83 5.31 23.613 23.613 0 0 0-1.52 2.94 27.482 27.482 0 0 0-1.977 7.211 35.685 35.685 0 0 0-0.323 4.889 57.303 57.303 0 0 0 0.351 6.523q0.377 3.279 1.156 6.105a32.216 32.216 0 0 0 0.468 1.547q1.628 4.925 4.376 7.913a14.727 14.727 0 0 0 1.224 1.187q3.625 3.125 8.425 3.125 4.497 0 7.496-1.26a9.701 9.701 0 0 0 3.379-2.29 11.039 11.039 0 0 0 2.33-3.967q0.591-1.689 0.831-3.764a26.322 26.322 0 0 0 0.164-3.019 20.494 20.494 0 0 0-7e-3 -0.469q-0.018-0.806-0.093-2.231h-14.3v-11h26.1q0.6 6.2 0.6 9.7a49.644 49.644 0 0 1-0.741 8.843q-0.895 4.94-2.871 8.91a26.637 26.637 0 0 1-2.188 3.647 17.373 17.373 0 0 1-7.963 6.011q-3.046 1.208-6.894 1.717a46.134 46.134 0 0 1-6.043 0.372 27.009 27.009 0 0 1-10.823-2.151 26.033 26.033 0 0 1-4.202-2.299 27.654 27.654 0 0 1-7.908-8.223 36.037 36.037 0 0 1-2.492-4.652 41.497 41.497 0 0 1-2.946-9.834q-0.777-4.431-0.826-9.467a69.845 69.845 0 0 1-3e-3 -0.674 45.518 45.518 0 0 1 1.115-10.27 37.146 37.146 0 0 1 2.835-8.03 31.978 31.978 0 0 1 6.323-8.867 29.393 29.393 0 0 1 4.652-3.708 28.574 28.574 0 0 1 14.726-4.503 34.627 34.627 0 0 1 1.249-0.022 64.868 64.868 0 0 1 4.116 0.123q3.43 0.218 6.009 0.827a36.926 36.926 0 0 1 2.337 0.628q2.375 0.728 3.888 1.622 2.2 1.3 3.95 3zm197.9 31.8v32.9h-12.8v-31.8a16.314 16.314 0 0 0-0.213-2.718q-0.252-1.491-0.803-2.695a8.271 8.271 0 0 0-0.784-1.362 5.845 5.845 0 0 0-4.248-2.463 8.689 8.689 0 0 0-1.052-0.062q-2.35 0-4.375 1.2t-3.225 3.325a9.365 9.365 0 0 0-1.181 4.116 11.288 11.288 0 0 0-0.019 0.659v31.8h-12.8v-49.8h11.6l0.25 6.55a17.443 17.443 0 0 1 5.339-5.298q3.456-2.136 7.956-2.411a22.183 22.183 0 0 1 1.355-0.041 18.633 18.633 0 0 1 4.493 0.509 12.067 12.067 0 0 1 6.732 4.216q3.775 4.725 3.775 13.375zm53.3 32.9h-18.9v-69.7h18.6a43.571 43.571 0 0 1 8.577 0.767q13.383 2.7 14.764 14.899a26.083 26.083 0 0 1 0.159 2.934q0 4.35-2.05 8.3t-6.1 5.9a16.746 16.746 0 0 1 4.266 1.62 12.813 12.813 0 0 1 4.484 4.105 16.261 16.261 0 0 1 2.263 5.28q0.637 2.631 0.637 5.795a22.565 22.565 0 0 1-0.843 6.338 16.674 16.674 0 0 1-5.682 8.512 20.179 20.179 0 0 1-6.04 3.25q-5.532 1.938-13.611 1.998a69.906 69.906 0 0 1-0.524 2e-3zm61.1-29.6v-2.3a13.674 13.674 0 0 0-0.213-2.491q-0.258-1.394-0.831-2.493a6.884 6.884 0 0 0-0.931-1.366 5.632 5.632 0 0 0-2.096-1.457q-1.89-0.793-4.829-0.793-3.9 0-7.625 1.325a20.288 20.288 0 0 0-2.232 0.937q-2.068 1.028-3.243 2.338l-4-9.6q3.4-2.3 8.45-3.9a34.873 34.873 0 0 1 9.335-1.575 39.772 39.772 0 0 1 1.415-0.025 37.743 37.743 0 0 1 4.372 0.237q2.171 0.254 3.974 0.78a15.965 15.965 0 0 1 2.979 1.183 13.545 13.545 0 0 1 3.556 2.65 11.86 11.86 0 0 1 2.319 3.55q1.401 3.297 1.647 7.884a37.611 37.611 0 0 1 0.053 2.016v32.7h-10.7l-0.9-7.1q-2.65 4.3-6.275 6.4a15.54 15.54 0 0 1-5.818 1.934 19.891 19.891 0 0 1-2.607 0.166 16.425 16.425 0 0 1-3.476-0.349 11.822 11.822 0 0 1-4.024-1.651q-3.05-2-4.575-5.4a17.437 17.437 0 0 1-1.405-5.301 21.425 21.425 0 0 1-0.12-2.299 11.806 11.806 0 0 1 1.019-4.723 16.096 16.096 0 0 1 1.406-2.552q2.425-3.625 8.625-6.175t16.75-2.55zm-219.8 8.8h-30a20.34 20.34 0 0 0 0.514 3.752q0.512 2.124 1.501 3.77a10.609 10.609 0 0 0 1.36 1.803q3.075 3.275 9.025 3.275a16.07 16.07 0 0 0 3.525-0.411 22.059 22.059 0 0 0 3.125-0.964 19.594 19.594 0 0 0 2.199-1.001q1.07-0.575 1.891-1.227a8.737 8.737 0 0 0 1.16-1.097l4 9.5a26.597 26.597 0 0 1-8.592 3.667q-4.275 1.033-9.408 1.033-6.93 0-11.785-2.538a18.225 18.225 0 0 1-1.515-0.887q-5.25-3.425-7.675-9.175a30.628 30.628 0 0 1-2.126-8.088 39.035 39.035 0 0 1-0.299-4.912 34.802 34.802 0 0 1 1.012-8.527 29.922 29.922 0 0 1 1.713-4.948q2.725-6.075 7.975-9.65a20.528 20.528 0 0 1 8.993-3.351 26.647 26.647 0 0 1 3.507-0.224q10.8 0 15.45 6.225 3.31 4.432 4.264 11.969a52.775 52.775 0 0 1 0.386 6.606 68.695 68.695 0 0 1-0.047 2.466q-0.047 1.3-0.141 2.741a112.22 112.22 0 0 1-0.012 0.193zm51.9 0h-30a20.34 20.34 0 0 0 0.514 3.752q0.512 2.124 1.501 3.77a10.609 10.609 0 0 0 1.36 1.803q3.075 3.275 9.025 3.275a16.07 16.07 0 0 0 3.525-0.411 22.059 22.059 0 0 0 3.125-0.964 19.594 19.594 0 0 0 2.199-1.001q1.07-0.575 1.891-1.227a8.737 8.737 0 0 0 1.16-1.097l4 9.5a26.597 26.597 0 0 1-8.592 3.667q-4.275 1.033-9.408 1.033-6.93 0-11.785-2.538a18.225 18.225 0 0 1-1.515-0.887q-5.25-3.425-7.675-9.175a30.628 30.628 0 0 1-2.126-8.088 39.035 39.035 0 0 1-0.299-4.912 34.802 34.802 0 0 1 1.012-8.527 29.922 29.922 0 0 1 1.713-4.948q2.725-6.075 7.975-9.65a20.528 20.528 0 0 1 8.993-3.351 26.647 26.647 0 0 1 3.507-0.224q10.8 0 15.45 6.225 3.31 4.432 4.264 11.969a52.775 52.775 0 0 1 0.386 6.606 68.695 68.695 0 0 1-0.047 2.466q-0.047 1.3-0.141 2.741a112.22 112.22 0 0 1-0.012 0.193zm308.7 0h-30a20.34 20.34 0 0 0 0.514 3.752q0.512 2.124 1.501 3.77a10.609 10.609 0 0 0 1.36 1.803q3.075 3.275 9.025 3.275a16.07 16.07 0 0 0 3.525-0.411 22.059 22.059 0 0 0 3.125-0.964 19.594 19.594 0 0 0 2.199-1.001q1.07-0.575 1.891-1.227a8.737 8.737 0 0 0 1.16-1.097l4 9.5a26.597 26.597 0 0 1-8.592 3.667q-4.275 1.033-9.408 1.033-6.93 0-11.785-2.538a18.225 18.225 0 0 1-1.515-0.887q-5.25-3.425-7.675-9.175a30.628 30.628 0 0 1-2.126-8.088 39.035 39.035 0 0 1-0.299-4.912 34.802 34.802 0 0 1 1.012-8.527 29.922 29.922 0 0 1 1.713-4.948q2.725-6.075 7.975-9.65a20.528 20.528 0 0 1 8.993-3.351 26.647 26.647 0 0 1 3.507-0.224q10.8 0 15.45 6.225 3.31 4.432 4.264 11.969a52.775 52.775 0 0 1 0.386 6.606 68.695 68.695 0 0 1-0.047 2.466q-0.047 1.3-0.141 2.741a112.22 112.22 0 0 1-0.012 0.193zm12.2 20.8v-76h12.2v76zm-450.4 0v-49.8h11.3l0.6 8.8a16.512 16.512 0 0 1 4.73-6.362 19.396 19.396 0 0 1 0.32-0.263 11.47 11.47 0 0 1 3.851-1.989q2.546-0.786 5.899-0.786 2.5 0 4.6 0.8l-2.8 13.1q-0.85-0.85-2.025-1.225a7.207 7.207 0 0 0-1.085-0.25q-0.807-0.125-1.79-0.125a13.981 13.981 0 0 0-2.876 0.282 10.454 10.454 0 0 0-3.149 1.193q-2.387 1.394-3.657 3.213a8.4 8.4 0 0 0-0.143 0.212 12.656 12.656 0 0 0-0.588 0.987q-0.54 1.017-0.656 1.801a2.817 2.817 0 0 0-0.031 0.412v30zm322.4 0v-49.8h11.3l0.6 8.8a16.512 16.512 0 0 1 4.73-6.362 19.396 19.396 0 0 1 0.32-0.263 11.47 11.47 0 0 1 3.851-1.989q2.546-0.786 5.899-0.786 2.5 0 4.6 0.8l-2.8 13.1q-0.85-0.85-2.025-1.225a7.207 7.207 0 0 0-1.085-0.25q-0.807-0.125-1.79-0.125a13.981 13.981 0 0 0-2.876 0.282 10.454 10.454 0 0 0-3.149 1.193q-2.387 1.394-3.657 3.213a8.4 8.4 0 0 0-0.143 0.212 12.656 12.656 0 0 0-0.588 0.987q-0.54 1.017-0.656 1.801a2.817 2.817 0 0 0-0.031 0.412v30zm38.2 0v-49.8h11.3l0.6 8.8a16.512 16.512 0 0 1 4.73-6.362 19.396 19.396 0 0 1 0.32-0.263 11.47 11.47 0 0 1 3.851-1.989q2.546-0.786 5.899-0.786 2.5 0 4.6 0.8l-2.8 13.1q-0.85-0.85-2.025-1.225a7.207 7.207 0 0 0-1.085-0.25q-0.807-0.125-1.79-0.125a13.981 13.981 0 0 0-2.876 0.282 10.454 10.454 0 0 0-3.149 1.193q-2.387 1.394-3.657 3.213a8.4 8.4 0 0 0-0.143 0.212 12.656 12.656 0 0 0-0.588 0.987q-0.54 1.017-0.656 1.801a2.817 2.817 0 0 0-0.031 0.412v30zm-123.5-31.2h-7.1v21.1h7.7a20.961 20.961 0 0 0 3.616-0.294q2.031-0.356 3.673-1.143a11.269 11.269 0 0 0 1.461-0.838 6.853 6.853 0 0 0 2.509-3.236q0.841-2.108 0.841-5.189 0-6.15-3.475-8.275a13.166 13.166 0 0 0-3.546-1.471q-2.49-0.654-5.679-0.654zm-1.1-28.6h-6v19.3h8.1q2.887 0 4.798-1.262a6.549 6.549 0 0 0 0.402-0.288q2-1.55 2.9-3.875t0.9-4.775a12.62 12.62 0 0 0-0.246-2.579q-0.626-2.998-2.854-4.471a11.648 11.648 0 0 0-3.644-1.561q-1.964-0.489-4.356-0.489zm-188.5 31.2h17.6a46.628 46.628 0 0 0-0.111-3.341q-0.338-4.692-1.714-6.784a6.082 6.082 0 0 0-2.068-1.992q-1.374-0.783-3.207-0.783a10.447 10.447 0 0 0-3.332 0.506 8.502 8.502 0 0 0-4.193 3.094 14.205 14.205 0 0 0-2.216 4.566q-0.545 1.882-0.718 4.095a25.495 25.495 0 0 0-0.041 0.639zm51.9 0h17.6a46.628 46.628 0 0 0-0.111-3.341q-0.338-4.692-1.714-6.784a6.082 6.082 0 0 0-2.068-1.992q-1.374-0.783-3.207-0.783a10.447 10.447 0 0 0-3.332 0.506 8.502 8.502 0 0 0-4.193 3.094 14.205 14.205 0 0 0-2.216 4.566q-0.545 1.882-0.718 4.095a25.495 25.495 0 0 0-0.041 0.639zm308.7 0h17.6a46.628 46.628 0 0 0-0.111-3.341q-0.338-4.692-1.714-6.784a6.082 6.082 0 0 0-2.068-1.992q-1.374-0.783-3.207-0.783a10.447 10.447 0 0 0-3.332 0.506 8.502 8.502 0 0 0-4.193 3.094 14.205 14.205 0 0 0-2.216 4.566q-0.545 1.882-0.718 4.095a25.495 25.495 0 0 0-0.041 0.639zm-110.7 13.9v-7.1q-0.689-0.098-2.344-0.1a56.979 56.979 0 0 0-0.056 0 26.066 26.066 0 0 0-4.922 0.445 20.489 20.489 0 0 0-4.103 1.23 8.24 8.24 0 0 0-1.922 1.106 5.228 5.228 0 0 0-2.053 4.319 12.621 12.621 0 0 0 0.117 1.79q0.302 2.097 1.375 3.202a3.79 3.79 0 0 0 0.083 0.083q1.187 1.15 3.383 1.433a12.087 12.087 0 0 0 1.542 0.092q2.3 0 4.85-1.85t4.05-4.65z" fill="#fff" vector-effect="non-scaling-stroke"/>
  </g>
 </g>
</svg>
