<svg width="106" height="105.95" version="1.1" viewBox="0 0 37.389 37.376" xmlns="http://www.w3.org/2000/svg">
 <g transform="matrix(.088354 0 0 .088354 -.0022624 -.01009)" fill="#48d1cc">
  <path d="m38.547 244.66c-1.7461 0-3.4922-0.66797-4.8242-2-2.668-2.668-2.668-6.9883 0-9.6524l201.6-201.6c2.668-2.6641 6.9883-2.6641 9.6562 0 2.6641 2.668 2.6641 6.9883 0 9.6523l-201.6 201.6c-1.332 1.332-3.082 2-4.8281 2z"/>
  <path d="m82.902 289.98c-1.7461 0-3.4961-0.66796-4.8281-2-2.6641-2.668-2.6641-6.9883 0-9.6523l202.09-202.09c2.668-2.6641 6.9883-2.6641 9.6523 0 2.668 2.668 2.668 6.9883 0 9.6562l-202.09 202.09c-1.332 1.332-3.0781 2-4.8242 2z"/>
  <path d="m131.81 338.9c-1.7422 0-3.4922-0.66797-4.8242-2.0039-2.668-2.6641-2.668-6.9844 0-9.6523l202.09-202.08c2.6641-2.6641 6.9883-2.6641 9.6523 0 2.668 2.668 2.668 6.9883 0 9.6523l-202.09 202.08c-1.332 1.3359-3.0781 2.0039-4.8281 2.0039z"/>
  <path d="m176.66 383.73c-1.7461 0-3.4961-0.66406-4.8281-2-2.6641-2.6641-2.6641-6.9844 0-9.6523l202.09-202.09c2.668-2.6641 6.9883-2.6641 9.6524 0 2.668 2.668 2.668 6.9883 0 9.6524l-202.09 202.09c-1.332 1.3359-3.0781 2-4.8242 2z"/>
  <path d="m386.89 255.02c-1.7461 0-3.4922-0.66797-4.8281-2l-210.23-210.23c-2.668-2.6641-2.668-6.9883 0-9.6523 2.6641-2.6641 6.9844-2.6641 9.6523 0l210.23 210.23c2.6641 2.6641 2.6641 6.9844 0 9.6524-1.3359 1.332-3.082 2-4.8281 2z"/>
  <path d="m342.05 299.86c-1.7461 0-3.4922-0.66796-4.8242-2l-210.23-210.23c-2.668-2.6641-2.668-6.9883 0-9.6523 2.6641-2.668 6.9844-2.668 9.6524 0l210.23 210.23c2.6641 2.6641 2.6641 6.9883 0 9.6523-1.3359 1.332-3.082 2-4.8281 2z"/>
  <path d="m293.14 348.78c-1.7461 0-3.4922-0.66797-4.8242-2l-210.23-210.23c-2.668-2.668-2.668-6.9883 0-9.6524 2.6641-2.668 6.9883-2.668 9.6523 0l210.23 210.23c2.6641 2.6641 2.6641 6.9844 0 9.6523-1.3359 1.332-3.082 2-4.8281 2z"/>
  <path d="m248.3 393.61c-1.7461 0-3.4922-0.66797-4.8242-2l-209.76-209.76c-2.6641-2.6641-2.6641-6.9883 0-9.6524 2.668-2.6641 6.9883-2.6641 9.6523 0l209.76 209.76c2.6641 2.6641 2.6641 6.9844 0 9.6523-1.3359 1.332-3.0781 2-4.8281 2z"/>
  <path d="m252.38 48.113c-6.1797 0-12.359-2.3516-17.062-7.0547-9.4062-9.4023-9.4062-24.707 0-34.109 9.1016-9.1094 25-9.1172 34.113 0 9.4102 9.4062 9.4102 24.707 0 34.109-4.6992 4.7031-10.879 7.0547-17.051 7.0547zm0-34.578c-2.8008 0-5.4297 1.0898-7.4062 3.0664-4.082 4.082-4.082 10.723 0 14.805 3.9453 3.9453 10.84 3.9531 14.805 0 1.9727-1.9766 3.0664-4.6055 3.0664-7.4023 0-2.793-1.0938-5.4258-3.0664-7.4023-1.9805-1.9766-4.6055-3.0664-7.3984-3.0664z"/>
  <path d="m297.21 92.949c-6.1719 0-12.352-2.3516-17.055-7.0547-9.4062-9.4023-9.4062-24.707 0-34.109 9.4023-9.4062 24.707-9.4062 34.105 0 9.4102 9.4062 9.4102 24.707 0 34.109-4.6953 4.7031-10.879 7.0547-17.051 7.0547zm0-34.57c-2.6797 0-5.3594 1.0234-7.4023 3.0625-4.0781 4.0781-4.0781 10.723 0 14.801 4.082 4.082 10.723 4.082 14.801 0 4.082-4.0781 4.082-10.723 0-14.801-2.0391-2.043-4.7188-3.0625-7.3984-3.0625z"/>
  <path d="m346.13 141.87c-6.1758 0-12.355-2.3516-17.055-7.0547-9.4062-9.4062-9.4062-24.707 0-34.113 9.3945-9.3984 24.707-9.4102 34.113 0 9.4062 9.4062 9.4062 24.711 0 34.113-4.6992 4.7031-10.879 7.0547-17.059 7.0547zm0-34.582c-2.7969 0-5.4219 1.0938-7.4024 3.0664-4.0781 4.0859-4.0781 10.727 0 14.809 3.9727 3.9648 10.859 3.9492 14.809 0 4.0781-4.082 4.0781-10.723 0-14.809-1.9805-1.9766-4.6055-3.0664-7.4062-3.0664z"/>
  <path d="m390.97 186.7c-6.1719 0-12.352-2.3516-17.055-7.0547-9.4062-9.4024-9.4062-24.707 0-34.109 9.4024-9.4062 24.707-9.4062 34.105 0 9.4102 9.4062 9.4102 24.707 0 34.109-4.6992 4.7031-10.879 7.0547-17.051 7.0547zm0-34.57c-2.6797 0-5.3594 1.0195-7.4023 3.0586-4.0781 4.082-4.0781 10.723 0 14.805 4.082 4.082 10.723 4.082 14.801 0 4.082-4.082 4.082-10.723 0-14.805-2.0391-2.0391-4.7188-3.0586-7.3984-3.0586z"/>
  <path d="m24.109 276.38c-6.1758 0-12.355-2.3477-17.055-7.0547-9.4062-9.4024-9.4062-24.707 0-34.109 9.4023-9.4062 24.707-9.4062 34.105 0 9.4102 9.4062 9.4102 24.711 0 34.109-4.6992 4.707-10.879 7.0547-17.051 7.0547zm0-34.57c-2.6797 0-5.3633 1.0195-7.4023 3.0625-4.0781 4.0781-4.0781 10.723 0 14.801 4.082 4.082 10.723 4.082 14.801 0 4.082-4.0781 4.082-10.723 0-14.801-2.0391-2.043-4.7188-3.0625-7.3984-3.0625z"/>
  <path d="m68.949 321.22c-6.1758 0-12.355-2.3516-17.055-7.0547-4.5586-4.5508-7.0664-10.609-7.0664-17.055 0-6.4414 2.5078-12.5 7.0664-17.059 9.1055-9.1055 25-9.1094 34.105 4e-3 9.4062 9.4062 9.4062 24.707 0 34.109-4.6992 4.7031-10.879 7.0547-17.051 7.0547zm0-34.574c-2.7969 0-5.4219 1.0859-7.4023 3.0664s-3.0664 4.6055-3.0664 7.3984c0 2.7969 1.0859 5.4258 3.0664 7.4023 4.082 4.0859 10.719 4.082 14.801 4e-3 4.082-4.082 4.082-10.723 0-14.805-1.9805-1.9805-4.6055-3.0664-7.3984-3.0664z"/>
  <path d="m117.86 370.13c-6.1719 0-12.352-2.3516-17.051-7.0547-9.4062-9.4023-9.4062-24.707 0-34.109 9.3984-9.4062 24.707-9.4062 34.105 0 9.4062 9.4023 9.4062 24.707 0 34.109-4.6992 4.707-10.879 7.0547-17.055 7.0547zm0-34.57c-2.6797 0-5.3594 1.0234-7.3984 3.0625-4.082 4.0781-4.082 10.723 0 14.801 4.082 4.082 10.719 4.082 14.801 0 4.0781-4.0781 4.0781-10.723 0-14.801-2.0391-2.043-4.7188-3.0625-7.4023-3.0625z"/>
  <path d="m162.7 414.97c-6.1758 0-12.355-2.3516-17.055-7.0547-4.5586-4.5508-7.0664-10.609-7.0664-17.055 0-6.4414 2.5078-12.5 7.0664-17.059 9.4023-9.4024 24.707-9.4062 34.105 0 9.4062 9.4102 9.4062 24.711 0 34.113-4.6992 4.7031-10.879 7.0547-17.051 7.0547zm0-34.582c-2.7969 0-5.4219 1.0938-7.4023 3.0703-1.9805 1.9766-3.0664 4.6094-3.0664 7.4023 0 2.7969 1.0859 5.4219 3.0664 7.3984 3.9609 3.9609 10.84 3.957 14.801 4e-3 4.082-4.0781 4.082-10.723 0-14.805-1.9805-1.9766-4.6055-3.0703-7.3984-3.0703z"/>
  <path d="m399.12 284.53c-6.1719 0-12.352-2.3477-17.055-7.0508-9.4062-9.4062-9.4062-24.711 0-34.109 9.4023-9.4102 24.711-9.4102 34.109 0 9.4062 9.4024 9.4062 24.707 0 34.109-4.7031 4.7031-10.883 7.0508-17.055 7.0508zm0-34.57c-2.6797 0-5.3594 1.0234-7.3984 3.0625-4.082 4.0781-4.082 10.723 0 14.801 4.0781 4.082 10.719 4.082 14.797 0 4.082-4.0781 4.082-10.723 0-14.801-2.0391-2.0391-4.7188-3.0625-7.3984-3.0625z"/>
  <path d="m354.28 329.38c-6.1719 0-12.352-2.3516-17.051-7.0547-9.4102-9.4062-9.4102-24.711 0-34.113 9.3984-9.4062 24.707-9.4062 34.105 0 4.5586 4.5547 7.0664 10.609 7.0664 17.055s-2.5078 12.5-7.0664 17.062c-4.7031 4.6992-10.883 7.0508-17.055 7.0508zm-7.3984-16.707c4.0781 4.0781 10.719 4.0781 14.801 0 1.9766-1.9805 3.0664-4.6094 3.0664-7.4062 0-2.7969-1.0898-5.4219-3.0664-7.3984-4.082-4.0859-10.723-4.0859-14.801-4e-3 -4.082 4.082-4.082 10.723 0 14.809z"/>
  <path d="m305.37 378.29c-6.1719 0-12.352-2.3477-17.051-7.0508-9.4062-9.4062-9.4062-24.711 0-34.109 9.3984-9.4102 24.707-9.4102 34.105 0 9.4062 9.4023 9.4062 24.707 0 34.109-4.6992 4.7031-10.879 7.0508-17.055 7.0508zm0-34.57c-2.6797 0-5.3594 1.0234-7.3984 3.0625-4.082 4.0781-4.082 10.723 0 14.801 4.082 4.082 10.719 4.082 14.801 0 4.0781-4.0781 4.0781-10.723 0-14.801-2.043-2.0391-4.7226-3.0625-7.4023-3.0625z"/>
  <path d="m260.53 423.14c-6.4375 0-12.5-2.5117-17.051-7.0664-9.4102-9.4102-9.4102-24.711 0-34.109 9.3984-9.4102 24.707-9.4102 34.105 0 4.5586 4.5508 7.0664 10.609 7.0664 17.055 0 6.4414-2.5078 12.5-7.0664 17.055-4.5547 4.5547-10.613 7.0664-17.055 7.0664zm0-34.59c-2.793 0-5.4219 1.0898-7.3984 3.0664-1.9727 1.9766-3.0664 4.6055-3.0664 7.4023 0 2.7969 1.0938 5.4258 3.0664 7.4024 3.957 3.957 10.84 3.957 14.801 0 1.9766-1.9805 3.0664-4.6055 3.0664-7.4024s-1.0898-5.4219-3.0664-7.3984c-1.9805-1.9805-4.6094-3.0703-7.4024-3.0703z"/>
  <path d="m162.7 48.113c-6.1758 0-12.348-2.3516-17.055-7.0508v-0.0039c-4.5586-4.5547-7.0664-10.613-7.0664-17.055 0-6.4453 2.5078-12.5 7.0664-17.059 9.1055-9.1055 25-9.1094 34.105 0.00391 9.4062 9.4062 9.4062 24.707 0 34.109-4.6992 4.7031-10.879 7.0547-17.051 7.0547zm0-34.578c-2.7969 0-5.4219 1.0898-7.4023 3.0664-1.9805 1.9805-3.0664 4.6094-3.0664 7.4023 0 2.7969 1.0859 5.4219 3.0664 7.3984v0.0039c3.9609 3.9531 10.84 3.9531 14.801 0 1.9727-1.9766 3.0664-4.6055 3.0664-7.4023 0-2.793-1.0938-5.4258-3.0664-7.4023-1.9805-1.9766-4.6055-3.0664-7.3984-3.0664z"/>
  <path d="m117.86 92.949c-6.1719 0-12.352-2.3516-17.051-7.0547-9.4062-9.4023-9.4062-24.707 0-34.109 9.3984-9.4062 24.707-9.4062 34.105 0 9.4062 9.4062 9.4062 24.707 0 34.109-4.6992 4.7031-10.879 7.0547-17.055 7.0547zm0-34.57c-2.6797 0-5.3594 1.0234-7.3984 3.0625-4.082 4.0781-4.082 10.723 0 14.801 4.082 4.082 10.719 4.082 14.801 0 4.0781-4.0781 4.0781-10.723 0-14.801-2.0391-2.043-4.7188-3.0625-7.4023-3.0625z"/>
  <path d="m68.949 141.87c-6.1758 0-12.348-2.3516-17.055-7.0508v-4e-3c-4.5586-4.5586-7.0664-10.613-7.0664-17.059 0-6.4414 2.5078-12.5 7.0664-17.059 9.4023-9.3984 24.707-9.4023 34.105 4e-3 9.4062 9.4062 9.4062 24.711 0 34.113-4.6992 4.7031-10.879 7.0547-17.051 7.0547zm0-34.574c-2.6797 0-5.3633 1.0195-7.4023 3.0586-1.9805 1.9805-3.0664 4.6133-3.0664 7.4062 0 2.7969 1.0859 5.4219 3.0664 7.3984v4e-3c4.082 4.082 10.719 4.082 14.801 0s4.082-10.723 0-14.809c-2.0391-2.0391-4.7188-3.0586-7.3984-3.0586z"/>
  <path d="m24.109 186.7c-6.1758 0-12.355-2.3516-17.055-7.0547-9.4062-9.4024-9.4062-24.707 0-34.109 9.4023-9.4062 24.707-9.4062 34.105 0 9.4102 9.4062 9.4102 24.707 0 34.109-4.6992 4.7031-10.879 7.0547-17.051 7.0547zm0-34.57c-2.6797 0-5.3633 1.0195-7.4023 3.0586-4.0781 4.082-4.0781 10.723 0 14.805 4.082 4.082 10.723 4.082 14.801 0 4.082-4.082 4.082-10.723 0-14.805-2.0391-2.0391-4.7188-3.0586-7.3984-3.0586z"/>
 </g>
 <g transform="matrix(.98529 0 0 1.0605 .55888 -.025544)">
  <rect x="10.178" y="14.25" width="16.467" height="7.9451" fill="#0ff"/>
  <ellipse transform="matrix(.87405 0 0 .87405 2.7277 2.229)" cx="18.056" cy="10.338" rx="9.0429" ry="2.143" fill="#0ff"/>
  <g transform="matrix(.037872 0 0 .036469 9.5192 9.0879)">
   <path d="m234.67 0c-113.02 0-234.67 20.031-234.67 64v74.667c0 54.781 140.33 74.667 234.67 74.667s234.67-19.885 234.67-74.667v-74.667c-1e-3 -43.969-121.65-64-234.67-64zm0 106.67c-124.23 0-192-28.188-192-42.667s67.771-42.667 192-42.667 192 28.187 192 42.667c0 14.479-67.771 42.667-192 42.667z"/>
   <path d="m453.21 321.71c-66.253 39.454-199.01 40.955-218.54 40.955s-152.29-1.502-218.54-40.955c-7.171-4.27-16.122 0.661-16.122 9.006v63.949c0 49.021 118.05 74.667 234.67 74.667s234.67-25.646 234.67-74.667v-63.949c-1e-3 -8.345-8.952-13.276-16.122-9.006z"/>
   <path d="m453.21 193.71c-66.253 39.454-199.01 40.955-218.54 40.955s-152.29-1.502-218.54-40.955c-7.171-4.27-16.122 0.661-16.122 9.006v63.949c0 54.781 140.33 74.667 234.67 74.667s234.67-19.885 234.67-74.667v-63.949c-1e-3 -8.345-8.952-13.276-16.122-9.006z"/>
  </g>
  <g transform="matrix(.019402 0 0 .018683 11.965 15.225)" fill="#0ff" stroke="#000" stroke-width="14.307">
   <g transform="matrix(1.4887,0,0,1.4887,-49.078,-251.56)" fill="#0ff" stroke="#000" stroke-width="7.6149">
    <path d="m387.55 12.169c-1.522-6.081-6.666-10.574-12.896-11.266-0.332-0.038-8.258-0.903-19.774-0.903-27.512 0-65.012 4.698-87.426 27.077-41.959 41.9-26.717 108.88-26.049 111.71 1.35 5.705 5.899 10.101 11.646 11.255 0.427 0.086 10.626 2.1 25.095 2.1 23.995 0 57.967-5.361 83.543-30.904 42.05-41.993 26.542-106.35 25.861-109.06z" stroke-width="7.6099"/>
    <path d="m364.77 170.18c-2.586-2.66-5.257-5.209-8-7.651-27.105 15.739-56.4 19.606-78.627 19.606-17.156 0-29.646-2.414-31-2.687-17.188-3.451-30.9-16.704-34.936-33.769-0.403-1.706-1.516-6.756-2.472-14.154-23.495 7.42-44.882 20.53-62.505 38.655-28.385 29.195-44.017 68.22-44.017 109.89 0 48.621 20.642 76.261 38.854 100.65 8.239 11.033 16.023 21.455 22.243 33.703 3.792 7.465 7.281 14.742 10.656 21.78 9.741 20.313 18.153 37.858 29.558 51.325 13.947 16.471 30.787 24.477 51.482 24.477 40.465 0 79.929-30.918 111.12-87.06 25.307-45.548 41.658-102.41 41.658-144.87 1e-3 -41.665-15.631-80.69-44.015-109.89z"/>
   </g>
  </g>
 </g>
</svg>
