<?xml version="1.0" encoding="UTF-8"?>
<svg width="104.41" height="105.67" version="1.1" viewBox="0 0 36.832 37.278" xmlns="http://www.w3.org/2000/svg" xmlns:cc="http://creativecommons.org/ns#" xmlns:dc="http://purl.org/dc/elements/1.1/" xmlns:rdf="http://www.w3.org/1999/02/22-rdf-syntax-ns#">
 <metadata>
  <rdf:RDF>
   <cc:Work rdf:about="">
    <dc:format>image/svg+xml</dc:format>
    <dc:type rdf:resource="http://purl.org/dc/dcmitype/StillImage"/>
    <dc:title/>
   </cc:Work>
  </rdf:RDF>
 </metadata>
 <ellipse cx="12.383" cy="24.487" rx="8.2668" ry="7.3279" fill="none" stroke-width="3.0595"/>
 <circle cx="18.19" cy="18.886" r="17.638" fill="none"/>
 <g transform="matrix(.79234 -.13684 .16487 .79818 -4.7441 4.1716)" fill="#0ff" stroke="#000" stroke-width=".27243">
  <g id="Layer_1_110_" fill="#0ff" stroke="#000" stroke-width=".27243">
   <g fill="#0ff" stroke="#000" stroke-width=".27243">
    <path d="m17.567 15.938-2.859-2.702c0.333-0.605 0.539-1.29 0.539-2.029 0-2.342-1.897-4.239-4.24-4.239s-4.243 1.896-4.243 4.239 1.9 4.241 4.243 4.241c0.826 0 1.59-0.246 2.242-0.654l2.855 2.699c0.432-0.571 0.919-1.094 1.463-1.555z"/>
    <path d="m29.66 15.6 3.799-6.393c0.374 0.107 0.762 0.184 1.169 0.184 2.347 0 4.244-1.898 4.244-4.241 0-2.342-1.897-4.239-4.244-4.239-2.343 0-4.239 1.896-4.239 4.239 0 1.163 0.469 2.214 1.227 2.981l-3.787 6.375c0.651 0.295 1.265 0.663 1.831 1.094z"/>
    <path d="m42.762 20.952c-1.824 0-3.369 1.159-3.968 2.775l-5.278-0.521c0 0.04 6e-3 0.078 6e-3 0.117 0 0.688-0.076 1.36-0.213 2.009l5.276 0.521c0.319 2.024 2.062 3.576 4.177 3.576 2.342 0 4.238-1.896 4.238-4.238 0-2.341-1.896-4.239-4.238-4.239z"/>
    <path d="m28.197 37.624-1.18-5.156c-0.666 0.232-1.359 0.398-2.082 0.481l1.182 5.157c-1.355 0.709-2.29 2.11-2.29 3.746 0 2.342 1.896 4.237 4.243 4.237 2.342 0 4.238-1.896 4.238-4.237 3e-3 -2.299-1.829-4.16-4.111-4.228z"/>
    <path d="m14.357 25.37-6.57 2.201c-0.758-1.158-2.063-1.926-3.548-1.926-2.343 0-4.239 1.897-4.239 4.239 0 2.345 1.896 4.242 4.239 4.242 2.341 0 4.242-1.897 4.242-4.242 0-0.098-0.021-0.188-0.029-0.284l6.591-2.207c-0.297-0.641-0.533-1.316-0.686-2.023z"/>
    <circle cx="23.83" cy="23.323" r="7.271"/>
   </g>
  </g>
 </g>
 <g transform="matrix(.98529 0 0 1.0605 .35468 .28111)">
  <rect x="10.178" y="14.25" width="16.467" height="7.9451" fill="#0ff"/>
  <ellipse transform="matrix(.87405 0 0 .87405 2.7277 2.229)" cx="18.056" cy="10.338" rx="9.0429" ry="2.143" fill="#0ff"/>
  <g transform="matrix(.037872 0 0 .036469 9.5192 9.0879)">
   <path d="m234.67 0c-113.02 0-234.67 20.031-234.67 64v74.667c0 54.781 140.33 74.667 234.67 74.667s234.67-19.885 234.67-74.667v-74.667c-1e-3 -43.969-121.65-64-234.67-64zm0 106.67c-124.23 0-192-28.188-192-42.667s67.771-42.667 192-42.667 192 28.187 192 42.667c0 14.479-67.771 42.667-192 42.667z"/>
   <path d="m453.21 321.71c-66.253 39.454-199.01 40.955-218.54 40.955s-152.29-1.502-218.54-40.955c-7.171-4.27-16.122 0.661-16.122 9.006v63.949c0 49.021 118.05 74.667 234.67 74.667s234.67-25.646 234.67-74.667v-63.949c-1e-3 -8.345-8.952-13.276-16.122-9.006z"/>
   <path d="m453.21 193.71c-66.253 39.454-199.01 40.955-218.54 40.955s-152.29-1.502-218.54-40.955c-7.171-4.27-16.122 0.661-16.122 9.006v63.949c0 54.781 140.33 74.667 234.67 74.667s234.67-19.885 234.67-74.667v-63.949c-1e-3 -8.345-8.952-13.276-16.122-9.006z"/>
  </g>
  <g transform="matrix(.019402 0 0 .018683 11.965 15.225)" fill="#0ff" stroke="#000" stroke-width="14.307">
   <g transform="matrix(1.4887,0,0,1.4887,-49.078,-251.56)" fill="#0ff" stroke="#000" stroke-width="7.6149">
    <path d="m387.55 12.169c-1.522-6.081-6.666-10.574-12.896-11.266-0.332-0.038-8.258-0.903-19.774-0.903-27.512 0-65.012 4.698-87.426 27.077-41.959 41.9-26.717 108.88-26.049 111.71 1.35 5.705 5.899 10.101 11.646 11.255 0.427 0.086 10.626 2.1 25.095 2.1 23.995 0 57.967-5.361 83.543-30.904 42.05-41.993 26.542-106.35 25.861-109.06z" stroke="#000" stroke-width="7.6099"/>
    <path d="m364.77 170.18c-2.586-2.66-5.257-5.209-8-7.651-27.105 15.739-56.4 19.606-78.627 19.606-17.156 0-29.646-2.414-31-2.687-17.188-3.451-30.9-16.704-34.936-33.769-0.403-1.706-1.516-6.756-2.472-14.154-23.495 7.42-44.882 20.53-62.505 38.655-28.385 29.195-44.017 68.22-44.017 109.89 0 48.621 20.642 76.261 38.854 100.65 8.239 11.033 16.023 21.455 22.243 33.703 3.792 7.465 7.281 14.742 10.656 21.78 9.741 20.313 18.153 37.858 29.558 51.325 13.947 16.471 30.787 24.477 51.482 24.477 40.465 0 79.929-30.918 111.12-87.06 25.307-45.548 41.658-102.41 41.658-144.87 1e-3 -41.665-15.631-80.69-44.015-109.89z"/>
   </g>
  </g>
 </g>
</svg>
