<svg width="354.17" height="100" version="1.1" viewBox="0 0 93.692 26.457" xmlns="http://www.w3.org/2000/svg">
 <g transform="matrix(.31271 0 0 .31271 16.325 2.1909)" stroke="#008000">
  <g transform="matrix(1.1264,0,0,1.1264,6.6002,-9.8076)">
   <g transform="matrix(.8878 0 0 .8878 -3.0673 8.7071)" stroke="#008000">
    <g transform="matrix(1.1079,0,0,1.1079,2.4894,-9.5459)">
     <g transform="matrix(2.5363,0,0,2.4867,142.17,-628.53)" fill="#0b2228" stroke="#008000" stroke-width=".80561">
      <rect x="-76.241" y="258.45" width="105.83" height="21.167" ry="1.91" fill="#0b2228" stroke="#008000" stroke-width=".80561"/>
     </g>
     <path d="m170.49 45.236s6.9526-5.1664-6.8028-7.6518c0 0-5.7585 3.5743 6.8028 7.6518zm-59.089 8.0303s-7.0724-3.3597-21.424 0.07076c0 0 10.682 4.3347 21.424-0.07076zm-128.01-30.877s-7.4058 4.5972 8.7473 9.8395c0 0 8.9367-6.6455-8.7473-9.8395zm41.086 3.936s-7.8529-0.12692-9.9484 4.4144c0 0 10.865-0.15069 9.9484-4.4144zm1.7488 6.5293s-1.9642-2.3302-11.32-1.6632c0 0 3.3508 3.1306 11.32 1.6632zm165.43 20.378s10.86-0.15349 9.9484-4.4144c0 0-7.8588-0.12739-9.9484 4.4144zm11.692 2.112s-1.9642-2.3302-11.321-1.6608c7e-3 4.72e-4 3.3569 3.1311 11.321 1.6608zm-87.573-37.787s-8.3696 5.3973 9.4238 11.443c0 0 10.138-7.7953-9.4238-11.443zm11.776 11.632c-1e-3 0.0024 17.028 0.79434 18.529-6.2899 0 0-12.151-0.96432-18.529 6.2899zm33.411 32.621s-1.9924-9.2194-25.843-7.9931c-1e-3 0.0024 0.11174 6.6919 25.843 7.9931zm-196.24-9.0978c-0.68066 0.21821-1.3724 0.49377-2.0568 0.74326l3.4612-6.6684c0.35032-0.07435 0.77002-0.11416 1.2566-0.07838l0.0036-0.0069c2.2106 0.17368 4.1371-0.16254 6.0103-0.56364 1.2462-0.41878 2.4852-0.84782 3.6235-1.2872 1.4278-0.5525 3.3531-0.36969 4.3986 0.07874 1.3236-0.31568 2.6855-0.6332 4.0999-0.8835 0.01937-0.02523 0.04578-0.0522 0.07104-0.0769l-0.01173-1e-3c0.02658-0.02704 0.05656-0.04894 0.08179-0.07361 0.43359-0.43897 0.94256-0.84292 1.5331-1.272 0.91416-0.66802 0.98056-1.5167 1.862-2.1218 0.6097-0.41784 1.216-0.86504 1.9167-1.2782-0.098974-0.10965-0.15232-0.223-0.16022-0.34007l-0.022685-0.01631c-1.0756-0.66672-1.9523-1.3323-2.5467-2.0849-0.3205-0.40359 0.15451-0.97026-0.2434-1.2368-2.3916-0.17332-3.3681-1.247-5.172-1.7721-0.16764-0.04955 0.02116-0.14873 0.20312-0.11503 1.2059 0.22328 2.386 0.35241 3.403 0.7113 0.50139 0.17524 1.0017 0.32855 1.4612 0.5005 0.0638-0.05077 0.13481-0.10344 0.23924-0.14858 2.3794-1.0405 4.7122-2.5795 5.6629-3.8947 0.092907-0.13096 0.60937-0.09283 0.5332 0.0419-0.50522 0.87723-2.2232 1.9527-2.1902 2.8262 0.024724 0.60111-0.10081 1.0352-0.70587 1.4801 0.8875 0.64462 1.2905 1.3458 2.3111 1.9742 0.1136 0.06959 0.23429 0.13728 0.35501 0.20496 0.064793-0.02885 0.13565-0.05725 0.20417-0.08098 0.26055-0.09355 0.55214-0.1628 0.85804-0.21156 0.49066-0.58487 2.3233-0.82419 3.6431-1.0843 0.61067-0.11942 1.3827-0.1291 1.9983-0.0298 0.29488-0.0036 0.58969 0.0051 0.88921 0.02862 0.59438-0.22015 1.2282-0.42021 1.8405-0.6268-0.21158-0.12092-0.26238-0.27531 0.016823-0.45233 0.44845-0.28739 0.97348-0.5421 1.5703-0.76689 0.21395-0.12388 0.43387-0.2473 0.65858-0.36791 0.14526-0.30393 0.26419-0.60511 0.46905-0.83158 0.19644-0.22229 0.64146-0.28678 1.0812-0.25708 0.43408-0.28367 0.89446-0.558 1.4051-0.8211 0.051488-0.24339-0.0456-0.47662 0.11042-0.77731 0.32544-0.62698 1.4527-0.99685 1.4992-1.6991 0.0066-0.14503 0.37991-0.23942 0.6891-0.22239 0.41962-0.52013 0.89915-1.0355 1.2924-1.5528 0.09895-0.1305 0.5722-0.09332 0.53318 0.0419-0.24737 0.84901-0.27197 1.7252-0.67031 2.5647-0.21189 0.44425-0.22412 0.99634-0.72598 1.4227 0.13802 0.21462 0.23646 0.43339 0.05437 0.66409-0.72231 0.91116-2.3607 1.629-3.6194 2.4325-0.055719 0.10721-0.11006 0.21209-0.17174 0.31884-0.12454 0.22792-0.60251 0.41598-1.0936 0.59331-0.072032 0.03074-0.14779 0.05633-0.22813 0.07912-0.25935 0.0912-0.51029 0.17824-0.70607 0.26715-0.86968 0.39016-1.3586 1.1158-2.4735 1.4018l-0.027605 0.0051c-0.036373 0.09416-0.12439 0.19158-0.30105 0.2917-0.81012 0.4676-1.5865 0.90629-2.5522 1.3132-0.19155 0.45312-0.44784 0.91088-0.76046 1.369 0.001619 0.04384-0.003314 0.08952-0.015038 0.13708l0.17136 0.0061c1.0151 0.02641 1.7393 0.22882 2.0112 0.52186 0.98003-0.41058 1.9529-0.81934 2.8313-1.2622 0.085312-0.04422 0.25288 0.0054 0.19751 0.0519-0.72098 0.63228-1.7628 1.1738-2.971 1.6636-0.027783 0.0536-0.056892 0.10955-0.11225 0.16825-0.28678 0.31222 0.60022 0.56142 1.9669 0.75124 0.15587 1.12e-4 0.30087-0.0031 0.45906 0.0046 0.73938 0.04111 1.4811 0.07754 2.2181 0.11118 0.10789-0.0036 0.2098-0.0079 0.32126-0.0061 4.2824 0.06232 8.5261 0.22349 12.788-0.02167 0.96399-0.05526 2.0727 0.19922 2.8639 0.41664 0.14406-0.06143 0.36141-0.1317 0.66029-0.21497 1.199-0.32789 2.791-0.15186 3.6064 0.28334l0.10535 0.03739c1.5631-0.02014 3.1227-0.02167 4.6747 0.0033 1.4713-0.13183 2.8351-0.30852 3.3605-0.39582 3.1214-0.52375 3.8249-0.7741 7.5019-0.38583 1.8929 0.19721 3.5391 0.61765 5.3272 0.90853 0.5174 0.08432 1.0638 0.13693 1.6149 0.18023 0.12-0.02697 0.22922-0.05717 0.36597-0.08042 3.5052-0.61487 8.1608-0.38254 11.791-0.90264 1.3967-0.55252 2.9371-1.0695 4.0915-1.5998 1.295-0.5969 2.7181-1.1886 4.3206-1.6813 0.39477-0.34012 0.60735-0.67757 0.53453-0.99384-0.121-0.52377 0.74385-0.89247 1.874-1.0997 2.3574-0.43336 3.936-1.4446 6.5703-2.3026 0.5162-0.16563 1.3386-0.18836 2.0178-0.10346 1.302-0.80252 3.0299-1.4649 5.1042-2.0976 2.8894-0.88161 3.7991-2.6585 5.4233-3.8774 1.0995-0.82085 2.4586-1.5534 3.8132-2.313 0.07927-0.04471 0.25889 0.0057 0.19754 0.0519-2.3688 1.8248-5.6178 4.4562-6.2879 6.4923-0.44152 1.3432-4.7122 2.0871-5.5653 3.4902-0.36967 0.60409-2.6368 0.95966-3.7612 0.47106-0.62698 0.27095-1.1307 0.58069-1.3472 0.9979-0.08343 0.16081-0.27956 0.31035-0.53909 0.43795-0.0066 0.04802-0.0232 0.09278-0.05327 0.13894-0.04708 0.06665-0.26511 0.54682-0.28555 0.3099 6.55e-4 0.04616 0.01504 0.09094 0.02811 0.13805l0.03816 0.04665c1.4322 0.03974 2.7737-0.0102 4.1889-0.20215 1.1071-0.15074 2.6419 0.0038 3.2272 0.42577 0.18757 0.13119 0.38957 0.2465 0.60121 0.35532 0.70169-0.09043 1.3947-0.14029 2.0657-0.08758 1.2521 0.09836 2.7054 0.2174 4.1022 0.39748 2.2166-0.31828 4.8781-0.18439 7.221 0.21554 3.2815-1.1807 7.6092-2.3228 11.832-1.8334 2.3904-1.0736 5.6614-1.8136 8.327-2.7564 0.64396-1.0604 1.9717-1.9968 2.9631-3.0176 1.1383-1.172 2.3527-2.2021 4.7922-3.0462 0.51628-0.17776 1.269 0.06576 0.81376 0.28224-1.8694 0.89864-2.6241 1.8364-2.7543 2.9881-0.0194 0.1343 3e-3 0.26955 0.0391 0.40573 7.0704-0.1553 14.452 0.21844 21.402-0.26896 0.30333-0.01963 0.39593 0.17422 0.10454 0.20712-3.3148 0.37999-6.7227 0.68713-10.147 0.88149-3.5968 0.20259-8.3841 0.13942-10.263 1.5492-2.6766 2.0093-9.188 2.6256-11.982 4.5847-0.65787 0.46258-2.3735 0.78871-3.6592 0.46693-0.58544-0.14544-1.1892-0.20743-1.7922-0.21115 1e-3 0.03405-3e-3 0.06762-0.0222 0.10259-0.0397 0.07693-0.0966 0.15008-0.15923 0.2228 0.53185 0.32075 0.34734 0.80841-0.51095 1.0684-0.0617 0.14312-0.13433 0.27085-0.33054 0.4325-0.13112 0.10853-0.28744 0.20544-0.44494 0.30464 3.9638 1.7935 7.5124 4.0859 11.752 4.7244 3.8629 0.58242 7.5111 1.085 11.021 1.9162 1.56 0.37 3.9143-0.16553 5.6119 0.03576 2.5445 0.29937 5.1095 0.53484 7.7594 0.60717 0.15467 0.0024 0.22632 0.04448 0.25724 0.09298 2.6756-0.04937 4.4254-0.48924 6.5418-1.4194 2.7388-1.2039 8.1822-1.5404 12.083-1.1029 0.0695-0.0018 0.13312-0.0041 0.20141-0.0036 0.99626-0.29774 2.4297-0.26032 3.7525-0.14185 0.53509-0.10593 1.0917-0.20531 1.6603-0.29164 0.58801-0.40015 1.4706-0.73108 2.5744-0.97184 2.0098-0.43642 4.7845-0.65265 6.2621-1.3492 0.15013-0.0731 0.45546 0.01147 0.34478 0.0926-0.71083 0.51664-1.8199 1.0796-3.0824 1.4098-1.709 0.4455-4.0808 0.88258-4.2098 1.7919l-0.0222 0.04196c3.521 0.59198 6.6705 1.7321 9.5698 2.7773 0.10303 0.01784 0.18322 0.03138 0.22877 0.03981 2.6814 0.45567 4.9 1.7555 8.0219 1.6394 3.8784-0.14409 2.7513 1.691 3.5922 2.5333 0.10739 0.10547-0.26445 0.16117-0.42946 0.08271-3.2075-1.5328-8.0036-2.9962-13.132-3.9256-0.30064-0.04545-0.59646-0.10022-0.89346-0.15268-2.151-0.36062-4.3446-0.62754-6.5025-0.75825-0.57396-0.03538-0.9696-0.27024-0.9122-0.4889l-0.84417-0.17547c-0.60881-0.01631-1.2237-0.03303-1.8338-0.03492-0.81626-0.0011-1.2128-0.29419-0.88553-0.5523-0.21452-0.0071-0.41828-0.01096-0.62803-0.01555-0.73428 0.15337-1.5714 0.24041-2.721 0.26896-0.44239 0.01147-0.92627-0.05335-1.3177-0.16418-0.27472 0.04876-0.59739 0.09375-1.0459 0.14101-1.0098 0.10746-1.8277-0.05868-2.3106-0.31736-1.9888 0.31193-3.8654 0.70791-4.846 1.2154-1.2953 0.66965-2.2117 1.0537-4.3008 1.2704-3.4729 0.36029-8.3841-0.30452-12.37-0.70987-0.2721 0.0079-0.54065 0.02065-0.80561 0.02646-1.1903 0.02294-2.6766 0.26758-4.0374 0.33049 0.18531 0.35175 0.23987 0.71504 0.29934 1.069 0.0581 0.39268 0.83308 0.74953 1.3565 1.0745 0.16494 0.10272-0.22392 0.20315-0.40328 0.10417-0.38132-0.21431-0.76985-0.42676-1.1236-0.6462-0.30597-0.1914-0.73683-0.32228-1.1028-0.49416-0.77135-0.36383-1.3585-0.6501-1.4785-1.1398-0.015-0.05457 0.0102-0.10351 0.0404-0.14965-3.8955-0.73541-8.4284-0.98724-12.271-1.7646-4.0344-0.81667-7.466-2.0735-10.995-3.178-2.3817-0.74502-4.4519-1.7179-7.1726-2.2907-2.0177-0.42536-3.4466-0.63949-4.8567-1.2621-1.0045 0.01325-2.0481-0.0663-3.0893-0.18688-0.30197-0.01886-0.6075-0.04287-0.92018-0.07713-0.1761-0.02116-0.33538-0.0506-0.48503-0.08661-0.69506 0.47422-2.4201 0.75837-3.6676 0.44687-0.36992-0.09214-0.70992-0.18192-1.0392-0.26842-1.1826 0.15212-2.401 0.27712-3.7214 0.4184-3.2692 0.35203-7.0115 1.1351-10.049 1.748-4.3252 0.8731-7.9217 2.0363-11.869 3.0702 0.47766 0.12484 0.95535 0.24972 1.4234 0.36895 3.9974 1.02 8.0703 2.087 10.755 3.6419 2.05-0.05727 4.0163 0.08266 5.8997 0.49018 1.3003 0.28165 2.5644 0.62114 3.9011 0.86923 2.1221 0.3923 2.2062 0.85495 3.0643 0.15097 0.61974-0.50924 2.9356-0.51409 3.2837 0.08819 1.4207 2.4403 1.811 5.0277 5.1868 7.2335 0.61418 0.40242 3.1757 1.4138 2.9338 1.88-0.56978 1.0978 4.0362 1.1976 5.7641 1.3043 0.24808 0.01478 0.20187 0.15171-0.0281 0.16275-2.6185 0.13147-4.7715-0.06923-7.2381-0.41093-0.24916-0.03655-0.39113-0.17141-0.32955-0.26605 0.64309-0.9875-2.4815-2.0431-3.48-2.8104-0.75837-0.58112-1.5035-1.1636-2.0687-1.7805-1.0576-1.1577-2.0542-2.3252-3.011-3.4968-0.32621 0.03986-0.6787 0.05824-1.0718 0.0468-5.0132-0.14401-8.5161-1.7558-13.605-1.6947 0.02167 0.03079 0.05004 0.05972 0.07035 0.09286 0.0298 0.03874-0.0963 0.06523-0.15956 0.03112-0.0885-0.04578-0.17338-0.08638-0.26307-0.12982-0.70115-0.0066-1.4593-0.13163-1.807-0.37484-0.22461-0.15592-0.46002-0.30296-0.70862-0.44866-2.2881-0.51694-4.9958-0.76605-7.0791-1.4853-2.6231-0.90473-5.3807-1.7302-8.2118-2.5348l-0.15803-0.04394c-1.9331-0.05967-3.7487-0.16591-5.5635-0.36916-1.1836 0.11806-2.5591-0.0069-3.651-0.51001l-0.07405-0.03734c-0.68622-0.11942-1.388-0.2449-2.0958-0.38297-6.0819 0.52161-12.171 0.37311-18.383-0.05669-3.674 0.7714-9.3249 0.84664-12.875 1.1765-5.8699 0.54554-11.827 0.21339-17.778 0.43479-0.43367 0.19882-1.0384 0.3308-1.7661 0.35126-2.8148 0.07723-5.432 0.45865-8.1121 0.76964-0.0626 0.06059-0.13598 0.11789-0.22616 0.17144 0.39049 0.05251 0.51534 0.2685 0.13718 0.39648-3.8154 1.2721-8.8194 1.2429-13.214 1.9481-0.9888 0.23524-2.0087 0.45834-3.049 0.67253-0.11766 0.03444-0.23886 0.0637-0.35167 0.10094zm112.56-14.273 0.02065-0.01555z" fill="#008000" stroke="none"/>
    </g>
    <g transform="matrix(3.2957,0,0,3.2957,0,-5.9019)" fill="#80bf80" stroke-width=".67017">
     <path d="m24.38 10.175-2.231-0.268c-0.228-0.851-0.562-1.655-0.992-2.401l1.387-1.763c0.212-0.271 0.188-0.69-0.057-0.934l-2.299-2.3c-0.242-0.243-0.662-0.269-0.934-0.057l-1.766 1.389c-0.743-0.43-1.547-0.764-2.396-0.99l-0.267-2.231c-0.041-0.341-0.356-0.62-0.7-0.62h-3.252c-0.344 0-0.659 0.279-0.699 0.62l-0.268 2.231c-0.85 0.227-1.655 0.562-2.398 0.991l-1.765-1.387c-0.27-0.212-0.69-0.187-0.933 0.056l-2.3 2.301c-0.242 0.242-0.267 0.662-0.054 0.934l1.386 1.764c-0.43 0.744-0.764 1.549-0.991 2.4l-2.23 0.267c-0.341 0.04-0.621 0.355-0.621 0.7v3.252c0 0.344 0.279 0.657 0.621 0.699l2.231 0.268c0.228 0.848 0.561 1.652 0.991 2.396l-1.386 1.766c-0.211 0.271-0.187 0.69 0.057 0.934l2.296 2.301c0.243 0.242 0.663 0.269 0.933 0.057l1.766-1.39c0.744 0.43 1.548 0.765 2.398 0.991l0.268 2.23c0.041 0.342 0.355 0.62 0.699 0.62h3.252c0.345 0 0.659-0.278 0.699-0.62l0.268-2.23c0.851-0.228 1.655-0.562 2.398-0.991l1.766 1.387c0.271 0.212 0.69 0.187 0.933-0.056l2.299-2.301c0.244-0.242 0.269-0.662 0.056-0.935l-1.388-1.764c0.431-0.744 0.764-1.548 0.992-2.397l2.23-0.268c0.342-0.041 0.621-0.353 0.621-0.699v-3.252c1e-3 -0.346-0.277-0.659-0.62-0.7zm-11.879 8.575c-3.452 0-6.25-2.798-6.25-6.25s2.798-6.25 6.25-6.25 6.25 2.798 6.25 6.25-2.797 6.25-6.25 6.25z" fill="#80bf80" stroke="#008000" stroke-width=".67017"/>
    </g>
    <circle cx="41.196" cy="35.296" r="26.057" fill="#0b2228" stroke-width=".96782"/>
    <g transform="matrix(1.7574 0 0 2.0295 8.8494 -.51541)" fill="#80bf80">
     <g transform="translate(1.128 -.49296)" fill="#80bf80">
      <g stroke="#008000">
       <g fill="#008000" stroke-width=".037164">
        <path d="m17.278 9.5809c-4.2803 0-8.8874 0.73051-8.8874 2.334v2.723c0 1.9978 5.3146 2.723 8.8874 2.723s8.8874-0.72519 8.8874-2.723v-2.723c-3.7e-5 -1.6035-4.6071-2.334-8.8874-2.334zm0 3.8901c-4.7048 0-7.2714-1.028-7.2714-1.556 0-0.52803 2.5666-1.556 7.2714-1.556s7.2714 1.028 7.2714 1.556c0 0.52804-2.5666 1.556-7.2714 1.556z"/>
        <path d="m25.555 21.313c-2.5091 1.4388-7.5369 1.4936-8.2765 1.4936-0.73964 0-5.7675-0.05478-8.2765-1.4936-0.27158-0.15572-0.61057 0.02411-0.61057 0.32844v2.3322c0 1.7877 4.4708 2.723 8.8874 2.723s8.8874-0.93528 8.8874-2.723v-2.3322c-3.7e-5 -0.30433-0.33903-0.48416-0.61057-0.32844z"/>
        <path d="m25.555 16.645c-2.5091 1.4388-7.5369 1.4936-8.2765 1.4936-0.73964 0-5.7675-0.05478-8.2765-1.4936-0.27158-0.15572-0.61057 0.02411-0.61057 0.32844v2.3322c0 1.9978 5.3146 2.723 8.8874 2.723s8.8874-0.72519 8.8874-2.723v-2.3322c-3.7e-5 -0.30433-0.33903-0.48416-0.61057-0.32844z"/>
       </g>
       <g transform="matrix(.028884 0 0 .027813 9.8844 11.018)" fill="#80bf80" stroke-width="7.6149">
        <path d="m387.55 12.169c-1.522-6.081-6.666-10.574-12.896-11.266-0.332-0.038-8.258-0.903-19.774-0.903-27.512 0-65.012 4.698-87.426 27.077-41.959 41.9-26.717 108.88-26.049 111.71 1.35 5.705 5.899 10.101 11.646 11.255 0.427 0.086 10.626 2.1 25.095 2.1 23.995 0 57.967-5.361 83.543-30.904 42.05-41.993 26.542-106.35 25.861-109.06z" stroke-width="7.6099"/>
        <path d="m364.77 170.18c-2.586-2.66-5.257-5.209-8-7.651-27.105 15.739-56.4 19.606-78.627 19.606-17.156 0-29.646-2.414-31-2.687-17.188-3.451-30.9-16.704-34.936-33.769-0.403-1.706-1.516-6.756-2.472-14.154-23.495 7.42-44.882 20.53-62.505 38.655-28.385 29.195-44.017 68.22-44.017 109.89 0 48.621 20.642 76.261 38.854 100.65 8.239 11.033 16.023 21.455 22.243 33.703 3.792 7.465 7.281 14.742 10.656 21.78 9.741 20.313 18.153 37.858 29.558 51.325 13.947 16.471 30.787 24.477 51.482 24.477 40.465 0 79.929-30.918 111.12-87.06 25.307-45.548 41.658-102.41 41.658-144.87 1e-3 -41.665-15.631-80.69-44.015-109.89z"/>
       </g>
      </g>
     </g>
    </g>
   </g>
  </g>
 </g>
</svg>
