<svg width="368.93" height="85.674" version="1.1" viewBox="0 0 379.98 75.599" xmlns="http://www.w3.org/2000/svg">
 <rect y="-2.2" width="379.98" height="80" ry="40" stroke-width=".9077"/>
 <path d="m323.15 44.496s10.618-7.8902-10.389-11.686c0 0-8.7945 5.4588 10.389 11.686zm-90.239 12.264s-10.801-5.1311-32.718 0.10807c0 0 16.313 6.62 32.718-0.10807zm-195.49-47.155s-11.31 7.0209 13.359 15.027c0 0 13.648-10.149-13.359-15.027zm62.747 6.0112s-11.993-0.19384-15.193 6.7418c0 0 16.593-0.23012 15.193-6.7418zm2.6707 9.9716s-2.9997-3.5587-17.288-2.54c0 0 5.1173 4.7809 17.288 2.54zm252.64 31.121s16.586-0.2344 15.193-6.7418c0 0-12.002-0.19457-15.193 6.7418zm17.856 3.2255s-2.9997-3.5587-17.29-2.5364c0.01 7.19e-4 5.1265 4.7816 17.29 2.5364zm-133.74-57.708s-12.782 8.2426 14.392 17.476c0 0 15.483-11.905-14.392-17.476zm17.984 17.765c-2e-3 0.0037 26.005 1.2131 28.297-9.6059 0 0-18.557-1.4727-28.297 9.6059zm51.026 49.817s-3.0428-14.08-39.467-12.207c-2e-3 0.0037 0.17067 10.22 39.467 12.207zm-299.7-13.894c-1.0395 0.33325-2.0959 0.75409-3.1412 1.1351l5.2859-10.184c0.53503-0.11355 1.176-0.17434 1.919-0.11969l0.0054-0.01053c3.3761 0.26523 6.3184-0.24824 9.1789-0.86078 1.9032-0.63957 3.7954-1.2948 5.534-1.9658 2.1806-0.84376 5.1209-0.5646 6.7176 0.12023 2.0214-0.4821 4.1014-0.967 6.2615-1.3493 0.02955-0.03842 0.06992-0.07971 0.10847-0.11744l-0.01799-0.0015c0.04061-0.04129 0.08637-0.07473 0.12492-0.11243 0.66221-0.67038 1.4395-1.2873 2.3414-1.9425 1.3961-1.0202 1.4975-2.3163 2.8437-3.2404 0.93113-0.63814 1.857-1.3211 2.9272-1.9521-0.15113-0.16748-0.23262-0.34058-0.2447-0.51935l-0.03471-0.02505c-1.6426-1.0182-2.9814-2.0347-3.8893-3.1841-0.48948-0.61638 0.23596-1.4818-0.37173-1.8889-3.6525-0.26472-5.1439-1.9045-7.8987-2.7063-0.25601-0.07568 0.03213-0.22714 0.31022-0.17568 1.8417 0.34102 3.6439 0.53819 5.1972 1.0863 0.76572 0.26763 1.5298 0.50176 2.2315 0.76435 0.09741-0.07755 0.20589-0.15796 0.36536-0.22692 3.6339-1.5891 7.1965-3.9395 8.6485-5.9482 0.14188-0.20002 0.93062-0.14177 0.8143 0.06399-0.77158 1.3397-3.3953 2.9822-3.3449 4.3162 0.03778 0.91801-0.15397 1.5809-1.078 2.2604 1.3554 0.98448 1.9708 2.0553 3.5295 3.015 0.1735 0.10626 0.3578 0.20964 0.54218 0.31302 0.09896-0.04408 0.20717-0.08744 0.31179-0.12368 0.39792-0.14286 0.84325-0.24864 1.3104-0.32308 0.74932-0.89323 3.5482-1.2587 5.5637-1.656 0.93262-0.18237 2.1116-0.19718 3.0518-0.0455 0.45034-0.0053 0.90059 0.0076 1.358 0.04372 0.90774-0.33619 1.8757-0.64173 2.8108-0.95726-0.32313-0.18469-0.40073-0.42046 0.02571-0.69078 0.68488-0.43891 1.4867-0.82789 2.3981-1.1712 0.32675-0.18919 0.66262-0.37768 1.0058-0.56189 0.22183-0.46417 0.40348-0.9241 0.71632-1.27 0.30002-0.3395 0.97963-0.43798 1.6512-0.39263 0.66291-0.43323 1.366-0.85219 2.1459-1.254 0.07865-0.3717-0.06966-0.72789 0.16862-1.1871 0.49701-0.95751 2.2186-1.5224 2.2896-2.5949 0.0103-0.22148 0.58019-0.36563 1.0524-0.33964 0.64085-0.79432 1.3732-1.5814 1.9737-2.3715 0.15113-0.19929 0.87386-0.14249 0.81428 0.06398-0.3778 1.2966-0.41533 2.6347-1.0237 3.9169-0.32361 0.67846-0.34228 1.5216-1.1087 2.1727 0.21077 0.32776 0.36112 0.66186 0.08302 1.0142-1.1031 1.3915-3.6053 2.4878-5.5277 3.7149-0.08508 0.16374-0.1681 0.32392-0.26228 0.48693-0.19021 0.3481-0.92013 0.6353-1.6701 0.90609-0.11001 0.04692-0.22568 0.08603-0.34839 0.12082-0.39607 0.1393-0.7793 0.27221-1.0783 0.408-1.3282 0.59584-2.0749 1.7041-3.7775 2.1409l-0.04215 0.0076c-0.05553 0.1438-0.18995 0.29258-0.45977 0.44548-1.2372 0.71412-2.4229 1.3841-3.8977 2.0055-0.29254 0.69201-0.68396 1.3911-1.1614 2.0908 0.0025 0.06696-0.0051 0.13672-0.02314 0.20935l0.26172 0.0094c1.5503 0.04031 2.6563 0.34944 3.0715 0.797 1.4967-0.62704 2.9825-1.2513 4.3238-1.9276 0.13031-0.06754 0.3862 8e-3 0.30166 0.07927-1.1011 0.96561-2.6922 1.7927-4.5373 2.5406-0.04241 0.08188-0.08688 0.1673-0.17144 0.25695-0.43797 0.47683 0.91666 0.8574 3.0039 1.1473 0.23802 1.7e-4 0.45951-0.0047 0.70108 0.0069 1.1292 0.0628 2.262 0.11842 3.3875 0.1698 0.16476-0.0053 0.3204-0.01198 0.49064-0.0094 6.5401 0.09518 13.021 0.34131 19.529-0.03305 1.4722-0.08439 3.1654 0.30424 4.3738 0.63628 0.22003-0.09383 0.55194-0.20114 1.0084-0.32831 1.8311-0.50075 4.2626-0.23193 5.5079 0.43271l0.16089 0.05709c2.3872-0.03087 4.7688-0.03304 7.1392 5e-3 2.247-0.20132 4.3297-0.47117 5.1321-0.60448 4.767-0.79987 5.8415-1.1822 11.457-0.58922 2.8908 0.30118 5.4048 0.94326 8.1356 1.3875 0.79019 0.12877 1.6246 0.20913 2.4663 0.27526 0.18328-0.04117 0.35006-0.08732 0.55892-0.12281 5.3534-0.93903 12.463-0.58421 18.008-1.3785 2.133-0.8438 4.4854-1.6333 6.2484-2.4432 1.9777-0.91157 4.1512-1.8152 6.5986-2.5676 0.6029-0.51945 0.92754-1.0348 0.81634-1.5178-0.1848-0.7999 1.136-1.363 2.8619-1.6794 3.6002-0.66184 6.0111-2.2062 10.034-3.5165 0.78835-0.25296 2.0443-0.28768 3.0816-0.158 1.9884-1.2256 4.6274-2.2371 7.7952-3.2034 4.4126-1.3464 5.8022-4.0601 8.2823-5.9214 1.6791-1.2536 3.7548-2.3724 5.8234-3.5324 0.12107-0.06827 0.39538 0.0087 0.30169 0.07927-3.6177 2.7869-8.5794 6.8057-9.603 9.915-0.67429 2.0513-7.1965 3.1874-8.4991 5.3301-0.56457 0.92256-4.0269 1.4656-5.7441 0.7194-0.95753 0.41379-1.7268 0.88682-2.0575 1.524-0.12742 0.24559-0.42697 0.47399-0.82331 0.66884-0.01 0.07335-0.0355 0.14169-0.0814 0.21218-0.0719 0.10179-0.4049 0.83508-0.4361 0.47328 1e-3 0.07051 0.0231 0.1389 0.0429 0.21084l0.0583 0.07125c2.1872 0.06068 4.236-0.01562 6.3974-0.30874 1.6907-0.23023 4.0346 0.0058 4.9284 0.65022 0.28645 0.20034 0.59498 0.37645 0.91818 0.54262 1.0716-0.1381 2.13-0.21425 3.1547-0.13374 1.9122 0.15023 4.1318 0.33201 6.2649 0.60703 3.3852-0.48609 7.4498-0.28161 11.028 0.32918 5.0115-1.8031 11.621-3.5474 18.07-2.8 3.6506-1.6396 8.6462-2.7698 12.717-4.2097 0.98344-1.6195 3.0112-3.0495 4.5252-4.6087 1.7384-1.7898 3.593-3.3631 7.3188-4.6523 0.78846-0.27148 1.9381 0.10041 1.2428 0.43105-2.8549 1.3724-4.0077 2.8045-4.2065 4.5634-0.0298 0.2051 5e-3 0.41164 0.0596 0.61963 10.798-0.23716 22.071 0.33361 32.685-0.41076 0.46324-0.03014 0.60466 0.26607 0.15962 0.31633-5.0624 0.58032-10.267 1.0494-15.497 1.3462-5.4931 0.30939-12.804 0.21291-15.674 2.3659-4.0877 3.0686-14.032 4.01-18.299 7.0016-1.0047 0.70645-3.6248 1.2045-5.5884 0.71311-0.89412-0.22213-1.8162-0.3168-2.737-0.32246 2e-3 0.052-5e-3 0.10328-0.0338 0.15666-0.0607 0.11748-0.14753 0.22921-0.24316 0.34026 0.81224 0.48985 0.53046 1.2346-0.78032 1.6317-0.0943 0.21857-0.20513 0.41362-0.50481 0.66053-0.20023 0.16577-0.43897 0.31375-0.67951 0.46527 6.0534 2.7391 11.473 6.2398 17.947 7.2151 5.8993 0.88949 11.471 1.657 16.831 2.9264 2.3825 0.56505 5.978-0.25278 8.5704 0.05462 3.8859 0.45718 7.8034 0.81681 11.85 0.92728 0.23621 0.0037 0.34564 0.06791 0.39285 0.14202 4.0862-0.07539 6.7583-0.74716 9.9906-2.1677 4.1825-1.8386 12.496-2.3525 18.453-1.6844 0.10617-0.0028 0.20331-0.0062 0.30758-0.0054 1.5215-0.45469 3.7106-0.39755 5.7307-0.21661 0.8172-0.16178 1.6673-0.31357 2.5356-0.44541 0.89802-0.6111 2.2459-1.1165 3.9318-1.4842 3.0694-0.6665 7.3068-0.99673 9.5635-2.0605 0.22928-0.11163 0.69558 0.01743 0.52653 0.1414-1.0856 0.78901-2.7794 1.6488-4.7075 2.153-2.61 0.68036-6.2322 1.3479-6.4292 2.7365l-0.0338 0.06406c5.3775 0.90407 10.187 2.6452 14.615 4.2416 0.15735 0.02724 0.27981 0.0479 0.34936 0.0608 4.0953 0.6959 7.4833 2.681 12.251 2.5036 5.9229-0.22006 4.2016 2.5825 5.486 3.8689 0.164 0.16109-0.40388 0.24613-0.65588 0.1263-4.8984-2.3409-12.223-4.576-20.056-5.9953-0.45915-0.0694-0.91093-0.15306-1.3645-0.23317-3.285-0.55075-6.6349-0.9584-9.9307-1.158-0.87656-0.05403-1.4808-0.41271-1.3931-0.74665l-1.2892-0.26799c-0.92977-0.02505-1.8688-0.05047-2.8005-0.05331-1.2466-0.0016-1.8522-0.4493-1.3524-0.84348-0.32762-0.01089-0.6388-0.0167-0.95911-0.0236-1.1214 0.23422-2.3998 0.36716-4.1555 0.41076-0.6756 0.01743-1.4146-0.08149-2.0124-0.25071-0.41957 0.07448-0.91232 0.14318-1.5973 0.21534-1.5421 0.1641-2.7912-0.08962-3.5288-0.48469-3.0373 0.47638-5.9032 1.0811-7.4007 1.8562-1.9782 1.0227-3.3777 1.6092-6.5682 1.9402-5.3039 0.55022-12.804-0.46506-18.892-1.0841-0.41553 0.01198-0.82568 0.03159-1.2303 0.04042-1.8179 0.03486-4.0877 0.40867-6.1659 0.50474 0.28299 0.53718 0.36635 1.092 0.45717 1.6326 0.0888 0.59971 1.2723 1.1447 2.0717 1.6409 0.2519 0.15688-0.34198 0.31026-0.61588 0.15909-0.58233-0.32729-1.1757-0.65177-1.716-0.98688-0.46726-0.29232-1.1253-0.49221-1.6842-0.75469-1.178-0.55563-2.0747-0.99284-2.2579-1.7407-0.0231-0.08334 0.0158-0.15807 0.0617-0.22856-5.9493-1.1231-12.872-1.5077-18.741-2.6949-6.1612-1.2472-11.402-3.1667-16.792-4.8535-3.6374-1.1378-6.799-2.6236-10.954-3.4983-3.0814-0.64959-5.2636-0.97663-7.4173-1.9275-1.5341 0.02033-3.1279-0.10124-4.7178-0.28542-0.46116-0.02869-0.92779-0.06547-1.4053-0.1178-0.26895-0.03231-0.51218-0.07728-0.74073-0.13229-1.0615 0.72422-3.6959 1.1582-5.6011 0.68248-0.56495-0.14071-1.0842-0.27783-1.587-0.40993-1.806 0.2323-3.6668 0.42322-5.6833 0.63897-4.9927 0.53763-10.708 1.7335-15.346 2.6695-6.6055 1.3334-12.098 3.1098-18.127 4.6886 0.72948 0.19068 1.459 0.38135 2.1738 0.56347 6.1048 1.5577 12.325 3.1873 16.425 5.5618 3.1307-0.08748 6.1336 0.12623 9.0101 0.7486 1.9859 0.43016 3.9165 0.9486 5.9576 1.3275 3.2409 0.59914 3.3693 1.3057 4.6796 0.23056 0.94645-0.77771 4.4831-0.78512 5.0151 0.13469 2.1697 3.7269 2.7658 7.6784 7.9211 11.047 0.93798 0.61457 4.8498 2.1592 4.4803 2.8711-0.87019 1.6765 6.1639 1.829 8.8028 1.9919 0.37886 0.02251 0.30829 0.23168-0.0429 0.24853-3.9989 0.20078-7.287-0.10571-11.054-0.62759-0.3805-0.05581-0.59734-0.26178-0.50329-0.4063 0.98211-1.5081-3.7898-3.1203-5.3145-4.2922-1.1582-0.88749-2.2962-1.7771-3.1594-2.7192-1.6152-1.7681-3.1371-3.551-4.5984-5.3403-0.4982 0.0609-1.0365 0.08897-1.6369 0.07146-7.6562-0.21992-13.006-2.6815-20.777-2.5881 0.033 0.04703 0.0764 0.09122 0.10744 0.1418 0.0455 0.05915-0.14705 0.09961-0.24367 0.04753-0.13517-0.0699-0.2648-0.13193-0.40178-0.19827-1.0708-0.01017-2.2286-0.20103-2.7596-0.57244-0.343-0.23811-0.70256-0.4627-1.0822-0.68517-3.4944-0.78949-7.6297-1.1699-10.811-2.2683-4.006-1.3817-8.2175-2.6424-12.541-3.8712l-0.24136-0.06711c-2.9523-0.09113-5.7248-0.25339-8.4966-0.56377-1.8076 0.1803-3.9082-0.01053-5.5758-0.77887l-0.1131-0.05704c-1.048-0.18237-2.1198-0.374-3.2007-0.58487-9.2884 0.7966-18.588 0.5698-28.075-0.08657-5.6108 1.1781-14.241 1.293-19.663 1.7968-8.9646 0.83315-18.062 0.32591-27.15 0.66402-0.66229 0.30362-1.5858 0.5052-2.6972 0.53644-4.2987 0.11794-8.2958 0.70046-12.389 1.1754-0.09562 0.09253-0.20769 0.18004-0.34538 0.26182 0.59636 0.08018 0.78701 0.41007 0.20949 0.60549-5.8268 1.9428-13.469 1.8981-20.18 2.9751-1.5101 0.35925-3.0677 0.69997-4.6564 1.0271-0.17967 0.05258-0.36477 0.09728-0.53708 0.15415zm171.9-21.797 0.0314-0.0236z" fill="#483d8b" stroke-width="5.8219"/>
 <circle cx="100" cy="37.799" r="42" fill="#483d8b" stroke="#000" stroke-width="4.24"/>
 <g transform="matrix(2.9734 0 0 3.4338 45.267 -22.794)">
  <rect x="10.178" y="14.25" width="16.467" height="7.9451" fill="#0ff"/>
  <ellipse transform="matrix(.87405 0 0 .87405 2.7277 2.229)" cx="18.056" cy="10.338" rx="9.0429" ry="2.143" fill="#0ff"/>
  <g transform="matrix(.037872 0 0 .036469 9.5192 9.0879)">
   <path d="m234.67 0c-113.02 0-234.67 20.031-234.67 64v74.667c0 54.781 140.33 74.667 234.67 74.667s234.67-19.885 234.67-74.667v-74.667c-1e-3 -43.969-121.65-64-234.67-64zm0 106.67c-124.23 0-192-28.188-192-42.667s67.771-42.667 192-42.667 192 28.187 192 42.667c0 14.479-67.771 42.667-192 42.667z"/>
   <path d="m453.21 321.71c-66.253 39.454-199.01 40.955-218.54 40.955s-152.29-1.502-218.54-40.955c-7.171-4.27-16.122 0.661-16.122 9.006v63.949c0 49.021 118.05 74.667 234.67 74.667s234.67-25.646 234.67-74.667v-63.949c-1e-3 -8.345-8.952-13.276-16.122-9.006z"/>
   <path d="m453.21 193.71c-66.253 39.454-199.01 40.955-218.54 40.955s-152.29-1.502-218.54-40.955c-7.171-4.27-16.122 0.661-16.122 9.006v63.949c0 54.781 140.33 74.667 234.67 74.667s234.67-19.885 234.67-74.667v-63.949c-1e-3 -8.345-8.952-13.276-16.122-9.006z"/>
  </g>
  <g transform="matrix(.019402 0 0 .018683 11.965 15.225)" fill="#0ff" stroke="#000" stroke-width="14.307">
   <g transform="matrix(1.4887,0,0,1.4887,-49.078,-251.56)" fill="#0ff" stroke="#000" stroke-width="7.6149">
    <path d="m387.55 12.169c-1.522-6.081-6.666-10.574-12.896-11.266-0.332-0.038-8.258-0.903-19.774-0.903-27.512 0-65.012 4.698-87.426 27.077-41.959 41.9-26.717 108.88-26.049 111.71 1.35 5.705 5.899 10.101 11.646 11.255 0.427 0.086 10.626 2.1 25.095 2.1 23.995 0 57.967-5.361 83.543-30.904 42.05-41.993 26.542-106.35 25.861-109.06z" stroke-width="7.6099"/>
    <path d="m364.77 170.18c-2.586-2.66-5.257-5.209-8-7.651-27.105 15.739-56.4 19.606-78.627 19.606-17.156 0-29.646-2.414-31-2.687-17.188-3.451-30.9-16.704-34.936-33.769-0.403-1.706-1.516-6.756-2.472-14.154-23.495 7.42-44.882 20.53-62.505 38.655-28.385 29.195-44.017 68.22-44.017 109.89 0 48.621 20.642 76.261 38.854 100.65 8.239 11.033 16.023 21.455 22.243 33.703 3.792 7.465 7.281 14.742 10.656 21.78 9.741 20.313 18.153 37.858 29.558 51.325 13.947 16.471 30.787 24.477 51.482 24.477 40.465 0 79.929-30.918 111.12-87.06 25.307-45.548 41.658-102.41 41.658-144.87 1e-3 -41.665-15.631-80.69-44.015-109.89z"/>
   </g>
  </g>
 </g>
</svg>
