<?xml version="1.0" encoding="UTF-8"?>
<svg width="100" height="100" version="1.1" viewBox="0 0 35.277 35.277" xmlns="http://www.w3.org/2000/svg" xmlns:cc="http://creativecommons.org/ns#" xmlns:dc="http://purl.org/dc/elements/1.1/" xmlns:rdf="http://www.w3.org/1999/02/22-rdf-syntax-ns#">
 <metadata>
  <rdf:RDF>
   <cc:Work rdf:about="">
    <dc:format>image/svg+xml</dc:format>
    <dc:type rdf:resource="http://purl.org/dc/dcmitype/StillImage"/>
    <dc:title/>
   </cc:Work>
  </rdf:RDF>
 </metadata>
 <ellipse cx="11.531" cy="23.836" rx="8.2668" ry="7.3279" fill="none" stroke-width="3.0595"/>
 <circle cx="17.338" cy="18.235" r="17.638" fill="none"/>
 <g transform="matrix(.035997 0 0 .036966 -.35997 -.84648)" fill="#0ff">
  <path d="m878 223.4 17.6 162.7h3.6l-18.1-165.3z"/>
  <path d="m882.5 218.3 93.5 277.6h-5.1l-93-273.7z"/>
  <path d="m876.3 220.3v113h3.3v-109z"/>
  <path d="m416 967.9h209.7v4.4h-209.7z"/>
  <path d="m360.3 953.5 35.9 12.4 2.4-4.4-34-11.1z"/>
  <path d="m156.3 163.5-6.6 83.3h-3.3l8.3-83.3z"/>
  <path d="m150.3 247.7 193.1-166.6 3.4 2.8-192.4 166.3z"/>
  <path d="m342.8 82.6-143.7 57.2-1.4-1.4 145.1-61z"/>
  <path d="m360.5 72.4 47.9-28.3v-2.4l-51.6 28.4z"/>
  <path d="m360.3 72.3 259.5-19.9v2.7l-259.5 20.8z"/>
  <path d="m347.8 83.2-9.1 99.8 4.2-0.5 7.1-99.3z"/>
  <path d="m357.5 82.4 184.2 75.2 1.2-4.1-184.3-75-1.1 2.8z"/>
  <path d="m624.1 54.8-69.1 97.5 3.7 2.8 69.1-97.7z"/>
  <path d="m32.9 368 107.8-109.6 2.6 2.2-108.3 109z"/>
  <path d="m141 262.7-64.1 242.2 3 2.5 65-244.7z"/>
  <path d="m31.3 386.4 31.3 27.8 3.6-5.8-31.3-24.9z"/>
  <path d="m23.4 386.2 43.9 121.2h3.4l-43.3-121.2z"/>
  <path d="m334.7 208.2h3.9v3.5h-3.9z"/>
  <path d="m152.2 253.9 175.4-33.6v3.4l-175.4 33.1z"/>
  <path d="m148.2 261 88.8 144.3 1 1.6 3-3-90.7-144.9z"/>
  <path d="m247.5 403.9 84.9-177.5h2.3l-82.6 177.5z"/>
  <path d="m331.7 226.4-26.6 263.9h3.3l26.2-263.9z"/>
  <path d="m344.3 216.1 198.7-54.3v5l-198.7 53.4z"/>
  <path d="m637.8 62.1 119.9 124.6 2.3-2.3-122.2-126.1z"/>
  <path d="m562 160.1 194.1 28.7v2.4l-194.1-27.8z"/>
  <path d="m775.3 194.7 89 12.9v4.4l-90.4-15.3z"/>
  <path d="m769 200.8 95.2 142.5 2.2-2.5-95-143.5z"/>
  <path d="m762.3 199-56.3 137.4h3.9l55.4-137.4z"/>
  <path d="m336.7 224.5 127.9 126.3 2.3-3.4-126.6-122.9z"/>
  <path d="m545.6 165.6-73.1 182.1h3.3l72.6-182.1z"/>
  <path d="m555 165.6 143.2 172.7 4-0.6-143.5-172.1z"/>
  <path d="m473.8 351.5 223.9-5.7v2.8l-220.5 5.4z"/>
  <path d="m882.4 357.1 85.1 138.8h3.5l-84.8-138.8z"/>
  <path d="m874.2 356.5 93.5 139.4 2.2-2-90.1-137.4z"/>
  <path d="m711.3 343.6 179.2 48.3-3.8 2.9-175.5-47.4v-3.8z"/>
  <path d="m704.7 349.4 71.8 219.9h2.1l-71.4-219.9z"/>
  <path d="m601.7 507.4 97.1-156.1h3.4l-98.3 156.1z"/>
  <path d="m623.3 415.9-26.2 91.5h2.5l27-91.5z"/>
  <path d="m472.5 356.6 119.5 150.8h2.6l-119.3-150.8z"/>
  <path d="m256 410 1.6-0.4 209.3-55.6v3.8l-210.9 55.3z"/>
  <path d="m467.7 357.8-63.8 214h3.3l62.9-212.7z"/>
  <path d="m316.6 502.4 301.8-97.7 2.4 3.3-302 97.4z"/>
  <path d="m81.4 424.3 209 78.7v-2.2l-204.7-79.5z"/>
  <path d="m82 510.7 159.5-96.2 2.2 3.1-160 94.9z"/>
  <path d="m69.8 521.2-41.1 113.2h3.5l40.3-111.4z"/>
  <path d="m73.8 522.4 72.8 241.6h3.4l-72.8-241.6z"/>
  <path d="m30.5 654.6 111.6 113.4 1.7-4.1-111.6-112.8z"/>
  <path d="m215.9 631.9-39.8 109.7 3.2 5.7 38.6-112.1z"/>
  <path d="m77.2 521.7 132.6 101.2 2.6-3.5-131-101.2z"/>
  <path d="m242 416.2-22.2 200.4h3.1l23.2-200.4z"/>
  <path d="m246.1 418.7 151.9 154 2.6-0.9-151.5-153.1z"/>
  <path d="m297.9 515.5-115.9 226.2h3.4l114.1-222.8z"/>
  <path d="m229.8 622.9 167.9-46.5v2.5l-167.9 47.8z"/>
  <path d="m408.8 573.3 185.8-58.6v3.4l-185.8 58.7z"/>
  <path d="m603 518.1 168.1 57 1.4-3.4-169.5-56.9z"/>
  <path d="m892.1 398.4-107.2 170.9h2.3l105-167.3v-3.6z"/>
  <path d="m899.1 400.6 13.2 224.9h3.9l-14.4-224.9z"/>
  <path d="m973.7 513.1-55.6 112.2 3.1 3 56.5-115.2z"/>
  <path d="m784.9 581.7 118.4 52.8v-5.4l-118.4-50.6z"/>
  <path d="m911.1 642.2-31.5 150.6h4.2l29.4-150.6z"/>
  <path d="m778.7 583.2-16.2 215.5h2.5l16.6-215.5z"/>
  <path d="m909.4 642.2-142 155.2 2.1 1.3 142-156.5z"/>
  <path d="m850.3 666.5 22.7 126.3h3.6l-22.6-126.3z"/>
  <path d="m597.1 518.7-10 192.2h2.8l9.9-193.2z"/>
  <path d="m592.4 713.1 182.5-131.1 1.5 2.1-184 132.1z"/>
  <path d="m591.5 720.2 161.8 85.8 3-2.2-163.6-86.6z"/>
  <path d="m406.2 580.3 175.2 136.9v-4.6l-173.3-135.8z"/>
  <path d="m403.2 579.1-40.9 202.1h3.4l39.2-200.4z"/>
  <path d="m219.7 632.7 133.4 148.5h3l-133-151z"/>
  <path d="m370.2 786.1 213.3-68.9v3.2l-213.3 68.7z"/>
  <path d="m586.3 720.3-38.3 160.6h2.6l37.8-160.6z"/>
  <path d="m187.7 753.9 315.5 10.1v3.9l-315.4-11.2v-2.8z"/>
  <path d="m157.6 773.5 194.1 15.6v2.6l-194.1-15z"/>
  <path d="m150.9 777.8 17.7 86.9h2.1l-16.2-86.9z"/>
  <path d="m153 778.5 196 165.5 2.2-2.6-195.9-166.1z"/>
  <path d="m359.4 802.4-3.3 134.6h3.3l2.9-137.1z"/>
  <path d="m370.2 797.4 165.8 90.4 3.3-3.1-169.1-92.9z"/>
  <path d="m553.6 884.1 200.2-75.5v3.8l-200.2 76.5z"/>
  <path d="m772 804.5 92.4-2.1v2.1l-92.4 4.1z"/>
  <path d="m755.6 809.6-117 146.9h5.2l111.9-143.9v-3z"/>
  <path d="m755.4 812.4-55.6 85.6 4.6 2.3 54.1-87.9z"/>
  <path d="m689.7 912.3-48.6 43.6 2.3 2.8 46.3-43.6z"/>
  <path d="m363.6 939.9 173.4-49.3 2.4 3.1-175.8 50.3z"/>
  <path d="m366.9 944.9 256.9 17v3.3l-256.9-18.2z"/>
  <path d="m548.1 891.5 76.6 69v-4.1l-72.4-64.9z"/>
  <path d="m171.6 156.1c0 6.9-5.6 12.5-12.5 12.5s-12.5-5.6-12.5-12.5 5.6-12.5 12.5-12.5 12.5 5.6 12.5 12.5z"/>
  <path d="m351.9 194c0 7.8-6.3 14.2-14.2 14.2-7.8 0-14.2-6.3-14.2-14.2 0-7.8 6.3-14.2 14.2-14.2 7.8 0.1 14.2 6.4 14.2 14.2z"/>
  <path d="m361.6 74.9c0 6.1-5 11.1-11.1 11.1s-11.1-5-11.1-11.1c0-6.2 5-11.1 11.1-11.1s11.1 5 11.1 11.1z"/>
  <path d="m429.7 35.8c0 7.1-5.8 12.9-12.9 12.9s-12.9-5.8-12.9-12.9c0-7.2 5.8-12.9 12.9-12.9 7.1-0.1 12.9 5.7 12.9 12.9z"/>
  <path d="m561.6 160c0 5.7-4.6 10.3-10.3 10.3s-10.3-4.6-10.3-10.3 4.6-10.3 10.3-10.3 10.3 4.6 10.3 10.3z"/>
  <path d="m685 114.7c0 7.7-6.3 14-14 14-7.8 0-14-6.3-14-14 0-7.8 6.3-14 14-14s14 6.2 14 14z"/>
  <path d="m776.5 191.2c0 6.2-5 11.2-11.2 11.2s-11.2-5-11.2-11.2 5-11.2 11.2-11.2 11.2 5 11.2 11.2z"/>
  <path d="m790.2 575.7c0 5.8-4.7 10.5-10.5 10.5s-10.5-4.7-10.5-10.5 4.7-10.5 10.5-10.5c5.7 0 10.5 4.7 10.5 10.5z"/>
  <path d="m478.2 352.5c0 4.5-3.6 8.1-8.1 8.1s-8.1-3.6-8.1-8.1 3.6-8.1 8.1-8.1c4.5 0.1 8.1 3.7 8.1 8.1z"/>
  <path d="m865.4 657.3c0 8.3-6.8 15.1-15.1 15.1s-15.1-6.8-15.1-15.1 6.8-15.1 15.1-15.1c8.4 0 15.1 6.7 15.1 15.1z"/>
  <path d="m649.5 401.6c0 9.6-7.8 17.4-17.4 17.4s-17.4-7.8-17.4-17.4 7.8-17.4 17.4-17.4c9.7 0.1 17.4 7.9 17.4 17.4z"/>
  <path d="m714.6 343.6c0 5.5-4.4 9.9-9.9 9.9s-9.9-4.4-9.9-9.9 4.4-9.9 9.9-9.9 9.9 4.5 9.9 9.9z"/>
  <path d="m861.8 209c0 7.8 6.3 14 14 14 7.8 0 14-6.3 14-14s-6.3-14-14-14-14 6.3-14 14z"/>
  <path d="m894.9 344.4c0 8.4-6.8 15.3-15.3 15.3-8.4 0-15.3-6.8-15.3-15.3 0-8.4 6.8-15.3 15.3-15.3 8.5 0.1 15.3 6.9 15.3 15.3z"/>
  <path d="m923.9 633.5c0 5.9-4.8 10.7-10.7 10.7s-10.7-4.8-10.7-10.7 4.8-10.7 10.7-10.7 10.7 4.8 10.7 10.7z"/>
  <path d="m990 506.2c0 7.4-6 13.3-13.3 13.3-7.4 0-13.3-6-13.3-13.3 0-7.4 6-13.3 13.3-13.3s13.3 5.9 13.3 13.3z"/>
  <path d="m606.2 513.5c0 4.3-3.5 7.9-7.9 7.9-4.3 0-7.9-3.5-7.9-7.9 0-4.3 3.5-7.9 7.9-7.9 4.3 0 7.9 3.5 7.9 7.9z"/>
  <path d="m646.4 964.8c0 6.8-5.5 12.4-12.4 12.4-6.8 0-12.4-5.5-12.4-12.4s5.5-12.4 12.4-12.4 12.4 5.6 12.4 12.4z"/>
  <path d="m707.3 906c0 6.6-5.3 12-12 12-6.6 0-12-5.4-12-12s5.4-11.9 12-11.9 12 5.3 12 11.9z"/>
  <path d="m751.8 805.9c0 5.7 4.6 10.3 10.3 10.3s10.3-4.6 10.3-10.3-4.6-10.3-10.3-10.3-10.3 4.6-10.3 10.3z"/>
  <path d="m889.9 803c0 7.1-5.7 12.8-12.8 12.8s-12.8-5.7-12.8-12.8 5.7-12.8 12.8-12.8 12.8 5.7 12.8 12.8z"/>
  <path d="m555.4 888c0 5.6-4.5 10.1-10.1 10.1s-10.1-4.5-10.1-10.1 4.5-10.1 10.1-10.1 10.1 4.6 10.1 10.1z"/>
  <path d="m345.2 219.3c0 5.3-4.3 9.6-9.6 9.6s-9.6-4.3-9.6-9.6 4.3-9.6 9.6-9.6 9.6 4.3 9.6 9.6z"/>
  <path d="m84.1 514.3c0 5.7-4.6 10.3-10.3 10.3s-10.3-4.6-10.3-10.3 4.6-10.3 10.3-10.3c5.6 0.1 10.3 4.7 10.3 10.3z"/>
  <path d="m38.1 643.6c0 7.7-6.3 14-14 14-7.8 0-14-6.3-14-14 0-7.8 6.3-14 14-14s14 6.2 14 14z"/>
  <path d="m183.8 874.4c0 6.8-5.5 12.4-12.4 12.4-6.8 0-12.4-5.5-12.4-12.4 0-6.8 5.5-12.4 12.4-12.4 6.8 0.1 12.4 5.6 12.4 12.4z"/>
  <path d="m161.5 770.9c0 5.8-4.7 10.6-10.6 10.6-5.8 0-10.6-4.7-10.6-10.6 0-5.8 4.7-10.6 10.6-10.6 5.9 0.1 10.6 4.8 10.6 10.6z"/>
  <path d="m189.9 752.2c0 8.5-6.9 15.4-15.4 15.4s-15.4-6.9-15.4-15.4 6.9-15.4 15.4-15.4 15.4 6.9 15.4 15.4z"/>
  <path d="m10 375.8c0 7.8 6.3 14 14 14s14-6.3 14-14c0-7.8-6.3-14-14-14s-14 6.3-14 14z"/>
  <path d="m411 575c0 4-3.2 7.2-7.2 7.2s-7.2-3.2-7.2-7.2 3.2-7.2 7.2-7.2c3.9 0 7.2 3.2 7.2 7.2z"/>
  <path d="m371.2 788.4c0 5.2-4.2 9.5-9.5 9.5-5.2 0-9.5-4.2-9.5-9.5s4.2-9.5 9.5-9.5 9.5 4.3 9.5 9.5z"/>
  <path d="m420.1 963.9c0 7-5.6 12.6-12.6 12.6-6.9 0-12.6-5.6-12.6-12.6 0-6.9 5.6-12.6 12.6-12.6 6.9 0 12.6 5.7 12.6 12.6z"/>
  <path d="m366.8 945.4c0 5.6-4.5 10.1-10.1 10.1s-10.1-4.5-10.1-10.1 4.5-10.1 10.1-10.1c5.5 0 10.1 4.5 10.1 10.1z"/>
  <path d="m155.4 253.9c0 5.8-4.7 10.6-10.6 10.6-5.8 0-10.6-4.7-10.6-10.6 0-5.8 4.7-10.6 10.6-10.6s10.6 4.7 10.6 10.6z"/>
  <path d="m60.4 416.2c0 8.4 6.8 15.1 15.1 15.1 8.4 0 15.1-6.8 15.1-15.1 0-8.4-6.8-15.1-15.1-15.1s-15.1 6.8-15.1 15.1z"/>
  <path d="m255.8 410.8c0 5.4-4.4 9.7-9.7 9.7-5.4 0-9.7-4.4-9.7-9.7 0-5.4 4.4-9.7 9.7-9.7s9.7 4.4 9.7 9.7z"/>
  <path d="m319.9 506.1c0 9.1-7.3 16.4-16.4 16.4s-16.4-7.3-16.4-16.4c0-9 7.3-16.4 16.4-16.4 9 0 16.4 7.4 16.4 16.4z"/>
  <path d="m229.8 624.5c0 5.7-4.7 10.4-10.4 10.4s-10.4-4.7-10.4-10.4 4.7-10.4 10.4-10.4 10.4 4.7 10.4 10.4z"/>
  <path d="m533.5 766.4c0 9.2-7.5 16.7-16.7 16.7s-16.7-7.5-16.7-16.7 7.5-16.7 16.7-16.7c9.3 0.1 16.7 7.5 16.7 16.7z"/>
  <path d="m594 716.2c0 3.9-3.2 7-7 7-3.9 0-7.1-3.2-7.1-7 0-3.9 3.2-7.1 7.1-7.1s7 3.2 7 7.1z"/>
  <path d="m643.8 49.9c0 7-5.7 12.7-12.7 12.7s-12.7-5.7-12.7-12.7 5.7-12.6 12.7-12.6 12.7 5.6 12.7 12.6z"/>
  <path d="m167.1 150.2 239-111.9 2.9 4-239.7 111.8z"/>
  <path d="m427.3 35.8 192.5 13.2v3.4l-192.5-12.6z"/>
  <path d="m427.3 40.6 231.7 74v-3.9l-231.7-72.5z"/>
  <path d="m637.1 61.4 227.2 146.4 2.1-2.9-227.2-148.1z"/>
  <path d="m977.7 516.4-93.9 276.4h-4.2l93.9-276.4z"/>
  <path d="m643.9 963.6 228.2-150.7-3.4-2.1-224.8 149.3z"/>
  <path d="m178.3 883.6 170 65.1v-5.1l-167.3-64.3z"/>
  <path d="m26 654.7 136.4 213.8 3.8-2.1-136.4-211.7z"/>
  <path d="m22 387.9h2.8v246.5h-2.8z"/>
  <path d="m28.7 366.1 123.6-202.6h4l-124.2 206.1z"/>
  <path d="m153.2 165.6-76.3 239.1 5.5 2.1 74.9-241.2z"/>
  <path d="m408.9 44.7-67.9 137.3 3.5 2.6 69.3-139.9z"/>
  <path d="m349.9 189.8 311.9-73.3v4.2l-311.9 73.9z"/>
  <path d="m346.8 197.9 272.2 192.9-3 4.2-269.2-192z"/>
  <path d="m72.5 428-47.7 206.4h5.3l46.4-206.4z"/>
  <path d="m632.9 61.5 29.4 43.4h4.9l-30.1-47.9z"/>
  <path d="m681.6 122.4 182.6 85.4v-4.4l-182.6-87z"/>
  <path d="m676.6 124.2 189.7 212.1 2.8-3.1-187.4-211.3z"/>
  <path d="m667.9 126.7-35.9 259h5.1l35.1-259z"/>
  <path d="m639.2 415.4 133.2 156.4 4.2-2.5-133.2-155.6z"/>
  <path d="m32.1 651.2 130.3 97.2 3.8-2.6-131.6-97.2z"/>
  <path d="m874.1 356.5-23.8 287.9h2.8l23.3-287.9z"/>
  <path d="m859.1 645.7 111.8-131.5 3.4 2.3-112.3 131.5z"/>
  <path d="m782.8 583.4 57.5 66.6 2.3-4-56.1-65.4z"/>
  <path d="m843.6 666.9-80 129.7v4.9l82.7-131.5z"/>
  <path d="m532.7 761.5 306.8-101v4.2l-306.8 100.7z"/>
  <path d="m181.5 764.1 214.9 194.7h3l-213.7-197.2z"/>
  <path d="m704.1 900 162.9-94.2 2 3.9-162.9 93.1z"/>
  <path d="m416 963.5 270.3-56.4v4.1l-267.8 56.8z"/>
  <path d="m908.4 392.6c0 5.9-4.8 10.7-10.7 10.7s-10.7-4.8-10.7-10.7 4.8-10.7 10.7-10.7 10.7 4.8 10.7 10.7z"/>
  <path d="m84.7 406.8 240.6-206 2.4 2.5-239.1 206.7z"/>
  <path d="m75.5 430 93.2 311.7 3.8-2.1-93.2-311.6z"/>
  <path d="m593.8 517.6-72.6 234.2h4l71.2-232z"/>
  <path d="m167.6 161 155.7 33.6v-4.3l-152.8-34z"/>
  <path d="m646.1 396.8 221.1-49.1 3 3.7-224.1 49.2z"/>
  <path d="m525.2 774 162.5 127v-3.9l-158.1-124.9z"/>
  <path d="m413.9 954.4 95.1-175.9h3.8l-96 178.1z"/>
  <path d="m172.5 766.2h3.3v98.5h-3.3z"/>
  <path d="m310.3 518 194.9 238.7 3.4-2.1-194.1-239.4z"/>
 </g>
 <g transform="matrix(.98529 0 0 1.0605 -.49748 -.36987)">
  <rect x="10.178" y="14.25" width="16.467" height="7.9451" fill="#0ff"/>
  <ellipse transform="matrix(.87405 0 0 .87405 2.7277 2.229)" cx="18.056" cy="10.338" rx="9.0429" ry="2.143" fill="#0ff"/>
  <g transform="matrix(.037872 0 0 .036469 9.5192 9.0879)">
   <path d="m234.67 0c-113.02 0-234.67 20.031-234.67 64v74.667c0 54.781 140.33 74.667 234.67 74.667s234.67-19.885 234.67-74.667v-74.667c-1e-3 -43.969-121.65-64-234.67-64zm0 106.67c-124.23 0-192-28.188-192-42.667s67.771-42.667 192-42.667 192 28.187 192 42.667c0 14.479-67.771 42.667-192 42.667z"/>
   <path d="m453.21 321.71c-66.253 39.454-199.01 40.955-218.54 40.955s-152.29-1.502-218.54-40.955c-7.171-4.27-16.122 0.661-16.122 9.006v63.949c0 49.021 118.05 74.667 234.67 74.667s234.67-25.646 234.67-74.667v-63.949c-1e-3 -8.345-8.952-13.276-16.122-9.006z"/>
   <path d="m453.21 193.71c-66.253 39.454-199.01 40.955-218.54 40.955s-152.29-1.502-218.54-40.955c-7.171-4.27-16.122 0.661-16.122 9.006v63.949c0 54.781 140.33 74.667 234.67 74.667s234.67-19.885 234.67-74.667v-63.949c-1e-3 -8.345-8.952-13.276-16.122-9.006z"/>
  </g>
  <g transform="matrix(.019402 0 0 .018683 11.965 15.225)" fill="#0ff" stroke="#000" stroke-width="14.307">
   <g transform="matrix(1.4887,0,0,1.4887,-49.078,-251.56)" fill="#0ff" stroke="#000" stroke-width="7.6149">
    <path d="m387.55 12.169c-1.522-6.081-6.666-10.574-12.896-11.266-0.332-0.038-8.258-0.903-19.774-0.903-27.512 0-65.012 4.698-87.426 27.077-41.959 41.9-26.717 108.88-26.049 111.71 1.35 5.705 5.899 10.101 11.646 11.255 0.427 0.086 10.626 2.1 25.095 2.1 23.995 0 57.967-5.361 83.543-30.904 42.05-41.993 26.542-106.35 25.861-109.06z" stroke="#000"/>
    <path d="m364.77 170.18c-2.586-2.66-5.257-5.209-8-7.651-27.105 15.739-56.4 19.606-78.627 19.606-17.156 0-29.646-2.414-31-2.687-17.188-3.451-30.9-16.704-34.936-33.769-0.403-1.706-1.516-6.756-2.472-14.154-23.495 7.42-44.882 20.53-62.505 38.655-28.385 29.195-44.017 68.22-44.017 109.89 0 48.621 20.642 76.261 38.854 100.65 8.239 11.033 16.023 21.455 22.243 33.703 3.792 7.465 7.281 14.742 10.656 21.78 9.741 20.313 18.153 37.858 29.558 51.325 13.947 16.471 30.787 24.477 51.482 24.477 40.465 0 79.929-30.918 111.12-87.06 25.307-45.548 41.658-102.41 41.658-144.87 1e-3 -41.665-15.631-80.69-44.015-109.89z"/>
   </g>
  </g>
 </g>
</svg>
