<svg version="1.1" viewBox="0 0 331.62 100" xmlns="http://www.w3.org/2000/svg">
 <g transform="matrix(.79556 0 0 .79556 35.294 11.462)">
  <g transform="matrix(1.257,0,0,1.257,-44.364,-14.407)">
   <rect x="1.9194e-12" y="2.8678e-12" width="331.61" height="100" ry="3.4587" fill="#023430" stroke-width=".79556"/>
  </g>
  <g transform="matrix(1.2654,0,0,1.2654,-44.381,-14.294)" fill="#00ed64" featurekey="symbolFeature-0">
   <path d="m77.1 26.7c-1.6-1-3.8-1.9-6.5-2.7-5.6-1.6-12.9-2.4-20.6-2.4s-15 0.8-20.5 2.4c-2.8 0.8-5 1.7-6.5 2.7-2 1.3-2.9 2.8-2.9 4.4v37.9c0 1.6 1 3.1 2.9 4.4 1.6 1 3.8 1.9 6.5 2.7 5.5 1.5 12.8 2.4 20.5 2.4s15-0.8 20.5-2.4c2.8-0.8 5-1.7 6.5-2.7 2-1.3 2.9-2.8 2.9-4.4v-38c0.1-1.6-0.9-3.1-2.8-4.3zm-46.8 0.3c5.2-1.5 12.2-2.3 19.7-2.3s14.4 0.8 19.7 2.3c5.7 1.6 7.2 3.3 7.2 4.1 0 0.7-1.5 2.5-7.2 4.1-5.2 1.5-12.2 2.3-19.7 2.3s-14.4-0.8-19.7-2.3c-5.7-1.6-7.2-3.3-7.2-4.1 0.1-0.8 1.6-2.5 7.2-4.1zm39.4 33.4c-5.2 1.5-12.2 2.3-19.7 2.3s-14.4-0.8-19.7-2.3c-5.7-1.6-7.2-3.3-7.2-4.1v-8.1c1.6 1 3.7 1.8 6.3 2.6 5.5 1.5 12.8 2.4 20.5 2.4s15-0.8 20.5-2.4c2.6-0.7 4.8-1.6 6.3-2.6v8.1c0.1 0.7-1.4 2.5-7 4.1z" fill="#00ed64"/>
  </g>
  <g transform="matrix(.47249 0 0 .47249 76.467 85.298)" fill="#fff" featurekey="sloganFeature-0">
   <path d="m8.38 20.2c-4 0-7.14-3.2-7.14-7.2s3.14-7.2 7.14-7.2 7.16 3.2 7.16 7.2-3.16 7.2-7.16 7.2zm0-1.32c3.24 0 5.72-2.58 5.72-5.88s-2.48-5.88-5.72-5.88-5.72 2.58-5.72 5.88 2.48 5.88 5.72 5.88zm21.283-7.86c0 2.22-1.14 4.28-3.5 4.84l3.18 4.14h-1.7l-3.06-3.98h-3.5v3.98h-1.4v-14h5.1c3.3 0 4.88 2.38 4.88 5.02zm-8.58-3.72v7.42h3.62c2.52 0 3.58-1.9 3.58-3.7s-1.06-3.72-3.58-3.72zm26.103-1.5h0.2v14.2h-1.38v-10.42l-5.36 7.34h-0.12l-5.36-7.3v10.38h-1.38v-14.2h0.18l6.62 8.9zm9.603 7.2v1.24h-4.7v-1.24zm6.103 5.68h6.18l-0.1 1.32h-7.48v-14h1.4zm9.683 1.32v-14h1.4v14zm14.383 0-4.5-6.74-2.38 2.92v3.82h-1.4v-14h1.4v8.04l6.6-8.04h1.7l-4.98 6.12 5.2 7.88zm17.643-7v0.54h-11.46c0.18 2.96 1.88 5.36 5.42 5.36 1.84 0 3.56-0.9 4.48-2l0.88 0.88c-1.08 1.28-2.96 2.42-5.36 2.42-4.52 0-6.84-3.2-6.84-7.2 0-4.02 2.86-7.2 6.66-7.2 4 0 6.22 3.18 6.22 7.2zm-6.22-5.9c-2.8 0-4.9 2.3-5.22 5.16h10.1c-0.24-2.92-1.88-5.16-4.88-5.16zm28.006 12.9-1.36-3.16h-6.78l-1.36 3.16h-1.5l6.16-14.2h0.18l6.16 14.2zm-7.58-4.46h5.66l-2.84-6.58zm17.483-9.54c3.28 0 4.8 2.5 4.8 5.08 0 2.56-1.52 5.06-4.8 5.06h-3.7v3.86h-1.4v-14zm-0.08 8.82c2.28 0 3.46-1.76 3.46-3.74 0-2-1.18-3.76-3.46-3.76h-3.62v7.5zm9.003 5.18v-14h1.4v14zm27.526-14.2h0.2v14.2h-1.38v-10.42l-5.36 7.34h-0.12l-5.36-7.3v10.38h-1.38v-14.2h0.18l6.62 8.9zm11.483 14.4c-4 0-7.14-3.2-7.14-7.2s3.14-7.2 7.14-7.2 7.16 3.2 7.16 7.2-3.16 7.2-7.16 7.2zm0-1.32c3.24 0 5.72-2.58 5.72-5.88s-2.48-5.88-5.72-5.88-5.72 2.58-5.72 5.88 2.48 5.88 5.72 5.88zm16.563-13.08c3.08 0 5.14 1.8 5.14 5.24v8.96h-1.38v-8.68c0-2.9-1.62-4.22-3.76-4.22-1.9 0-3.88 1.6-3.88 3.94v8.96h-1.38v-14h1.38v1.72c0.82-1.12 2.14-1.92 3.88-1.92zm21.263 6.08v6.86c-1.04 0.8-2.62 1.46-4.9 1.46-4.34 0-7.22-3.2-7.22-7.2s3.04-7.2 7.2-7.2c1.9 0 3.52 0.7 4.78 1.7l-0.74 1.06c-1.1-0.9-2.54-1.44-4.04-1.44-3.24 0-5.76 2.56-5.76 5.88 0 3.34 2.36 5.86 5.78 5.86 1.36 0 2.6-0.32 3.5-0.78v-4.86h-2.96l0.1-1.34zm11.103 8.32c-4 0-7.14-3.2-7.14-7.2s3.14-7.2 7.14-7.2 7.16 3.2 7.16 7.2-3.16 7.2-7.16 7.2zm0-1.32c3.24 0 5.72-2.58 5.72-5.88s-2.48-5.88-5.72-5.88-5.72 2.58-5.72 5.88 2.48 5.88 5.72 5.88zm16.043-12.88c4.7 0 7.2 2.9 7.2 7s-2.5 7-7.2 7h-4.74v-14zm0.06 12.68c3.8 0 5.76-2.42 5.76-5.68 0-3.28-1.96-5.68-5.76-5.68h-3.4v11.36zm18.583-7.6c1.9 0.56 3.04 2.18 3.04 4.36 0 2.38-1.28 4.48-5 4.56h-5.32v-14h5.52c2.46 0 3.12 1.7 3.12 2.82 0 1.02-0.64 1.86-1.36 2.26zm-1.9-3.82h-3.98v3.5h3.56c1.62 0 2.32-0.84 2.32-1.8 0-0.68-0.38-1.7-1.9-1.7zm-0.22 11.42c2.62 0 3.74-1.42 3.74-3.24 0-1.98-1.06-3.5-3.6-3.5h-3.9v6.74zm18.486-11.36v4.92h4.6v1.32h-4.6v6.44h-1.4v-14h7.9l0.1 1.32zm17.043 12.88c-4 0-7.14-3.2-7.14-7.2s3.14-7.2 7.14-7.2 7.16 3.2 7.16 7.2-3.16 7.2-7.16 7.2zm0-1.32c3.24 0 5.72-2.58 5.72-5.88s-2.48-5.88-5.72-5.88-5.72 2.58-5.72 5.88 2.48 5.88 5.72 5.88zm16.303-13.08c1.1 0 2.1 0.34 3.08 1.06l-0.7 1.06c-0.74-0.54-1.56-0.82-2.4-0.82-2.22 0-3.6 2.04-3.6 5.3v7.6h-1.38v-14h1.38v2.06c0.76-1.42 2-2.26 3.62-2.26zm24.506 5.22c0 2.22-1.14 4.28-3.5 4.84l3.18 4.14h-1.7l-3.06-3.98h-3.5v3.98h-1.4v-14h5.1c3.3 0 4.88 2.38 4.88 5.02zm-8.58-3.72v7.42h3.62c2.52 0 3.58-1.9 3.58-3.7s-1.06-3.72-3.58-3.72zm21.843-1.3h1.38v14h-1.38v-1.76c-0.8 1.22-2.26 1.96-4.14 1.96-3.1 0-5.16-1.76-5.16-5.04v-9.16h1.38v8.76c0 2.8 1.66 4.14 3.78 4.14 1.96 0 4.14-1.22 4.14-3.56zm5.323 12.52c0.94 0.88 2.7 1.68 4.46 1.68 2.7 0 4.52-1.46 4.52-3.64 0-1.76-0.78-2.76-4.06-4.58-2.46-1.36-3.08-1.86-3.08-2.88 0-1.1 1.08-1.98 2.68-1.98 0.96 0 2.14 0.42 2.84 0.86l0.72-1.12c-0.94-0.6-2.32-1.06-3.54-1.06-2.48 0-4.18 1.42-4.18 3.32 0 1.68 0.86 2.52 3.56 3.96 2.62 1.38 3.56 2.3 3.56 3.48 0 1.34-1.26 2.26-3 2.26-1.42 0-2.88-0.7-3.68-1.42zm21.563-11.2h-4.24v12.68h-1.4v-12.68h-4.26l0.1-1.32h9.7z" fill="#fff"/>
  </g>
  <g transform="matrix(1.118 0 0 2.2272 166.91 -297.05)" fill="#fff">
   <path d="m74.485 163.65c-0.41394-0.16642-1.3582-1.963-1.784-3.3943-0.29331-0.98586-0.3882-1.0638-1.3857-1.1384-0.58894-0.044-2.3963 0.10477-4.0163 0.33073-1.62 0.22595-3.3857 0.41082-3.9238 0.41082-0.84658 0-1.1592 0.19593-2.3218 1.4552-1.2612 1.3661-1.4196 1.4552-2.5845 1.4552-0.80775 0-1.2409-0.11396-1.2409-0.32649 0-0.17956 0.49074-1.3591 1.0905-2.6213l1.0905-2.2948-0.69366-0.90944c-0.38151-0.50019-0.69366-0.98749-0.69366-1.0829 0-0.0954 0.56809-0.17346 1.2624-0.17346h1.2624l1.4995-2.0505c0.8247-1.1278 2.5967-4.1341 3.9377-6.6807 2.9286-5.5613 3.9689-7.239 4.8447-7.8128 0.62628-0.41035 4.7085-2.0276 4.8037-1.9031 0.71815 0.93886 0.77801 1.6762 0.77801 9.5837v8.2021l0.8599 0.88788c0.47294 0.48833 0.85989 0.99627 0.85989 1.1288 0 0.13248-0.42625 0.44415-0.94722 0.69258-0.90071 0.42952-0.94036 0.50401-0.8076 1.5171 0.52213 3.9842 0.54064 3.73-0.31618 4.3402-0.80855 0.57573-0.98831 0.6196-1.5741 0.38409zm-2.8866-8.4616 1.0089-0.16671-0.15833-3.733c-0.0871-2.0531-0.22472-4.378-0.30586-5.1663l-0.14752-1.4333-0.47031 0.77185c-0.76387 1.2536-5.3579 8.6572-5.7737 9.3047l-0.3823 0.59531 2.6101-3e-3c1.4356-2e-3 3.0641-0.0779 3.619-0.16962zm-149.84 7.8388c-4.3987-2.0373-6.0067-7.2882-4.2135-13.759 1.8733-6.7601 7.4165-11.977 12.724-11.976 2.0079 5.8e-4 3.5722 0.72552 4.8656 2.2548 0.82125 0.97105 2.1055 3.5959 1.8731 3.8283-0.08315 0.0832-0.8816-0.28391-1.7743-0.81571-2.2338-1.3307-3.4876-1.5774-5.4362-1.0699-3.0967 0.8066-5.9171 3.3458-7.7223 6.9527-2.3542 4.7035-2.0721 8.9324 0.7215 10.815 2.3135 1.5591 6.0318-0.29853 8.1408-4.067l0.57942-1.0354-1.8015 0.1018c-2.132 0.12046-2.7463-0.14564-3.4299-1.4857-0.53592-1.0505-1.1888-3.2171-1.0202-3.3856 0.05578-0.0558 0.98634 0.089 2.0679 0.32166 1.0816 0.23269 3.5655 0.4987 5.5198 0.59114l3.5533 0.16807 0.3468 0.85191c0.31736 0.77959 0.29647 0.89948-0.24602 1.4121-0.32605 0.3081-1.0283 0.78475-1.5605 1.0592-0.80788 0.4166-0.99856 0.6815-1.1544 1.6037-0.26274 1.5551-0.73298 2.5764-1.8958 4.1171-2.0688 2.7412-4.0587 3.8824-6.9623 3.9929-1.5668 0.0597-2.2349-0.0405-3.175-0.47589zm117.13 0.15421c-1.1982-0.42742-3.0963-1.6439-3.0963-1.9844 0-0.13299 0.64275-0.3221 1.4283-0.42025l1.4283-0.17846-0.14251-2.0792c-0.11595-1.6916-0.0147-2.5866 0.54332-4.8015 0.37721-1.4973 0.94391-3.913 1.2593-5.3682 0.79964-3.6892 1.1784-4.5194 2.4611-5.3947 1.1664-0.79591 3.9849-1.9428 4.2133-1.7144 0.1696 0.16959-0.055 0.92954-1.1092 3.7537-0.45187 1.2105-0.82157 2.3054-0.82157 2.4331 0 0.75112 5.7294-1.8258 7.3851-3.3215 1.2737-1.1507 1.4788-1.8297 0.75621-2.503-1.0197-0.94999-5.2729-1.1916-9.229-0.52433l-1.926 0.32485-0.73654-0.82433c-0.70385-0.78774-1.2176-2.0342-0.94906-2.3027 0.43236-0.43236 5.3146-0.99576 8.8004-1.0155 3.6342-0.0206 4.0856 0.0303 5.3556 0.60382 1.5174 0.68531 3.1318 2.2753 3.4016 3.3503 0.53514 2.1322-0.7251 4.6612-3.2744 6.5709l-1.3665 1.0237 0.82795 0.56381c1.5214 1.036 1.9365 1.8644 1.9208 3.833-0.0278 3.4835-2.325 6.8432-5.8194 8.5109-3.3234 1.5861-8.9334 2.3124-11.311 1.4644zm7.5509-3.8831c2.5521-0.99322 4.595-2.7218 5.3467-4.5241 0.98105-2.3521 0.40834-2.7263-3.8246-2.4987-2.5596 0.13763-3.1695 0.0954-3.668-0.25377-0.32889-0.23037-0.6553-0.36154-0.72535-0.2915-0.22378 0.22379-1.8983 7.988-1.7697 8.2055 0.19217 0.32507 3.2455-0.0942 4.641-0.63736zm-91.569 3.2058c-0.71595-0.51863-1.3546-1.3222-1.84-2.3151-0.40886-0.83641-1.3568-2.6518-2.1065-4.0343l-1.3632-2.5135h-3.3167l-0.46296 1.9844c-0.25463 1.0914-0.53256 2.6988-0.61762 3.5719-0.24116 2.4754-0.3417 2.7404-1.2098 3.1893-1.124 0.58125-1.4666 0.36269-1.9423-1.2392-0.51576-1.7367-0.52471-3.7202-0.02442-5.4079 0.21274-0.71763 0.74883-2.9121 1.1913-4.8767 1.4784-6.564 2.0106-7.5781 4.5835-8.7342l1.0022-0.45033-2.2495-0.14035c-2.3823-0.14863-3.5995-0.62991-4.3092-1.704-0.35484-0.537-0.32825-0.60553 0.37625-0.96984 1.9124-0.98896 8.8306-1.7846 12.036-1.3842 4.1807 0.52235 6.9211 4.4756 6.0411 8.7147-0.50513 2.4332-3.0518 5.162-5.6034 6.0041-0.57508 0.18979-1.0969 0.42811-1.1596 0.5296-0.2825 0.45708 3.4066 7.8867 4.1416 8.3409 0.74798 0.46228-0.46549 2.229-1.531 2.229-0.29621 0-1.032-0.35746-1.6351-0.79436zm-4.1468-12.853c3.0026-0.87047 4.6004-1.6853 5.6509-2.8817 1.0767-1.2262 1.144-2.644 0.17998-3.7896-0.94286-1.1205-1.8712-1.4124-4.2084-1.3234l-2.0511 0.0781-1.2676 3.7042c-1.813 5.298-1.7183 4.8948-1.1498 4.8948 0.27076 0 1.5515-0.30707 2.846-0.68237zm54.681 12.853c-0.15216-0.43649-0.3545-1.7759-0.44965-2.9766-0.13895-1.7533-0.0659-2.5995 0.37117-4.2996 0.29929-1.1642 0.97218-4.169 1.4953-6.6773 1.5416-7.3916 2.1243-8.76 4.3242-10.155 1.2005-0.76132 2.2418-0.95188 2.9048-0.53157 0.19313 0.12244 0.56909 1.341 0.83546 2.7079 0.73655 3.7797 1.7614 7.6898 2.9747 11.349l1.0966 3.3073 0.35808-1.7198c0.19695-0.94589 0.65523-3.3271 1.0184-5.2917 0.88061-4.7636 1.6207-7.3638 2.3848-8.378 0.65529-0.86994 3.5139-2.4699 4.4129-2.4699 0.38217 0 0.4692 0.11957 0.33702 0.46303-1.6634 4.3223-4.456 15.294-5.0341 19.778-0.54259 4.2088-0.89726 5.1594-1.9249 5.1594-1.0567 0-1.751-0.57949-3.2479-2.711-0.96907-1.3799-1.5363-2.5837-2.1412-4.544-0.45257-1.4668-1.3502-4.0956-1.9947-5.8418s-1.2374-3.3536-1.3175-3.5719c-0.33258-0.90648-2.6197 8.0562-3.3758 13.229-0.34865 2.3853-0.50279 2.8623-1.09 3.3734-0.95259 0.82912-1.6027 0.76259-1.9377-0.19829zm91.812-8e-4c-0.71595-0.51863-1.3546-1.3222-1.84-2.3151-0.40886-0.83637-1.3568-2.6518-2.1065-4.0342l-1.3632-2.5135h-3.3167l-0.46296 1.9844c-0.25462 1.0914-0.53255 2.6988-0.61762 3.5719-0.24116 2.4754-0.3417 2.7404-1.2098 3.1893-1.124 0.58125-1.4666 0.36269-1.9423-1.2392-0.51575-1.7367-0.52471-3.7202-0.0244-5.4079 0.21274-0.71763 0.74883-2.9121 1.1913-4.8767 1.4784-6.564 2.0106-7.5781 4.5835-8.7342l1.0022-0.45033-2.2495-0.14035c-2.3823-0.14863-3.5995-0.62991-4.3092-1.704-0.35484-0.537-0.32825-0.60553 0.37625-0.96984 1.9124-0.98896 8.8306-1.7846 12.036-1.3842 4.1807 0.52235 6.9211 4.4756 6.0411 8.7147-0.50513 2.4332-3.0518 5.162-5.6034 6.0041-0.57508 0.18979-1.0969 0.42811-1.1596 0.5296-0.2825 0.45708 3.4066 7.8867 4.1416 8.3409 0.74798 0.46228-0.46549 2.229-1.531 2.229-0.2962 0-1.032-0.35746-1.6351-0.79436zm-4.1468-12.853c3.0026-0.87047 4.6004-1.6853 5.6509-2.8817 1.0767-1.2262 1.144-2.644 0.17998-3.7896-0.94285-1.1205-1.8712-1.4124-4.2084-1.3234l-2.0511 0.0782-1.2676 3.7042c-1.813 5.298-1.7182 4.8948-1.1498 4.8948 0.27076 0 1.5515-0.30707 2.846-0.68237zm26.636 12.853c-0.71595-0.51863-1.3546-1.3222-1.84-2.3151-0.40886-0.83637-1.3568-2.6518-2.1065-4.0342l-1.3632-2.5135h-3.3167l-0.46295 1.9844c-0.25463 1.0914-0.53256 2.6988-0.61762 3.5719-0.24116 2.4754-0.3417 2.7404-1.2098 3.1893-1.124 0.58125-1.4666 0.36269-1.9423-1.2392-0.51576-1.7367-0.52472-3.7202-0.0244-5.4079 0.21274-0.71763 0.74883-2.9121 1.1913-4.8767 1.4784-6.564 2.0106-7.5781 4.5835-8.7342l1.0022-0.45033-2.2495-0.14035c-2.3823-0.14863-3.5995-0.62991-4.3092-1.704-0.35484-0.537-0.32825-0.60553 0.37625-0.96984 1.9124-0.98896 8.8306-1.7846 12.036-1.3842 4.1807 0.52235 6.9211 4.4756 6.0411 8.7147-0.50513 2.4332-3.0518 5.162-5.6034 6.0041-0.57507 0.18979-1.0969 0.42811-1.1596 0.5296-0.28249 0.45708 3.4066 7.8867 4.1416 8.3409 0.74798 0.46228-0.46549 2.229-1.531 2.229-0.29621 0-1.032-0.35746-1.6351-0.79436zm-4.1468-12.853c3.0026-0.87047 4.6004-1.6853 5.6509-2.8817 1.0767-1.2262 1.144-2.644 0.17998-3.7896-0.94286-1.1205-1.8712-1.4124-4.2084-1.3234l-2.0511 0.0782-1.2676 3.7042c-1.813 5.298-1.7183 4.8948-1.1498 4.8948 0.27076 0 1.5515-0.30707 2.846-0.68237zm33.24 12.883c-0.59411-0.59411-1.0849-2.1279-1.0871-3.3972-1e-3 -0.80685 0.0355-0.83929 0.6772-0.59531 1.0755 0.40888 1.1097 0.35528 0.97548-1.5279-0.0966-1.3554 0.0372-2.4556 0.55498-4.5641 0.37524-1.528 0.92982-4.0626 1.2324-5.6324 0.72237-3.7477 1.7747-7.3394 2.3301-7.9532 0.24464-0.27031 0.76658-0.65788 1.1599-0.86127 0.83016-0.42925 3.6518-0.50374 3.6518-0.0964 0 0.15035-0.28349 0.83496-0.62997 1.5214-1.6505 3.2696-4.9263 15.781-4.9263 18.815v0.89913l4.7462-0.18735c4.5707-0.18042 4.7663-0.16718 5.2917 0.35817 0.75956 0.75956 0.68905 1.5177-0.18209 1.958-2.2009 1.1123-3.9018 1.4313-8.5858 1.61-4.447 0.16969-4.7098 0.15222-5.2084-0.34638zm-186.03-0.55332c-0.71799-0.76861-1.8529-3.5388-1.567-3.8248 0.06649-0.0665 0.59379-0.0112 1.1718 0.12277 0.578 0.13401 1.2982 0.24649 1.6005 0.24997 0.53999 6e-3 0.54268-0.0222 0.1529-1.6177-0.38492-1.5756-0.37425-1.712 0.35843-4.5816 0.73631-2.8838 0.74405-2.9854 0.31012-4.0699-0.59534-1.4879-0.56522-1.6834 0.24399-1.5835 0.66109 0.0816 0.7134-0.0115 1.2901-2.2962 0.57746-2.2878 0.5828-2.4072 0.13602-3.0427-0.50749-0.72181-1.3214-2.945-1.3214-3.6094 0-0.30612 0.12225-0.35608 0.46302-0.1892 0.25466 0.12471 4.1143 0.22675 8.577 0.22675h8.114l0.70102 0.65798 0.70102 0.65799-0.57154 0.4628c-1.2425 1.0061-4.7192 1.8687-8.195 2.0334l-3.3073 0.15663-0.69318 1.9844c-0.38125 1.0914-0.77766 2.3713-0.88092 2.8443l-0.18774 0.85989h7.9881l0.43554 0.91333c0.54275 1.1382 0.32371 1.456-1.6454 2.3876-1.1886 0.5623-1.8221 0.67281-4.0078 0.69916-3.9071 0.0471-4.0844 0.11378-4.4894 1.6885-0.18717 0.72761-0.46496 2.2102-0.61731 3.2946-0.15236 1.0844-0.42369 2.0649-0.60296 2.1788-0.56045 0.356 6.1635 0.2302 8.7922-0.16449 1.377-0.20675 2.5982-0.31742 2.7139-0.24594 0.11566 0.0715 0.39936 0.49559 0.63045 0.94245 0.39312 0.7602 0.38698 0.85689-0.09536 1.5029-0.28353 0.37975-1.039 0.95016-1.6788 1.2676-1.0587 0.52524-1.7282 0.59317-7.4485 0.75576l-6.2852 0.17865-0.78529-0.84065zm21.696 0c-0.718-0.76861-1.8529-3.5388-1.567-3.8248 0.06649-0.0665 0.59379-0.0112 1.1718 0.12277 0.578 0.13401 1.2982 0.24649 1.6005 0.24997 0.53999 6e-3 0.54268-0.0222 0.1529-1.6177-0.38492-1.5756-0.37425-1.712 0.35843-4.5816 0.73631-2.8838 0.74405-2.9854 0.31012-4.0699-0.59534-1.4879-0.56522-1.6834 0.24398-1.5835 0.66109 0.0816 0.7134-0.0115 1.2901-2.2962 0.57746-2.2878 0.5828-2.4072 0.13602-3.0427-0.50749-0.72181-1.3214-2.945-1.3214-3.6094 0-0.30612 0.12225-0.35608 0.46302-0.1892 0.25466 0.12471 4.1143 0.22675 8.577 0.22675h8.114l0.70102 0.65798 0.70102 0.65799-0.57154 0.4628c-1.2425 1.0061-4.7192 1.8687-8.195 2.0334l-3.3073 0.15663-0.69318 1.9844c-0.38125 1.0914-0.77766 2.3713-0.88092 2.8443l-0.18774 0.85989h7.9881l0.43554 0.91333c0.54275 1.1382 0.32371 1.456-1.6454 2.3876-1.1886 0.5623-1.8221 0.67281-4.0078 0.69916-3.9071 0.0471-4.0844 0.11378-4.4894 1.6885-0.18717 0.72761-0.46496 2.2102-0.61731 3.2946-0.15236 1.0844-0.42369 2.0649-0.60296 2.1788-0.56045 0.356 6.1635 0.2302 8.7922-0.16449 1.377-0.20675 2.5982-0.31742 2.7139-0.24594 0.11566 0.0715 0.39936 0.49559 0.63045 0.94245 0.39311 0.7602 0.38698 0.85689-0.09536 1.5029-0.28353 0.37975-1.039 0.95016-1.6788 1.2676-1.0587 0.52524-1.7282 0.59317-7.4485 0.75576l-6.2852 0.17865-0.78529-0.84065zm143.14 0c-0.71799-0.76861-1.8529-3.5388-1.567-3.8248 0.0665-0.0665 0.59379-0.0112 1.1718 0.12277 0.578 0.13401 1.2982 0.24649 1.6005 0.24997 0.53999 6e-3 0.54268-0.0222 0.1529-1.6177-0.38492-1.5756-0.37425-1.712 0.35843-4.5816 0.73631-2.8838 0.74405-2.9854 0.31012-4.0699-0.59534-1.4879-0.56522-1.6834 0.24399-1.5835 0.66108 0.0816 0.7134-0.0115 1.2901-2.2962 0.57746-2.2878 0.5828-2.4072 0.13602-3.0427-0.50748-0.72181-1.3214-2.945-1.3214-3.6094 0-0.30612 0.12224-0.35608 0.46302-0.1892 0.25466 0.12471 4.1143 0.22675 8.577 0.22675h8.114l0.70102 0.65798 0.70102 0.65799-0.57154 0.4628c-1.2424 1.0061-4.7192 1.8687-8.195 2.0334l-3.3073 0.15663-0.69318 1.9844c-0.38125 1.0914-0.77766 2.3713-0.88092 2.8443l-0.18774 0.85989h7.9881l0.43554 0.91333c0.54275 1.1382 0.3237 1.456-1.6454 2.3876-1.1886 0.5623-1.8221 0.67281-4.0078 0.69916-3.9071 0.0471-4.0844 0.11378-4.4894 1.6885-0.18717 0.72761-0.46496 2.2102-0.61731 3.2946-0.15236 1.0844-0.42369 2.0649-0.60296 2.1788-0.56045 0.356 6.1635 0.2302 8.7922-0.16449 1.377-0.20675 2.5982-0.31742 2.7139-0.24594 0.11566 0.0715 0.39936 0.49559 0.63045 0.94245 0.39311 0.7602 0.38698 0.85689-0.0954 1.5029-0.28353 0.37975-1.039 0.95016-1.6788 1.2676-1.0587 0.52524-1.7282 0.59317-7.4485 0.75576l-6.2852 0.17865-0.7853-0.84065z" fill="#fff" stroke-width=".26458"/>
  </g>
 </g>
</svg>
