<svg enable-background="new 0 0 414.065 414.065" version="1.1" viewBox="0 0 414.06 414.06" xml:space="preserve" xmlns="http://www.w3.org/2000/svg">
    <path d="m272 223.75 41.409 8.219c0.429 20.311 17.243 36.429 37.554 36s36.429-17.243 36-37.554-17.243-36.429-37.554-36c-14.264 0.301-27.068 8.824-32.851 21.867l-42.483-8.432c-0.044-15.546-6.095-30.474-16.887-41.664l54.987-77.678c23.193 11.028 50.934 1.166 61.962-22.027s1.166-50.934-22.027-61.962-50.934-1.166-61.962 22.027c-8.418 17.705-4.829 38.787 8.975 52.708l-54.456 76.927c-25.044-15.041-57.264-9.986-76.5 12l-71.491-55.521c9.384-18.063 2.349-40.314-15.714-49.698s-40.314-2.349-49.698 15.714-2.349 40.314 15.714 49.698c12.692 6.594 28.053 5.25 39.406-3.448l72.87 56.591c-12.108 24.737-5.937 54.533 15 72.426l-44.285 62.613c-23.445-14.228-53.986-6.756-68.214 16.69-14.228 23.445-6.756 53.986 16.69 68.214 23.445 14.228 53.986 6.756 68.214-16.69 11.057-18.221 9.254-41.466-4.482-57.763l45.48-64.32c15.56 7.398 33.538 7.802 49.414 1.109l53.963 79.716c-15.871 16.78-15.134 43.249 1.646 59.12s43.249 15.134 59.12-1.646 15.134-43.249-1.646-59.12c-12.373-11.703-30.607-14.734-46.1-7.662l-53.185-78.568c10.299-8.07 17.713-19.255 21.131-31.886z"/>
</svg>
